SplineFontDB: 3.2
FontName: Untitled1
FullName: Untitled1
FamilyName: Untitled1
Weight: Book
Copyright: Copyright (c) 2020, Thomas Hjelm
Version: 001.000
ItalicAngle: 0
UnderlinePosition: -100
UnderlineWidth: 50
Ascent: 512
Descent: 0
InvalidEm: 0
sfntRevision: 0x00010000
LayerCount: 2
Layer: 0 1 "Back" 1
Layer: 1 1 "Fore" 0
XUID: [1021 89 -336038520 6447267]
StyleMap: 0x0000
FSType: 0
OS2Version: 4
OS2_WeightWidthSlopeOnly: 0
OS2_UseTypoMetrics: 1
CreationTime: 1595169313
ModificationTime: 1612037387
PfmFamily: 17
TTFWeight: 400
TTFWidth: 5
LineGap: 46
VLineGap: 0
Panose: 2 0 5 3 0 0 0 0 0 0
OS2TypoAscent: 512
OS2TypoAOffset: 0
OS2TypoDescent: 0
OS2TypoDOffset: 0
OS2TypoLinegap: 46
OS2WinAscent: 505
OS2WinAOffset: 0
OS2WinDescent: 0
OS2WinDOffset: 0
HheadAscent: 505
HheadAOffset: 0
HheadDescent: 0
HheadDOffset: 0
OS2SubXSize: 332
OS2SubYSize: 358
OS2SubXOff: 0
OS2SubYOff: 71
OS2SupXSize: 332
OS2SupYSize: 358
OS2SupXOff: 0
OS2SupYOff: 245
OS2StrikeYSize: 25
OS2StrikeYPos: 132
OS2CapHeight: 436
OS2XHeight: 491
OS2Vendor: 'PfEd'
OS2CodePages: 00000001.00000000
OS2UnicodeRanges: 00000003.00000000.00000000.00000000
MarkAttachClasses: 1
DEI: 91125
ShortTable: cvt  2
  17
  324
EndShort
ShortTable: maxp 16
  1
  0
  75
  113
  7
  0
  0
  2
  0
  1
  1
  0
  64
  46
  0
  0
EndShort
LangName: 1033 "" "" "Regular" "FontForge : Untitled1 : 24-8-2020"
GaspTable: 1 65535 2 0
Encoding: UnicodeBmp
Compacted: 1
UnicodeInterp: none
NameList: AGL For New Fonts
DisplaySize: -96
AntiAlias: 1
FitToEm: 0
WinInfo: 0 15 6
Grid
307.724609375 127.4453125 m 5
 307.724609375 385.315429688 l 5
 204.094726562 385.315429688 l 5
 204.094726562 333.5 l 5
 255.91015625 333.5 l 5
 255.91015625 127.4453125 l 5
 307.724609375 127.4453125 l 5
435.455078125 487.740234375 m 6
 449.914713542 487.740234375 462.165364583 482.719401042 472.20703125 472.677734375 c 132
 482.248697917 462.636067708 487.26953125 450.385091146 487.26953125 435.924804688 c 6
 487.26953125 76.8349609375 l 6

StartChar: parenleft
Encoding: 40 40 0
Width: 512
Flags: W
LayerCount: 2
Fore
SplineSet
341 160 m 1,0,-1
 256 245 l 1,1,-1
 171 160 l 1,2,-1
 171 85 l 1,3,-1
 341 85 l 1,4,-1
 341 160 l 1,0,-1
128 469 m 1,5,-1
 384 469 l 1,6,-1
 384 341 l 1,7,-1
 299 256 l 1,8,-1
 384 171 l 1,9,-1
 384 43 l 1,10,-1
 128 43 l 1,11,-1
 128 171 l 1,12,-1
 213 256 l 1,13,-1
 128 341 l 1,14,-1
 128 469 l 1,5,-1
EndSplineSet
Validated: 1
EndChar

StartChar: parenright
Encoding: 41 41 1
Width: 512
Flags: W
LayerCount: 2
UndoRedoHistory
Layer: 1
Undoes
UndoOperation
Index: 0
Type: 1
WasModified: 1
WasOrder2: 1
Layer: 2
Width: 512
VWidth: 512
LBearingChange: 0
UnicodeEnc: 0
InstructionsLength: 0
SplineSet
128 510 m 1,0,-1
 385 510 l 1,1,-1
 385 488 l 5,2,-1
 128 488 l 5,3,-1
 128 510 l 1,0,-1
341 160 m 1,4,-1
 256 245 l 1,5,-1
 171 160 l 1,6,-1
 171 85 l 1,7,-1
 341 85 l 1,8,-1
 341 160 l 1,4,-1
128 469 m 1,9,-1
 384 469 l 1,10,-1
 384 341 l 1,11,-1
 299 256 l 1,12,-1
 384 171 l 1,13,-1
 384 43 l 1,14,-1
 128 43 l 1,15,-1
 128 171 l 1,16,-1
 213 256 l 1,17,-1
 128 341 l 1,18,-1
 128 469 l 1,9,-1
EndSplineSet
EndUndoOperation
EndUndoes
Redoes
EndRedoes
EndUndoRedoHistory
Fore
SplineSet
128 510 m 1,0,-1
 385 510 l 1,1,-1
 385 487 l 5,2,-1
 128 487 l 5,3,-1
 128 510 l 1,0,-1
341 160 m 1,4,-1
 256 245 l 1,5,-1
 171 160 l 1,6,-1
 171 85 l 1,7,-1
 341 85 l 1,8,-1
 341 160 l 1,4,-1
128 469 m 1,9,-1
 384 469 l 1,10,-1
 384 341 l 1,11,-1
 299 256 l 1,12,-1
 384 171 l 1,13,-1
 384 43 l 1,14,-1
 128 43 l 1,15,-1
 128 171 l 1,16,-1
 213 256 l 1,17,-1
 128 341 l 1,18,-1
 128 469 l 1,9,-1
EndSplineSet
Validated: 1
EndChar

StartChar: asterisk
Encoding: 42 42 2
Width: 512
Flags: W
LayerCount: 2
Fore
SplineSet
250 351 m 1,0,-1
 341 352 l 1,1,-1
 341 427 l 1,2,-1
 171 427 l 1,3,-1
 171 352 l 1,4,-1
 250 351 l 1,0,-1
341 160 m 1,5,-1
 256 245 l 1,6,-1
 171 160 l 1,7,-1
 171 85 l 1,8,-1
 341 85 l 1,9,-1
 341 160 l 1,5,-1
128 469 m 1,10,-1
 384 469 l 1,11,-1
 384 341 l 1,12,-1
 299 256 l 1,13,-1
 384 171 l 1,14,-1
 384 43 l 1,15,-1
 128 43 l 1,16,-1
 128 171 l 1,17,-1
 213 256 l 1,18,-1
 128 341 l 1,19,-1
 128 469 l 1,10,-1
EndSplineSet
Validated: 1
EndChar

StartChar: plus
Encoding: 43 43 3
Width: 512
Flags: W
LayerCount: 2
UndoRedoHistory
Layer: 1
Undoes
UndoOperation
Index: 0
Type: 1
WasModified: 0
WasOrder2: 1
Layer: 2
Width: 512
VWidth: 512
LBearingChange: 0
UnicodeEnc: 0
InstructionsLength: 0
SplineSet
128 511 m 1,0,-1
 385 511 l 1,1,-1
 385 489 l 5,2,-1
 128 489 l 5,3,-1
 128 511 l 1,0,-1
250 351 m 1,4,-1
 341 352 l 1,5,-1
 341 427 l 1,6,-1
 171 427 l 1,7,-1
 171 352 l 1,8,-1
 250 351 l 1,4,-1
341 160 m 1,9,-1
 256 245 l 1,10,-1
 171 160 l 1,11,-1
 171 85 l 1,12,-1
 341 85 l 1,13,-1
 341 160 l 1,9,-1
128 469 m 1,14,-1
 384 469 l 1,15,-1
 384 341 l 1,16,-1
 299 256 l 1,17,-1
 384 171 l 1,18,-1
 384 43 l 1,19,-1
 128 43 l 1,20,-1
 128 171 l 1,21,-1
 213 256 l 1,22,-1
 128 341 l 1,23,-1
 128 469 l 1,14,-1
EndSplineSet
EndUndoOperation
EndUndoes
Redoes
EndRedoes
EndUndoRedoHistory
Fore
SplineSet
128 511 m 1,0,-1
 385 511 l 1,1,-1
 385 488 l 5,2,-1
 128 488 l 5,3,-1
 128 511 l 1,0,-1
250 351 m 1,4,-1
 341 352 l 1,5,-1
 341 427 l 1,6,-1
 171 427 l 1,7,-1
 171 352 l 1,8,-1
 250 351 l 1,4,-1
341 160 m 1,9,-1
 256 245 l 1,10,-1
 171 160 l 1,11,-1
 171 85 l 1,12,-1
 341 85 l 1,13,-1
 341 160 l 1,9,-1
128 469 m 1,14,-1
 384 469 l 1,15,-1
 384 341 l 1,16,-1
 299 256 l 1,17,-1
 384 171 l 1,18,-1
 384 43 l 1,19,-1
 128 43 l 1,20,-1
 128 171 l 1,21,-1
 213 256 l 1,22,-1
 128 341 l 1,23,-1
 128 469 l 1,14,-1
EndSplineSet
Validated: 1
EndChar

StartChar: comma
Encoding: 44 44 4
Width: 512
Flags: W
LayerCount: 2
Fore
SplineSet
256 267 m 1,0,-1
 341 352 l 1,1,-1
 341 427 l 1,2,-1
 171 427 l 1,3,-1
 171 352 l 1,4,-1
 256 267 l 1,0,-1
341 160 m 1,5,-1
 256 245 l 1,6,-1
 171 160 l 1,7,-1
 341 160 l 1,5,-1
128 469 m 1,8,-1
 384 469 l 1,9,-1
 384 341 l 1,10,-1
 299 256 l 1,11,-1
 384 171 l 1,12,-1
 384 43 l 1,13,-1
 128 43 l 1,14,-1
 128 171 l 1,15,-1
 213 256 l 1,16,-1
 128 341 l 1,17,-1
 128 469 l 1,8,-1
EndSplineSet
Validated: 1
EndChar

StartChar: hyphen
Encoding: 45 45 5
Width: 512
Flags: W
LayerCount: 2
UndoRedoHistory
Layer: 1
Undoes
UndoOperation
Index: 0
Type: 1
WasModified: 1
WasOrder2: 1
Layer: 2
Width: 512
VWidth: 512
LBearingChange: 0
UnicodeEnc: 0
InstructionsLength: 0
SplineSet
128 510 m 1,0,-1
 384 510 l 1,1,2
 384 489 l 5,3,-1
 128 489 l 5,4,-1
 128 510 l 1,0,-1
256 266 m 1,5,-1
 341 351 l 1,6,-1
 341 426 l 1,7,-1
 171 426 l 1,8,-1
 171 351 l 1,9,-1
 256 266 l 1,5,-1
341 159 m 1,10,-1
 256 244 l 1,11,-1
 171 159 l 1,12,-1
 341 159 l 1,10,-1
128 468 m 1,13,-1
 384 468 l 1,14,-1
 384 340 l 1,15,-1
 299 255 l 1,16,-1
 384 170 l 1,17,-1
 384 42 l 1,18,-1
 128 42 l 1,19,-1
 128 170 l 1,20,-1
 213 255 l 1,21,-1
 128 340 l 1,22,-1
 128 468 l 1,13,-1
EndSplineSet
EndUndoOperation
EndUndoes
Redoes
EndRedoes
EndUndoRedoHistory
Fore
SplineSet
128 510 m 1,0,-1
 384 510 l 1,1,2
 384 488 l 5,3,-1
 128 488 l 5,4,-1
 128 510 l 1,0,-1
256 266 m 1,5,-1
 341 351 l 1,6,-1
 341 426 l 1,7,-1
 171 426 l 1,8,-1
 171 351 l 1,9,-1
 256 266 l 1,5,-1
341 159 m 1,10,-1
 256 244 l 1,11,-1
 171 159 l 1,12,-1
 341 159 l 1,10,-1
128 468 m 1,13,-1
 384 468 l 1,14,-1
 384 340 l 1,15,-1
 299 255 l 1,16,-1
 384 170 l 1,17,-1
 384 42 l 1,18,-1
 128 42 l 1,19,-1
 128 170 l 1,20,-1
 213 255 l 1,21,-1
 128 340 l 1,22,-1
 128 468 l 1,13,-1
EndSplineSet
Validated: 1
EndChar

StartChar: period
Encoding: 46 46 6
Width: 512
Flags: W
LayerCount: 2
Fore
SplineSet
256 267 m 5,0,-1
 341 352 l 5,1,-1
 341 427 l 5,2,-1
 171 427 l 5,3,-1
 171 352 l 5,4,-1
 256 267 l 5,0,-1
128 469 m 5,5,-1
 384 469 l 5,6,-1
 384 341 l 5,7,-1
 299 256 l 5,8,-1
 384 171 l 5,9,-1
 384 43 l 5,10,-1
 128 43 l 5,11,-1
 128 171 l 5,12,-1
 213 256 l 5,13,-1
 128 341 l 5,14,-1
 128 469 l 5,5,-1
EndSplineSet
Validated: 1
EndChar

StartChar: slash
Encoding: 47 47 7
Width: 512
Flags: W
LayerCount: 2
UndoRedoHistory
Layer: 1
Undoes
UndoOperation
Index: 0
Type: 1
WasModified: 1
WasOrder2: 1
Layer: 2
Width: 512
VWidth: 512
LBearingChange: 0
UnicodeEnc: 0
InstructionsLength: 0
SplineSet
128 510 m 1,0,-1
 384 510 l 1,1,2
 384 510 384 510 384 488 c 5,3,-1
 128 488 l 5,4,-1
 128 510 l 1,0,-1
256 266 m 1,5,-1
 341 351 l 1,6,-1
 341 426 l 1,7,-1
 171 426 l 1,8,-1
 171 351 l 1,9,-1
 256 266 l 1,5,-1
128 468 m 1,10,-1
 384 468 l 1,11,-1
 384 340 l 1,12,-1
 299 255 l 1,13,-1
 384 170 l 1,14,-1
 384 42 l 1,15,-1
 128 42 l 1,16,-1
 128 170 l 1,17,-1
 213 255 l 1,18,-1
 128 340 l 1,19,-1
 128 468 l 1,10,-1
EndSplineSet
EndUndoOperation
EndUndoes
Redoes
EndRedoes
EndUndoRedoHistory
Fore
SplineSet
128 510 m 1,0,-1
 384 510 l 1,1,2
 384 487 l 5,3,-1
 128 487 l 5,4,-1
 128 510 l 1,0,-1
256 266 m 1,5,-1
 341 351 l 1,6,-1
 341 426 l 1,7,-1
 171 426 l 1,8,-1
 171 351 l 1,9,-1
 256 266 l 1,5,-1
128 468 m 1,10,-1
 384 468 l 1,11,-1
 384 340 l 1,12,-1
 299 255 l 1,13,-1
 384 170 l 1,14,-1
 384 42 l 1,15,-1
 128 42 l 1,16,-1
 128 170 l 1,17,-1
 213 255 l 1,18,-1
 128 340 l 1,19,-1
 128 468 l 1,10,-1
EndSplineSet
Validated: 1
EndChar

StartChar: zero
Encoding: 48 48 8
Width: 512
Flags: W
LayerCount: 2
UndoRedoHistory
Layer: 1
Undoes
UndoOperation
Index: 0
Type: 1
WasModified: 1
WasOrder2: 1
Layer: 2
Width: 512
VWidth: 512
LBearingChange: 0
UnicodeEnc: 0
InstructionsLength: 0
SplineSet
128 23 m 5,0,-1
 385 23 l 5,1,-1
 385 0 l 1,2,-1
 128 0 l 1,3,-1
 128 23 l 5,0,-1
250 350 m 1,4,-1
 341 351 l 1,5,-1
 341 426 l 1,6,-1
 171 426 l 1,7,-1
 171 351 l 1,8,-1
 250 350 l 1,4,-1
341 159 m 1,9,-1
 256 244 l 1,10,-1
 171 159 l 1,11,-1
 171 84 l 1,12,-1
 341 84 l 1,13,-1
 341 159 l 1,9,-1
128 468 m 1,14,-1
 384 468 l 1,15,-1
 384 340 l 1,16,-1
 299 255 l 1,17,-1
 384 170 l 1,18,-1
 384 42 l 1,19,-1
 128 42 l 1,20,-1
 128 170 l 1,21,-1
 213 255 l 1,22,-1
 128 340 l 1,23,-1
 128 468 l 1,14,-1
EndSplineSet
EndUndoOperation
EndUndoes
Redoes
EndRedoes
EndUndoRedoHistory
Fore
SplineSet
128 22 m 5,0,-1
 385 22 l 5,1,-1
 385 0 l 1,2,-1
 128 0 l 1,3,-1
 128 22 l 5,0,-1
250 350 m 1,4,-1
 341 351 l 1,5,-1
 341 426 l 1,6,-1
 171 426 l 1,7,-1
 171 351 l 1,8,-1
 250 350 l 1,4,-1
341 159 m 1,9,-1
 256 244 l 1,10,-1
 171 159 l 1,11,-1
 171 84 l 1,12,-1
 341 84 l 1,13,-1
 341 159 l 1,9,-1
128 468 m 1,14,-1
 384 468 l 1,15,-1
 384 340 l 1,16,-1
 299 255 l 1,17,-1
 384 170 l 1,18,-1
 384 42 l 1,19,-1
 128 42 l 1,20,-1
 128 170 l 1,21,-1
 213 255 l 1,22,-1
 128 340 l 1,23,-1
 128 468 l 1,14,-1
EndSplineSet
Validated: 1
EndChar

StartChar: one
Encoding: 49 49 9
Width: 512
Flags: W
LayerCount: 2
UndoRedoHistory
Layer: 1
Undoes
UndoOperation
Index: 0
Type: 1
WasModified: 1
WasOrder2: 1
Layer: 2
Width: 512
VWidth: 512
LBearingChange: 0
UnicodeEnc: 0
InstructionsLength: 0
SplineSet
128 21 m 5,0,-1
 384 21 l 5,1,2
 384 21 384 21 384 -1 c 5,3,-1
 128 -1 l 5,4,-1
 128 21 l 5,0,-1
256 266 m 1,5,-1
 341 351 l 1,6,-1
 341 426 l 1,7,-1
 171 426 l 1,8,-1
 171 351 l 1,9,-1
 256 266 l 1,5,-1
341 159 m 1,10,-1
 256 244 l 1,11,-1
 171 159 l 1,12,-1
 341 159 l 1,10,-1
128 468 m 1,13,-1
 384 468 l 1,14,-1
 384 340 l 1,15,-1
 299 255 l 1,16,-1
 384 170 l 1,17,-1
 384 42 l 1,18,-1
 128 42 l 1,19,-1
 128 170 l 1,20,-1
 213 255 l 1,21,-1
 128 340 l 1,22,-1
 128 468 l 1,13,-1
EndSplineSet
EndUndoOperation
EndUndoes
Redoes
EndRedoes
EndUndoRedoHistory
Fore
SplineSet
128 22 m 5,0,-1
 384 22 l 5,1,2
 384 22 384 22 384 0 c 5,3,-1
 128 0 l 5,4,-1
 128 22 l 5,0,-1
256 266 m 1,5,-1
 341 351 l 1,6,-1
 341 426 l 1,7,-1
 171 426 l 1,8,-1
 171 351 l 1,9,-1
 256 266 l 1,5,-1
341 159 m 1,10,-1
 256 244 l 1,11,-1
 171 159 l 1,12,-1
 341 159 l 1,10,-1
128 468 m 1,13,-1
 384 468 l 1,14,-1
 384 340 l 1,15,-1
 299 255 l 1,16,-1
 384 170 l 1,17,-1
 384 42 l 1,18,-1
 128 42 l 1,19,-1
 128 170 l 1,20,-1
 213 255 l 1,21,-1
 128 340 l 1,22,-1
 128 468 l 1,13,-1
EndSplineSet
Validated: 1
EndChar

StartChar: two
Encoding: 50 50 10
Width: 512
Flags: W
LayerCount: 2
UndoRedoHistory
Layer: 1
Undoes
UndoOperation
Index: 0
Type: 1
WasModified: 1
WasOrder2: 1
Layer: 2
Width: 512
VWidth: 512
LBearingChange: 0
UnicodeEnc: 0
InstructionsLength: 0
SplineSet
128 22 m 1,0,-1
 384 22 l 1,1,2
 384 -1 l 5,3,-1
 128 -1 l 5,4,-1
 128 22 l 1,0,-1
256 266 m 1,5,-1
 341 351 l 1,6,-1
 341 426 l 1,7,-1
 171 426 l 1,8,-1
 171 351 l 1,9,-1
 256 266 l 1,5,-1
128 468 m 1,10,-1
 384 468 l 1,11,-1
 384 340 l 1,12,-1
 299 255 l 1,13,-1
 384 170 l 1,14,-1
 384 42 l 1,15,-1
 128 42 l 1,16,-1
 128 170 l 1,17,-1
 213 255 l 1,18,-1
 128 340 l 1,19,-1
 128 468 l 1,10,-1
EndSplineSet
EndUndoOperation
EndUndoes
Redoes
EndRedoes
EndUndoRedoHistory
Fore
SplineSet
128 22 m 1,0,-1
 384 22 l 1,1,2
 384 0 l 5,3,-1
 128 0 l 5,4,-1
 128 22 l 1,0,-1
256 266 m 1,5,-1
 341 351 l 1,6,-1
 341 426 l 1,7,-1
 171 426 l 1,8,-1
 171 351 l 1,9,-1
 256 266 l 1,5,-1
128 468 m 1,10,-1
 384 468 l 1,11,-1
 384 340 l 1,12,-1
 299 255 l 1,13,-1
 384 170 l 1,14,-1
 384 42 l 1,15,-1
 128 42 l 1,16,-1
 128 170 l 1,17,-1
 213 255 l 1,18,-1
 128 340 l 1,19,-1
 128 468 l 1,10,-1
EndSplineSet
Validated: 1
EndChar

StartChar: three
Encoding: 51 51 11
Width: 512
InSpiro: 1
Flags: W
LayerCount: 2
UndoRedoHistory
Layer: 1
Undoes
UndoOperation
Index: 0
Type: 1
WasModified: 1
WasOrder2: 1
Layer: 2
Width: 512
VWidth: 512
LBearingChange: 0
UnicodeEnc: 0
InstructionsLength: 0
SplineSet
308.724609375 127.4453125 m 5,0,-1
 308.724609375 385.315429688 l 5,1,-1
 205.094726562 385.315429688 l 5,2,-1
 205.094726562 333.5 l 5,3,-1
 256.91015625 333.5 l 5,4,-1
 256.91015625 127.4453125 l 5,5,-1
 308.724609375 127.4453125 l 5,0,-1
436.455078125 487.740234375 m 6,6,7
 458.14453125 487.740234375 458.14453125 487.740234375 473.20703125 472.677734375 c 132,-1,8
 488.26953125 457.615234375 488.26953125 457.615234375 488.26953125 435.924804688 c 6,9,-1
 488.26953125 76.8349609375 l 6,10,11
 488.26953125 55.14453125 488.26953125 55.14453125 473.20703125 40.08203125 c 132,-1,12
 458.14453125 25.01953125 458.14453125 25.01953125 436.455078125 25.01953125 c 6,13,-1
 77.365234375 25.01953125 l 6,14,15
 55.6748046875 25.01953125 55.6748046875 25.01953125 40.6123046875 40.08203125 c 132,-1,16
 25.5498046875 55.14453125 25.5498046875 55.14453125 25.5498046875 76.8349609375 c 6,17,-1
 25.5498046875 435.924804688 l 6,18,19
 25.5498046875 457.615234375 25.5498046875 457.615234375 40.6123046875 472.677734375 c 132,-1,20
 55.6748046875 487.740234375 55.6748046875 487.740234375 77.365234375 487.740234375 c 6,21,-1
 436.455078125 487.740234375 l 6,6,7
EndSplineSet
EndUndoOperation
EndUndoes
Redoes
EndRedoes
EndUndoRedoHistory
Fore
SplineSet
307.724609375 127.4453125 m 1,0,-1
 307.724609375 385.315429688 l 1,1,-1
 204.094726562 385.315429688 l 1,2,-1
 204.094726562 333.5 l 1,3,-1
 255.91015625 333.5 l 1,4,-1
 255.91015625 127.4453125 l 1,5,-1
 307.724609375 127.4453125 l 1,0,-1
  Spiro
    307.725 127.445 v
    307.725 385.315 v
    204.095 385.315 v
    204.095 333.5 v
    255.91 333.5 v
    255.91 127.445 v
    0 0 z
  EndSpiro
435.455078125 487.740234375 m 2,6,7
 457.14453125 487.740234375 457.14453125 487.740234375 472.20703125 472.677734375 c 128,-1,8
 487.26953125 457.615234375 487.26953125 457.615234375 487.26953125 435.924804688 c 2,9,-1
 487.26953125 76.8349609375 l 2,10,11
 487.26953125 55.14453125 487.26953125 55.14453125 472.20703125 40.08203125 c 128,-1,12
 457.14453125 25.01953125 457.14453125 25.01953125 435.455078125 25.01953125 c 2,13,-1
 76.365234375 25.01953125 l 2,14,15
 54.6748046875 25.01953125 54.6748046875 25.01953125 39.6123046875 40.08203125 c 128,-1,16
 24.5498046875 55.14453125 24.5498046875 55.14453125 24.5498046875 76.8349609375 c 2,17,-1
 24.5498046875 435.924804688 l 2,18,19
 24.5498046875 457.615234375 24.5498046875 457.615234375 39.6123046875 472.677734375 c 128,-1,20
 54.6748046875 487.740234375 54.6748046875 487.740234375 76.365234375 487.740234375 c 2,21,-1
 435.455078125 487.740234375 l 2,6,7
  Spiro
    435.455 487.74 ]
    455.488 483.975 o
    472.207 472.678 o
    483.504 455.958 o
    487.27 435.925 [
    487.27 76.835 ]
    483.504 56.8015 o
    472.207 40.082 o
    455.488 28.7852 o
    435.455 25.0195 [
    76.3652 25.0195 ]
    56.3318 28.7852 o
    39.6123 40.082 o
    28.3154 56.8015 o
    24.5498 76.835 [
    24.5498 435.925 ]
    28.3154 455.958 o
    39.6123 472.678 o
    56.3318 483.975 o
    76.3652 487.74 [
    0 0 z
  EndSpiro
EndSplineSet
Validated: 1
EndChar

StartChar: four
Encoding: 52 52 12
Width: 512
Flags: W
LayerCount: 2
UndoRedoHistory
Layer: 1
Undoes
UndoOperation
Index: 0
Type: 1
WasModified: 1
WasOrder2: 1
Layer: 2
Width: 512
VWidth: 512
LBearingChange: 0
UnicodeEnc: 0
InstructionsLength: 0
SplineSet
332.267578125 280.8828125 m 6,0,1
 332.267578125 332.8046875 l 6,2,3
 332.267578125 354.540039062 332.267578125 354.540039062 317.173828125 369.633789062 c 132,-1,4
 302.080078125 384.727539062 302.080078125 384.727539062 280.344726562 384.727539062 c 6,5,-1
 177.70703125 384.727539062 l 5,6,-1
 177.70703125 332.8046875 l 5,7,-1
 280.344726562 332.8046875 l 5,8,-1
 280.344726562 280.8828125 l 5,9,-1
 229.629882812 280.8828125 l 6,10,11
 207.89453125 280.8828125 207.89453125 280.8828125 192.80078125 265.7890625 c 132,-1,12
 177.70703125 250.6953125 177.70703125 250.6953125 177.70703125 230.16796875 c 6,13,-1
 177.70703125 126.322265625 l 5,14,-1
 332.267578125 126.322265625 l 5,15,-1
 332.267578125 178.245117188 l 5,16,-1
 229.629882812 178.245117188 l 5,17,-1
 229.629882812 230.16796875 l 5,18,-1
 280.344726562 230.16796875 l 6,19,20
 302.080078125 230.16796875 302.080078125 230.16796875 317.173828125 245.26171875 c 132,-1,21
 332.267578125 260.35546875 332.267578125 260.35546875 332.267578125 280.8828125 c 6,0,1
434.905273438 487.365234375 m 6,22,23
 456.639648438 487.365234375 456.639648438 487.365234375 471.733398438 472.271484375 c 132,-1,24
 486.827148438 457.177734375 486.827148438 457.177734375 486.827148438 435.442382812 c 6,25,-1
 486.827148438 75.607421875 l 6,26,27
 486.827148438 53.8720703125 486.827148438 53.8720703125 471.733398438 38.7783203125 c 132,-1,28
 456.639648438 23.6845703125 456.639648438 23.6845703125 434.905273438 23.6845703125 c 6,29,-1
 75.0703125 23.6845703125 l 6,30,31
 53.3349609375 23.6845703125 53.3349609375 23.6845703125 38.2412109375 38.7783203125 c 132,-1,32
 23.1474609375 53.8720703125 23.1474609375 53.8720703125 23.1474609375 75.607421875 c 6,33,-1
 23.1474609375 435.442382812 l 6,34,35
 23.1474609375 457.177734375 23.1474609375 457.177734375 38.2412109375 472.271484375 c 132,-1,36
 53.3349609375 487.365234375 53.3349609375 487.365234375 75.0703125 487.365234375 c 6,37,-1
 434.905273438 487.365234375 l 6,22,23
EndSplineSet
EndUndoOperation
EndUndoes
Redoes
EndRedoes
EndUndoRedoHistory
Fore
SplineSet
332.267578125 281.8828125 m 6,0,1
 332.267578125 333.8046875 l 6,2,3
 332.267578125 355.540039062 332.267578125 355.540039062 317.173828125 370.633789062 c 132,-1,4
 302.080078125 385.727539062 302.080078125 385.727539062 280.344726562 385.727539062 c 6,5,-1
 177.70703125 385.727539062 l 5,6,-1
 177.70703125 333.8046875 l 5,7,-1
 280.344726562 333.8046875 l 5,8,-1
 280.344726562 281.8828125 l 5,9,-1
 229.629882812 281.8828125 l 6,10,11
 207.89453125 281.8828125 207.89453125 281.8828125 192.80078125 266.7890625 c 132,-1,12
 177.70703125 251.6953125 177.70703125 251.6953125 177.70703125 231.16796875 c 6,13,-1
 177.70703125 127.322265625 l 5,14,-1
 332.267578125 127.322265625 l 5,15,-1
 332.267578125 179.245117188 l 5,16,-1
 229.629882812 179.245117188 l 5,17,-1
 229.629882812 231.16796875 l 5,18,-1
 280.344726562 231.16796875 l 6,19,20
 302.080078125 231.16796875 302.080078125 231.16796875 317.173828125 246.26171875 c 132,-1,21
 332.267578125 261.35546875 332.267578125 261.35546875 332.267578125 281.8828125 c 6,0,1
434.905273438 488.365234375 m 6,22,23
 456.639648438 488.365234375 456.639648438 488.365234375 471.733398438 473.271484375 c 132,-1,24
 486.827148438 458.177734375 486.827148438 458.177734375 486.827148438 436.442382812 c 6,25,-1
 486.827148438 76.607421875 l 6,26,27
 486.827148438 54.8720703125 486.827148438 54.8720703125 471.733398438 39.7783203125 c 132,-1,28
 456.639648438 24.6845703125 456.639648438 24.6845703125 434.905273438 24.6845703125 c 6,29,-1
 75.0703125 24.6845703125 l 6,30,31
 53.3349609375 24.6845703125 53.3349609375 24.6845703125 38.2412109375 39.7783203125 c 132,-1,32
 23.1474609375 54.8720703125 23.1474609375 54.8720703125 23.1474609375 76.607421875 c 6,33,-1
 23.1474609375 436.442382812 l 6,34,35
 23.1474609375 458.177734375 23.1474609375 458.177734375 38.2412109375 473.271484375 c 132,-1,36
 53.3349609375 488.365234375 53.3349609375 488.365234375 75.0703125 488.365234375 c 6,37,-1
 434.905273438 488.365234375 l 6,22,23
EndSplineSet
Validated: 1
EndChar

StartChar: five
Encoding: 53 53 13
Width: 512
Flags: W
LayerCount: 2
UndoRedoHistory
Layer: 1
Undoes
UndoOperation
Index: 0
Type: 1
WasModified: 1
WasOrder2: 1
Layer: 2
Width: 512
VWidth: 512
LBearingChange: 0
UnicodeEnc: 0
InstructionsLength: 0
SplineSet
331.875 293.877929688 m 6,0,1
 331.875 278.245117188 331.875 278.245117188 320.451171875 266.821289062 c 132,-1,2
 309.02734375 255.397460938 309.02734375 255.397460938 293.39453125 255.397460938 c 5,3,4
 309.02734375 255.397460938 309.02734375 255.397460938 320.451171875 243.973632812 c 132,-1,5
 331.875 232.549804688 331.875 232.549804688 331.875 216.91796875 c 6,6,-1
 331.875 178.4375 l 6,7,8
 331.875 156.79296875 331.875 156.79296875 316.84375 141.76171875 c 132,-1,9
 301.8125 126.73046875 301.8125 126.73046875 280.16796875 126.73046875 c 6,10,-1
 177.955078125 126.73046875 l 5,11,-1
 177.955078125 178.4375 l 5,12,-1
 280.16796875 178.4375 l 5,13,-1
 280.16796875 230.14453125 l 5,14,-1
 229.662109375 230.14453125 l 5,15,-1
 229.662109375 280.650390625 l 5,16,-1
 280.16796875 280.650390625 l 5,17,-1
 280.16796875 332.357421875 l 5,18,-1
 177.955078125 332.357421875 l 5,19,-1
 177.955078125 384.065429688 l 5,20,-1
 280.16796875 384.065429688 l 6,21,22
 301.8125 384.065429688 301.8125 384.065429688 316.84375 369.034179688 c 132,-1,23
 331.875 354.002929688 331.875 354.002929688 331.875 332.357421875 c 6,24,-1
 331.875 293.877929688 l 6,0,1
434.087890625 486.27734375 m 6,25,-1
 75.7421875 486.27734375 l 6,26,27
 54.09765625 486.27734375 54.09765625 486.27734375 39.06640625 471.24609375 c 132,-1,28
 24.03515625 456.21484375 24.03515625 456.21484375 24.03515625 434.5703125 c 6,29,-1
 24.03515625 76.224609375 l 6,30,31
 24.03515625 54.580078125 24.03515625 54.580078125 39.06640625 39.548828125 c 132,-1,32
 54.09765625 24.517578125 54.09765625 24.517578125 75.7421875 24.517578125 c 6,33,-1
 434.087890625 24.517578125 l 6,34,35
 455.732421875 24.517578125 455.732421875 24.517578125 470.763671875 39.548828125 c 132,-1,36
 485.794921875 54.580078125 485.794921875 54.580078125 485.794921875 76.224609375 c 6,37,-1
 485.794921875 434.5703125 l 6,38,39
 485.794921875 456.21484375 485.794921875 456.21484375 470.763671875 471.24609375 c 132,-1,40
 455.732421875 486.27734375 455.732421875 486.27734375 434.087890625 486.27734375 c 6,25,-1
EndSplineSet
EndUndoOperation
EndUndoes
Redoes
EndRedoes
EndUndoRedoHistory
Fore
SplineSet
331.875 294.877929688 m 6,0,1
 331.875 279.245117188 331.875 279.245117188 320.451171875 267.821289062 c 132,-1,2
 309.02734375 256.397460938 309.02734375 256.397460938 293.39453125 256.397460938 c 5,3,4
 309.02734375 256.397460938 309.02734375 256.397460938 320.451171875 244.973632812 c 132,-1,5
 331.875 233.549804688 331.875 233.549804688 331.875 217.91796875 c 6,6,-1
 331.875 179.4375 l 6,7,8
 331.875 157.79296875 331.875 157.79296875 316.84375 142.76171875 c 132,-1,9
 301.8125 127.73046875 301.8125 127.73046875 280.16796875 127.73046875 c 6,10,-1
 177.955078125 127.73046875 l 5,11,-1
 177.955078125 179.4375 l 5,12,-1
 280.16796875 179.4375 l 5,13,-1
 280.16796875 231.14453125 l 5,14,-1
 229.662109375 231.14453125 l 5,15,-1
 229.662109375 281.650390625 l 5,16,-1
 280.16796875 281.650390625 l 5,17,-1
 280.16796875 333.357421875 l 5,18,-1
 177.955078125 333.357421875 l 5,19,-1
 177.955078125 385.065429688 l 5,20,-1
 280.16796875 385.065429688 l 6,21,22
 301.8125 385.065429688 301.8125 385.065429688 316.84375 370.034179688 c 132,-1,23
 331.875 355.002929688 331.875 355.002929688 331.875 333.357421875 c 6,24,-1
 331.875 294.877929688 l 6,0,1
434.087890625 487.27734375 m 6,25,-1
 75.7421875 487.27734375 l 6,26,27
 54.09765625 487.27734375 54.09765625 487.27734375 39.06640625 472.24609375 c 132,-1,28
 24.03515625 457.21484375 24.03515625 457.21484375 24.03515625 435.5703125 c 6,29,-1
 24.03515625 77.224609375 l 6,30,31
 24.03515625 55.580078125 24.03515625 55.580078125 39.06640625 40.548828125 c 132,-1,32
 54.09765625 25.517578125 54.09765625 25.517578125 75.7421875 25.517578125 c 6,33,-1
 434.087890625 25.517578125 l 6,34,35
 455.732421875 25.517578125 455.732421875 25.517578125 470.763671875 40.548828125 c 132,-1,36
 485.794921875 55.580078125 485.794921875 55.580078125 485.794921875 77.224609375 c 6,37,-1
 485.794921875 435.5703125 l 6,38,39
 485.794921875 457.21484375 485.794921875 457.21484375 470.763671875 472.24609375 c 132,-1,40
 455.732421875 487.27734375 455.732421875 487.27734375 434.087890625 487.27734375 c 6,25,-1
EndSplineSet
Validated: 9
EndChar

StartChar: six
Encoding: 54 54 14
Width: 512
Flags: W
LayerCount: 2
UndoRedoHistory
Layer: 1
Undoes
UndoOperation
Index: 0
Type: 1
WasModified: 0
WasOrder2: 1
Layer: 2
Width: 512
VWidth: 512
LBearingChange: 0
UnicodeEnc: 0
InstructionsLength: 0
SplineSet
333.418945312 128.380859375 m 5,0,-1
 333.418945312 385.891601562 l 5,1,-1
 281.676757812 385.891601562 l 5,2,-1
 281.676757812 282.40625 l 5,3,-1
 231.13671875 282.40625 l 5,4,-1
 231.13671875 385.891601562 l 5,5,-1
 179.39453125 385.891601562 l 5,6,-1
 179.39453125 231.866210938 l 5,7,-1
 281.676757812 231.866210938 l 5,8,-1
 281.676757812 128.380859375 l 5,9,-1
 333.418945312 128.380859375 l 5,0,-1
435.701171875 488.173828125 m 6,10,11
 457.360351562 488.173828125 457.360351562 488.173828125 472.403320312 473.1328125 c 132,-1,12
 487.444335938 458.091796875 487.444335938 458.091796875 487.444335938 436.431640625 c 6,13,-1
 487.444335938 77.841796875 l 6,14,15
 487.444335938 56.1826171875 487.444335938 56.1826171875 472.403320312 41.140625 c 132,-1,16
 457.360351562 26.0986328125 457.360351562 26.0986328125 435.701171875 26.0986328125 c 6,17,-1
 77.111328125 26.0986328125 l 6,18,19
 55.451171875 26.0986328125 55.451171875 26.0986328125 40.4091796875 41.140625 c 132,-1,20
 25.3681640625 56.1826171875 25.3681640625 56.1826171875 25.3681640625 77.841796875 c 6,21,-1
 25.3681640625 436.431640625 l 6,22,23
 25.3681640625 458.091796875 25.3681640625 458.091796875 40.4091796875 473.1328125 c 132,-1,24
 55.451171875 488.173828125 55.451171875 488.173828125 77.111328125 488.173828125 c 6,25,-1
 435.701171875 488.173828125 l 6,10,11
EndSplineSet
EndUndoOperation
EndUndoes
Redoes
EndRedoes
EndUndoRedoHistory
Fore
SplineSet
332.418945312 128.380859375 m 5,0,-1
 332.418945312 385.891601562 l 5,1,-1
 280.676757812 385.891601562 l 5,2,-1
 280.676757812 282.40625 l 5,3,-1
 230.13671875 282.40625 l 5,4,-1
 230.13671875 385.891601562 l 5,5,-1
 178.39453125 385.891601562 l 5,6,-1
 178.39453125 231.866210938 l 5,7,-1
 280.676757812 231.866210938 l 5,8,-1
 280.676757812 128.380859375 l 5,9,-1
 332.418945312 128.380859375 l 5,0,-1
434.701171875 488.173828125 m 6,10,11
 456.360351562 488.173828125 456.360351562 488.173828125 471.403320312 473.1328125 c 132,-1,12
 486.444335938 458.091796875 486.444335938 458.091796875 486.444335938 436.431640625 c 6,13,-1
 486.444335938 77.841796875 l 6,14,15
 486.444335938 56.1826171875 486.444335938 56.1826171875 471.403320312 41.140625 c 132,-1,16
 456.360351562 26.0986328125 456.360351562 26.0986328125 434.701171875 26.0986328125 c 6,17,-1
 76.111328125 26.0986328125 l 6,18,19
 54.451171875 26.0986328125 54.451171875 26.0986328125 39.4091796875 41.140625 c 132,-1,20
 24.3681640625 56.1826171875 24.3681640625 56.1826171875 24.3681640625 77.841796875 c 6,21,-1
 24.3681640625 436.431640625 l 6,22,23
 24.3681640625 458.091796875 24.3681640625 458.091796875 39.4091796875 473.1328125 c 132,-1,24
 54.451171875 488.173828125 54.451171875 488.173828125 76.111328125 488.173828125 c 6,25,-1
 434.701171875 488.173828125 l 6,10,11
EndSplineSet
Validated: 1
EndChar

StartChar: seven
Encoding: 55 55 15
Width: 512
Flags: W
LayerCount: 2
UndoRedoHistory
Layer: 1
Undoes
UndoOperation
Index: 0
Type: 1
WasModified: 1
WasOrder2: 1
Layer: 2
Width: 512
VWidth: 512
LBearingChange: 0
UnicodeEnc: 0
InstructionsLength: 0
SplineSet
334.235351562 332.565429688 m 5,0,-1
 334.235351562 384.379882812 l 5,1,-1
 179.995117188 384.379882812 l 5,2,-1
 179.995117188 230.139648438 l 5,3,-1
 282.419921875 230.139648438 l 5,4,-1
 282.419921875 178.325195312 l 5,5,-1
 179.995117188 178.325195312 l 5,6,-1
 179.995117188 126.509765625 l 5,7,-1
 282.419921875 126.509765625 l 6,8,9
 304.110351562 126.509765625 304.110351562 126.509765625 319.172851562 141.572265625 c 132,-1,10
 334.235351562 156.634765625 334.235351562 156.634765625 334.235351562 178.325195312 c 6,11,-1
 334.235351562 230.139648438 l 6,12,13
 334.235351562 250.625 334.235351562 250.625 319.172851562 265.6875 c 132,-1,14
 304.110351562 280.75 304.110351562 280.75 282.419921875 280.75 c 6,15,-1
 231.809570312 280.75 l 5,16,-1
 231.809570312 332.565429688 l 5,17,-1
 334.235351562 332.565429688 l 5,0,-1
436.66015625 486.8046875 m 6,18,19
 458.349609375 486.8046875 458.349609375 486.8046875 473.412109375 471.7421875 c 132,-1,20
 488.474609375 456.6796875 488.474609375 456.6796875 488.474609375 434.990234375 c 6,21,-1
 488.474609375 75.900390625 l 6,22,23
 488.474609375 54.2099609375 488.474609375 54.2099609375 473.412109375 39.1474609375 c 132,-1,24
 458.349609375 24.0849609375 458.349609375 24.0849609375 436.66015625 24.0849609375 c 6,25,-1
 77.5703125 24.0849609375 l 6,26,27
 55.8798828125 24.0849609375 55.8798828125 24.0849609375 40.8173828125 39.1474609375 c 132,-1,28
 25.7548828125 54.2099609375 25.7548828125 54.2099609375 25.7548828125 75.900390625 c 6,29,-1
 25.7548828125 434.990234375 l 6,30,31
 25.7548828125 456.6796875 25.7548828125 456.6796875 40.8173828125 471.7421875 c 132,-1,32
 55.8798828125 486.8046875 55.8798828125 486.8046875 77.5703125 486.8046875 c 6,33,-1
 436.66015625 486.8046875 l 6,18,19
EndSplineSet
EndUndoOperation
EndUndoes
Redoes
EndRedoes
EndUndoRedoHistory
Fore
SplineSet
333.235351562 332.565429688 m 5,0,-1
 333.235351562 384.379882812 l 5,1,-1
 178.995117188 384.379882812 l 5,2,-1
 178.995117188 230.139648438 l 5,3,-1
 281.419921875 230.139648438 l 5,4,-1
 281.419921875 178.325195312 l 5,5,-1
 178.995117188 178.325195312 l 5,6,-1
 178.995117188 126.509765625 l 5,7,-1
 281.419921875 126.509765625 l 6,8,9
 303.110351562 126.509765625 303.110351562 126.509765625 318.172851562 141.572265625 c 132,-1,10
 333.235351562 156.634765625 333.235351562 156.634765625 333.235351562 178.325195312 c 6,11,-1
 333.235351562 230.139648438 l 6,12,13
 333.235351562 250.625 333.235351562 250.625 318.172851562 265.6875 c 132,-1,14
 303.110351562 280.75 303.110351562 280.75 281.419921875 280.75 c 6,15,-1
 230.809570312 280.75 l 5,16,-1
 230.809570312 332.565429688 l 5,17,-1
 333.235351562 332.565429688 l 5,0,-1
435.66015625 486.8046875 m 6,18,19
 457.349609375 486.8046875 457.349609375 486.8046875 472.412109375 471.7421875 c 132,-1,20
 487.474609375 456.6796875 487.474609375 456.6796875 487.474609375 434.990234375 c 6,21,-1
 487.474609375 75.900390625 l 6,22,23
 487.474609375 54.2099609375 487.474609375 54.2099609375 472.412109375 39.1474609375 c 132,-1,24
 457.349609375 24.0849609375 457.349609375 24.0849609375 435.66015625 24.0849609375 c 6,25,-1
 76.5703125 24.0849609375 l 6,26,27
 54.8798828125 24.0849609375 54.8798828125 24.0849609375 39.8173828125 39.1474609375 c 132,-1,28
 24.7548828125 54.2099609375 24.7548828125 54.2099609375 24.7548828125 75.900390625 c 6,29,-1
 24.7548828125 434.990234375 l 6,30,31
 24.7548828125 456.6796875 24.7548828125 456.6796875 39.8173828125 471.7421875 c 132,-1,32
 54.8798828125 486.8046875 54.8798828125 486.8046875 76.5703125 486.8046875 c 6,33,-1
 435.66015625 486.8046875 l 6,18,19
EndSplineSet
Validated: 1
EndChar

StartChar: eight
Encoding: 56 56 16
Width: 512
Flags: W
LayerCount: 2
UndoRedoHistory
Layer: 1
Undoes
UndoOperation
Index: 0
Type: 1
WasModified: 1
WasOrder2: 1
Layer: 2
Width: 512
VWidth: 512
LBearingChange: 0
UnicodeEnc: 0
InstructionsLength: 0
SplineSet
332.73046875 332.205078125 m 5,0,-1
 332.73046875 384.01953125 l 5,1,-1
 230.3046875 384.01953125 l 6,2,3
 208.615234375 384.01953125 208.615234375 384.01953125 193.552734375 368.95703125 c 132,-1,4
 178.490234375 353.89453125 178.490234375 353.89453125 178.490234375 332.205078125 c 6,5,-1
 178.490234375 177.96484375 l 6,6,7
 178.490234375 156.275390625 178.490234375 156.275390625 193.552734375 141.212890625 c 132,-1,8
 208.615234375 126.150390625 208.615234375 126.150390625 230.3046875 126.150390625 c 6,9,-1
 280.915039062 126.150390625 l 6,10,11
 302.60546875 126.150390625 302.60546875 126.150390625 317.66796875 141.212890625 c 132,-1,12
 332.73046875 156.275390625 332.73046875 156.275390625 332.73046875 177.96484375 c 6,13,-1
 332.73046875 229.780273438 l 6,14,15
 332.73046875 250.264648438 332.73046875 250.264648438 317.66796875 265.327148438 c 132,-1,16
 302.60546875 280.389648438 302.60546875 280.389648438 280.915039062 280.389648438 c 6,17,-1
 230.3046875 280.389648438 l 5,18,-1
 230.3046875 332.205078125 l 5,19,-1
 332.73046875 332.205078125 l 5,0,-1
435.155273438 486.4453125 m 6,20,21
 456.844726562 486.4453125 456.844726562 486.4453125 471.907226562 471.3828125 c 132,-1,22
 486.969726562 456.3203125 486.969726562 456.3203125 486.969726562 434.629882812 c 6,23,-1
 486.969726562 75.5400390625 l 6,24,25
 486.969726562 53.849609375 486.969726562 53.849609375 471.907226562 38.787109375 c 132,-1,26
 456.844726562 23.724609375 456.844726562 23.724609375 435.155273438 23.724609375 c 6,27,-1
 76.0654296875 23.724609375 l 6,28,29
 54.375 23.724609375 54.375 23.724609375 39.3125 38.787109375 c 132,-1,30
 24.25 53.849609375 24.25 53.849609375 24.25 75.5400390625 c 6,31,-1
 24.25 434.629882812 l 6,32,33
 24.25 456.3203125 24.25 456.3203125 39.3125 471.3828125 c 132,-1,34
 54.375 486.4453125 54.375 486.4453125 76.0654296875 486.4453125 c 6,35,-1
 435.155273438 486.4453125 l 6,20,21
230.3046875 177.96484375 m 5,36,-1
 230.3046875 229.780273438 l 5,37,-1
 280.915039062 229.780273438 l 5,38,-1
 280.915039062 177.96484375 l 5,39,-1
 230.3046875 177.96484375 l 5,36,-1
EndSplineSet
EndUndoOperation
EndUndoes
Redoes
EndRedoes
EndUndoRedoHistory
Fore
SplineSet
332.73046875 333.205078125 m 5,0,-1
 332.73046875 385.01953125 l 5,1,-1
 230.3046875 385.01953125 l 6,2,3
 208.615234375 385.01953125 208.615234375 385.01953125 193.552734375 369.95703125 c 132,-1,4
 178.490234375 354.89453125 178.490234375 354.89453125 178.490234375 333.205078125 c 6,5,-1
 178.490234375 178.96484375 l 6,6,7
 178.490234375 157.275390625 178.490234375 157.275390625 193.552734375 142.212890625 c 132,-1,8
 208.615234375 127.150390625 208.615234375 127.150390625 230.3046875 127.150390625 c 6,9,-1
 280.915039062 127.150390625 l 6,10,11
 302.60546875 127.150390625 302.60546875 127.150390625 317.66796875 142.212890625 c 132,-1,12
 332.73046875 157.275390625 332.73046875 157.275390625 332.73046875 178.96484375 c 6,13,-1
 332.73046875 230.780273438 l 6,14,15
 332.73046875 251.264648438 332.73046875 251.264648438 317.66796875 266.327148438 c 132,-1,16
 302.60546875 281.389648438 302.60546875 281.389648438 280.915039062 281.389648438 c 6,17,-1
 230.3046875 281.389648438 l 5,18,-1
 230.3046875 333.205078125 l 5,19,-1
 332.73046875 333.205078125 l 5,0,-1
435.155273438 487.4453125 m 6,20,21
 456.844726562 487.4453125 456.844726562 487.4453125 471.907226562 472.3828125 c 132,-1,22
 486.969726562 457.3203125 486.969726562 457.3203125 486.969726562 435.629882812 c 6,23,-1
 486.969726562 76.5400390625 l 6,24,25
 486.969726562 54.849609375 486.969726562 54.849609375 471.907226562 39.787109375 c 132,-1,26
 456.844726562 24.724609375 456.844726562 24.724609375 435.155273438 24.724609375 c 6,27,-1
 76.0654296875 24.724609375 l 6,28,29
 54.375 24.724609375 54.375 24.724609375 39.3125 39.787109375 c 132,-1,30
 24.25 54.849609375 24.25 54.849609375 24.25 76.5400390625 c 6,31,-1
 24.25 435.629882812 l 6,32,33
 24.25 457.3203125 24.25 457.3203125 39.3125 472.3828125 c 132,-1,34
 54.375 487.4453125 54.375 487.4453125 76.0654296875 487.4453125 c 6,35,-1
 435.155273438 487.4453125 l 6,20,21
230.3046875 178.96484375 m 5,36,-1
 230.3046875 230.780273438 l 5,37,-1
 280.915039062 230.780273438 l 5,38,-1
 280.915039062 178.96484375 l 5,39,-1
 230.3046875 178.96484375 l 5,36,-1
EndSplineSet
Validated: 1
EndChar

StartChar: nine
Encoding: 57 57 17
Width: 512
Flags: W
LayerCount: 2
UndoRedoHistory
Layer: 1
Undoes
UndoOperation
Index: 0
Type: 1
WasModified: 1
WasOrder2: 1
Layer: 2
Width: 512
VWidth: 512
LBearingChange: 0
UnicodeEnc: 0
InstructionsLength: 0
SplineSet
435.349609375 487.154296875 m 6,0,1
 457.052734375 487.154296875 457.052734375 487.154296875 472.123046875 472.083007812 c 132,-1,2
 487.194335938 457.012695312 487.194335938 457.012695312 487.194335938 435.310546875 c 6,3,-1
 487.194335938 76.01171875 l 6,4,5
 487.194335938 54.30859375 487.194335938 54.30859375 472.123046875 39.2373046875 c 132,-1,6
 457.052734375 24.166015625 457.052734375 24.166015625 435.349609375 24.166015625 c 6,7,-1
 76.0498046875 24.166015625 l 6,8,9
 54.3486328125 24.166015625 54.3486328125 24.166015625 39.27734375 39.2373046875 c 132,-1,10
 24.2060546875 54.30859375 24.2060546875 54.30859375 24.2060546875 76.01171875 c 6,11,-1
 24.2060546875 435.310546875 l 6,12,13
 24.2060546875 457.012695312 24.2060546875 457.012695312 39.27734375 472.083007812 c 132,-1,14
 54.3486328125 487.154296875 54.3486328125 487.154296875 76.0498046875 487.154296875 c 6,15,-1
 435.349609375 487.154296875 l 6,0,1
230.380859375 126.651367188 m 5,16,-1
 332.865234375 332.825195312 l 5,17,-1
 332.865234375 384.670898438 l 5,18,-1
 178.536132812 384.670898438 l 5,19,-1
 178.536132812 332.825195312 l 5,20,-1
 281.020507812 332.825195312 l 5,21,-1
 178.536132812 126.651367188 l 5,22,-1
 230.380859375 126.651367188 l 5,16,-1
EndSplineSet
EndUndoOperation
EndUndoes
Redoes
EndRedoes
EndUndoRedoHistory
Fore
SplineSet
435.349609375 488.154296875 m 6,0,1
 457.052734375 488.154296875 457.052734375 488.154296875 472.123046875 473.083007812 c 132,-1,2
 487.194335938 458.012695312 487.194335938 458.012695312 487.194335938 436.310546875 c 6,3,-1
 487.194335938 77.01171875 l 6,4,5
 487.194335938 55.30859375 487.194335938 55.30859375 472.123046875 40.2373046875 c 132,-1,6
 457.052734375 25.166015625 457.052734375 25.166015625 435.349609375 25.166015625 c 6,7,-1
 76.0498046875 25.166015625 l 6,8,9
 54.3486328125 25.166015625 54.3486328125 25.166015625 39.27734375 40.2373046875 c 132,-1,10
 24.2060546875 55.30859375 24.2060546875 55.30859375 24.2060546875 77.01171875 c 6,11,-1
 24.2060546875 436.310546875 l 6,12,13
 24.2060546875 458.012695312 24.2060546875 458.012695312 39.27734375 473.083007812 c 132,-1,14
 54.3486328125 488.154296875 54.3486328125 488.154296875 76.0498046875 488.154296875 c 6,15,-1
 435.349609375 488.154296875 l 6,0,1
230.380859375 127.651367188 m 5,16,-1
 332.865234375 333.825195312 l 5,17,-1
 332.865234375 385.670898438 l 5,18,-1
 178.536132812 385.670898438 l 5,19,-1
 178.536132812 333.825195312 l 5,20,-1
 281.020507812 333.825195312 l 5,21,-1
 178.536132812 127.651367188 l 5,22,-1
 230.380859375 127.651367188 l 5,16,-1
EndSplineSet
Validated: 1
EndChar

StartChar: colon
Encoding: 58 58 18
Width: 512
Flags: W
LayerCount: 2
UndoRedoHistory
Layer: 1
Undoes
UndoOperation
Index: 0
Type: 1
WasModified: 1
WasOrder2: 1
Layer: 2
Width: 512
VWidth: 512
LBearingChange: 0
UnicodeEnc: 0
InstructionsLength: 0
SplineSet
435.036132812 488.17578125 m 6,0,1
 456.75390625 488.17578125 456.75390625 488.17578125 471.8359375 473.09375 c 132,-1,2
 486.91796875 458.01171875 486.91796875 458.01171875 486.91796875 436.293945312 c 6,3,-1
 486.91796875 76.7421875 l 6,4,5
 486.91796875 55.0244140625 486.91796875 55.0244140625 471.8359375 39.9423828125 c 132,-1,6
 456.75390625 24.8603515625 456.75390625 24.8603515625 435.036132812 24.8603515625 c 6,7,-1
 75.484375 24.8603515625 l 6,8,9
 53.7666015625 24.8603515625 53.7666015625 24.8603515625 38.6845703125 39.9423828125 c 132,-1,10
 23.6025390625 55.0244140625 23.6025390625 55.0244140625 23.6025390625 76.7421875 c 6,11,-1
 23.6025390625 436.293945312 l 6,12,13
 23.6025390625 458.01171875 23.6025390625 458.01171875 38.6845703125 473.09375 c 132,-1,14
 53.7666015625 488.17578125 53.7666015625 488.17578125 75.484375 488.17578125 c 6,15,-1
 435.036132812 488.17578125 l 6,0,1
229.922851562 127.416992188 m 6,16,-1
 280.59765625 127.416992188 l 6,17,18
 302.315429688 127.416992188 302.315429688 127.416992188 317.397460938 142.499023438 c 132,-1,19
 332.479492188 157.581054688 332.479492188 157.581054688 332.479492188 179.298828125 c 6,20,-1
 332.479492188 217.908203125 l 6,21,22
 332.479492188 233.592773438 332.479492188 233.592773438 321.017578125 245.055664062 c 132,-1,23
 309.5546875 256.517578125 309.5546875 256.517578125 293.870117188 256.517578125 c 5,24,25
 309.5546875 256.517578125 309.5546875 256.517578125 321.017578125 267.98046875 c 132,-1,26
 332.479492188 279.442382812 332.479492188 279.442382812 332.479492188 295.127929688 c 6,27,-1
 332.479492188 333.737304688 l 6,28,29
 332.479492188 355.455078125 332.479492188 355.455078125 317.397460938 370.537109375 c 132,-1,30
 302.315429688 385.619140625 302.315429688 385.619140625 280.59765625 385.619140625 c 6,31,-1
 229.922851562 385.619140625 l 6,32,33
 208.205078125 385.619140625 208.205078125 385.619140625 193.123046875 370.537109375 c 132,-1,34
 178.041015625 355.455078125 178.041015625 355.455078125 178.041015625 333.737304688 c 6,35,-1
 178.041015625 295.127929688 l 6,36,37
 178.041015625 279.442382812 178.041015625 279.442382812 189.502929688 267.98046875 c 132,-1,38
 200.96484375 256.517578125 200.96484375 256.517578125 216.651367188 256.517578125 c 5,39,40
 200.96484375 256.517578125 200.96484375 256.517578125 189.502929688 245.055664062 c 132,-1,41
 178.041015625 233.592773438 178.041015625 233.592773438 178.041015625 217.908203125 c 6,42,-1
 178.041015625 179.298828125 l 6,43,44
 178.041015625 157.581054688 178.041015625 157.581054688 193.123046875 142.499023438 c 132,-1,45
 208.205078125 127.416992188 208.205078125 127.416992188 229.922851562 127.416992188 c 6,16,-1
229.922851562 231.180664062 m 5,46,-1
 280.59765625 231.180664062 l 5,47,-1
 280.59765625 179.298828125 l 5,48,-1
 229.922851562 179.298828125 l 5,49,-1
 229.922851562 231.180664062 l 5,46,-1
229.922851562 333.737304688 m 5,50,-1
 280.59765625 333.737304688 l 5,51,-1
 280.59765625 281.85546875 l 5,52,-1
 229.922851562 281.85546875 l 5,53,-1
 229.922851562 333.737304688 l 5,50,-1
EndSplineSet
EndUndoOperation
EndUndoes
Redoes
EndRedoes
EndUndoRedoHistory
Fore
SplineSet
436.036132812 488.17578125 m 6,0,1
 457.75390625 488.17578125 457.75390625 488.17578125 472.8359375 473.09375 c 132,-1,2
 487.91796875 458.01171875 487.91796875 458.01171875 487.91796875 436.293945312 c 6,3,-1
 487.91796875 76.7421875 l 6,4,5
 487.91796875 55.0244140625 487.91796875 55.0244140625 472.8359375 39.9423828125 c 132,-1,6
 457.75390625 24.8603515625 457.75390625 24.8603515625 436.036132812 24.8603515625 c 6,7,-1
 76.484375 24.8603515625 l 6,8,9
 54.7666015625 24.8603515625 54.7666015625 24.8603515625 39.6845703125 39.9423828125 c 132,-1,10
 24.6025390625 55.0244140625 24.6025390625 55.0244140625 24.6025390625 76.7421875 c 6,11,-1
 24.6025390625 436.293945312 l 6,12,13
 24.6025390625 458.01171875 24.6025390625 458.01171875 39.6845703125 473.09375 c 132,-1,14
 54.7666015625 488.17578125 54.7666015625 488.17578125 76.484375 488.17578125 c 6,15,-1
 436.036132812 488.17578125 l 6,0,1
230.922851562 127.416992188 m 6,16,-1
 281.59765625 127.416992188 l 6,17,18
 303.315429688 127.416992188 303.315429688 127.416992188 318.397460938 142.499023438 c 132,-1,19
 333.479492188 157.581054688 333.479492188 157.581054688 333.479492188 179.298828125 c 6,20,-1
 333.479492188 217.908203125 l 6,21,22
 333.479492188 233.592773438 333.479492188 233.592773438 322.017578125 245.055664062 c 132,-1,23
 310.5546875 256.517578125 310.5546875 256.517578125 294.870117188 256.517578125 c 5,24,25
 310.5546875 256.517578125 310.5546875 256.517578125 322.017578125 267.98046875 c 132,-1,26
 333.479492188 279.442382812 333.479492188 279.442382812 333.479492188 295.127929688 c 6,27,-1
 333.479492188 333.737304688 l 6,28,29
 333.479492188 355.455078125 333.479492188 355.455078125 318.397460938 370.537109375 c 132,-1,30
 303.315429688 385.619140625 303.315429688 385.619140625 281.59765625 385.619140625 c 6,31,-1
 230.922851562 385.619140625 l 6,32,33
 209.205078125 385.619140625 209.205078125 385.619140625 194.123046875 370.537109375 c 132,-1,34
 179.041015625 355.455078125 179.041015625 355.455078125 179.041015625 333.737304688 c 6,35,-1
 179.041015625 295.127929688 l 6,36,37
 179.041015625 279.442382812 179.041015625 279.442382812 190.502929688 267.98046875 c 132,-1,38
 201.96484375 256.517578125 201.96484375 256.517578125 217.651367188 256.517578125 c 5,39,40
 201.96484375 256.517578125 201.96484375 256.517578125 190.502929688 245.055664062 c 132,-1,41
 179.041015625 233.592773438 179.041015625 233.592773438 179.041015625 217.908203125 c 6,42,-1
 179.041015625 179.298828125 l 6,43,44
 179.041015625 157.581054688 179.041015625 157.581054688 194.123046875 142.499023438 c 132,-1,45
 209.205078125 127.416992188 209.205078125 127.416992188 230.922851562 127.416992188 c 6,16,-1
230.922851562 231.180664062 m 5,46,-1
 281.59765625 231.180664062 l 5,47,-1
 281.59765625 179.298828125 l 5,48,-1
 230.922851562 179.298828125 l 5,49,-1
 230.922851562 231.180664062 l 5,46,-1
230.922851562 333.737304688 m 5,50,-1
 281.59765625 333.737304688 l 5,51,-1
 281.59765625 281.85546875 l 5,52,-1
 230.922851562 281.85546875 l 5,53,-1
 230.922851562 333.737304688 l 5,50,-1
EndSplineSet
Validated: 1
EndChar

StartChar: semicolon
Encoding: 59 59 19
Width: 512
Flags: W
LayerCount: 2
UndoRedoHistory
Layer: 1
Undoes
UndoOperation
Index: 0
Type: 1
WasModified: 1
WasOrder2: 1
Layer: 2
Width: 512
VWidth: 512
LBearingChange: 0
UnicodeEnc: 0
InstructionsLength: 0
SplineSet
433.479492188 486.807617188 m 6,0,1
 455.077148438 486.807617188 455.077148438 486.807617188 470.076171875 471.810546875 c 132,-1,2
 485.07421875 456.811523438 485.07421875 456.811523438 485.07421875 435.213867188 c 6,3,-1
 485.07421875 77.6513671875 l 6,4,5
 485.07421875 56.0537109375 485.07421875 56.0537109375 470.076171875 41.0556640625 c 132,-1,6
 455.077148438 26.056640625 455.077148438 26.056640625 433.479492188 26.056640625 c 6,7,-1
 75.9169921875 26.056640625 l 6,8,9
 54.3203125 26.056640625 54.3203125 26.056640625 39.3212890625 41.0556640625 c 132,-1,10
 24.3232421875 56.0537109375 24.3232421875 56.0537109375 24.3232421875 77.6513671875 c 6,11,-1
 24.3232421875 435.213867188 l 6,12,13
 24.3232421875 456.811523438 24.3232421875 456.811523438 39.3212890625 471.810546875 c 132,-1,14
 54.3203125 486.807617188 54.3203125 486.807617188 75.9169921875 486.807617188 c 6,15,-1
 433.479492188 486.807617188 l 6,0,1
279.896484375 281.629882812 m 5,16,-1
 229.500976562 281.629882812 l 5,17,-1
 229.500976562 333.224609375 l 5,18,-1
 279.896484375 333.224609375 l 5,19,-1
 279.896484375 281.629882812 l 5,16,-1
279.896484375 384.818359375 m 6,20,-1
 229.500976562 384.818359375 l 6,21,22
 207.904296875 384.818359375 207.904296875 384.818359375 192.905273438 369.8203125 c 132,-1,23
 177.907226562 354.822265625 177.907226562 354.822265625 177.907226562 333.224609375 c 6,24,-1
 177.907226562 281.629882812 l 6,25,26
 177.907226562 261.232421875 177.907226562 261.232421875 192.905273438 246.234375 c 132,-1,27
 207.904296875 231.235351562 207.904296875 231.235351562 229.500976562 231.235351562 c 6,28,-1
 279.896484375 231.235351562 l 5,29,-1
 279.896484375 179.640625 l 5,30,-1
 177.907226562 179.640625 l 5,31,-1
 177.907226562 128.046875 l 5,32,-1
 279.896484375 128.046875 l 6,33,34
 301.493164062 128.046875 301.493164062 128.046875 316.4921875 143.043945312 c 132,-1,35
 331.490234375 158.04296875 331.490234375 158.04296875 331.490234375 179.640625 c 6,36,-1
 331.490234375 333.224609375 l 6,37,38
 331.490234375 354.822265625 331.490234375 354.822265625 316.4921875 369.8203125 c 132,-1,39
 301.493164062 384.818359375 301.493164062 384.818359375 279.896484375 384.818359375 c 6,20,-1
EndSplineSet
EndUndoOperation
EndUndoes
Redoes
EndRedoes
EndUndoRedoHistory
Fore
SplineSet
434.479492188 486.807617188 m 6,0,1
 456.077148438 486.807617188 456.077148438 486.807617188 471.076171875 471.810546875 c 132,-1,2
 486.07421875 456.811523438 486.07421875 456.811523438 486.07421875 435.213867188 c 6,3,-1
 486.07421875 77.6513671875 l 6,4,5
 486.07421875 56.0537109375 486.07421875 56.0537109375 471.076171875 41.0556640625 c 132,-1,6
 456.077148438 26.056640625 456.077148438 26.056640625 434.479492188 26.056640625 c 6,7,-1
 76.9169921875 26.056640625 l 6,8,9
 55.3203125 26.056640625 55.3203125 26.056640625 40.3212890625 41.0556640625 c 132,-1,10
 25.3232421875 56.0537109375 25.3232421875 56.0537109375 25.3232421875 77.6513671875 c 6,11,-1
 25.3232421875 435.213867188 l 6,12,13
 25.3232421875 456.811523438 25.3232421875 456.811523438 40.3212890625 471.810546875 c 132,-1,14
 55.3203125 486.807617188 55.3203125 486.807617188 76.9169921875 486.807617188 c 6,15,-1
 434.479492188 486.807617188 l 6,0,1
280.896484375 281.629882812 m 5,16,-1
 230.500976562 281.629882812 l 5,17,-1
 230.500976562 333.224609375 l 5,18,-1
 280.896484375 333.224609375 l 5,19,-1
 280.896484375 281.629882812 l 5,16,-1
280.896484375 384.818359375 m 6,20,-1
 230.500976562 384.818359375 l 6,21,22
 208.904296875 384.818359375 208.904296875 384.818359375 193.905273438 369.8203125 c 132,-1,23
 178.907226562 354.822265625 178.907226562 354.822265625 178.907226562 333.224609375 c 6,24,-1
 178.907226562 281.629882812 l 6,25,26
 178.907226562 261.232421875 178.907226562 261.232421875 193.905273438 246.234375 c 132,-1,27
 208.904296875 231.235351562 208.904296875 231.235351562 230.500976562 231.235351562 c 6,28,-1
 280.896484375 231.235351562 l 5,29,-1
 280.896484375 179.640625 l 5,30,-1
 178.907226562 179.640625 l 5,31,-1
 178.907226562 128.046875 l 5,32,-1
 280.896484375 128.046875 l 6,33,34
 302.493164062 128.046875 302.493164062 128.046875 317.4921875 143.043945312 c 132,-1,35
 332.490234375 158.04296875 332.490234375 158.04296875 332.490234375 179.640625 c 6,36,-1
 332.490234375 333.224609375 l 6,37,38
 332.490234375 354.822265625 332.490234375 354.822265625 317.4921875 369.8203125 c 132,-1,39
 302.493164062 384.818359375 302.493164062 384.818359375 280.896484375 384.818359375 c 6,20,-1
EndSplineSet
Validated: 1
EndChar

StartChar: equal
Encoding: 61 61 20
Width: 512
Flags: W
LayerCount: 2
Fore
SplineSet
426 288 m 1,0,1
 424 324 424 324 402 364 c 128,-1,2
 380 404 380 404 351 425 c 1,3,-1
 381 455 l 1,4,5
 464 391 464 391 469 288 c 1,6,-1
 426 288 l 1,0,1
162 425 m 1,7,8
 133 404 133 404 110.5 364 c 128,-1,9
 88 324 88 324 86 288 c 1,10,-1
 43 288 l 1,11,12
 48 391 48 391 131 455 c 1,13,-1
 162 425 l 1,7,8
273 177 m 1,14,-1
 273 317 l 1,15,-1
 308 317 l 1,16,-1
 308 177 l 1,17,-1
 273 177 l 1,14,-1
203 177 m 1,18,-1
 203 317 l 1,19,-1
 239 317 l 1,20,-1
 239 177 l 1,21,-1
 203 177 l 1,18,-1
341 149 m 1,22,-1
 341 277 l 2,23,24
 341 318 341 318 318 345.5 c 128,-1,25
 295 373 295 373 256 373 c 128,-1,26
 217 373 217 373 194 345.5 c 128,-1,27
 171 318 171 318 171 277 c 2,28,-1
 171 149 l 1,29,-1
 341 149 l 1,22,-1
384 171 m 1,30,-1
 427 128 l 1,31,-1
 427 107 l 1,32,-1
 85 107 l 1,33,-1
 85 128 l 1,34,-1
 128 171 l 1,35,-1
 128 277 l 2,36,37
 128 327 128 327 153.5 364 c 128,-1,38
 179 401 179 401 224 412 c 1,39,-1
 224 427 l 2,40,41
 224 440 224 440 233 449.5 c 128,-1,42
 242 459 242 459 256 459 c 128,-1,43
 270 459 270 459 279 449.5 c 128,-1,44
 288 440 288 440 288 427 c 2,45,-1
 288 412 l 1,46,47
 333 401 333 401 358.5 364 c 128,-1,48
 384 327 384 327 384 277 c 2,49,-1
 384 171 l 1,30,-1
256 43 m 128,-1,51
 239 43 239 43 226 55.5 c 128,-1,52
 213 68 213 68 213 85 c 1,53,-1
 299 85 l 1,54,55
 299 68 299 68 286 55.5 c 128,-1,50
 273 43 273 43 256 43 c 128,-1,51
EndSplineSet
Validated: 1
EndChar

StartChar: greater
Encoding: 62 62 21
Width: 512
Flags: W
LayerCount: 2
Fore
SplineSet
405 183 m 1,0,-1
 277 55 l 1,1,-1
 247 85 l 1,2,-1
 324 162 l 1,3,-1
 85 162 l 1,4,-1
 85 418 l 1,5,-1
 128 418 l 1,6,-1
 128 204 l 1,7,-1
 324 204 l 1,8,-1
 247 281 l 1,9,-1
 277 311 l 1,10,-1
 405 183 l 1,0,-1
EndSplineSet
Validated: 1
EndChar

StartChar: question
Encoding: 63 63 22
Width: 512
Flags: W
LayerCount: 2
Fore
SplineSet
313 201 m 1,0,-1
 283 231 l 1,1,-1
 360 308 l 1,2,-1
 164 308 l 1,3,-1
 164 94 l 1,4,-1
 121 94 l 1,5,-1
 121 350 l 1,6,-1
 360 350 l 1,7,-1
 283 427 l 1,8,-1
 313 457 l 1,9,-1
 441 329 l 1,10,-1
 313 201 l 1,0,-1
EndSplineSet
Validated: 1
EndChar

StartChar: at
Encoding: 64 64 23
Width: 512
Flags: W
LayerCount: 2
Fore
SplineSet
313 181 m 1,0,-1
 313 327 l 1,1,-1
 274 327 l 1,2,-1
 274 181 l 1,3,-1
 313 181 l 1,0,-1
236 181 m 1,4,-1
 236 327 l 1,5,-1
 197 327 l 1,6,-1
 197 181 l 1,7,-1
 236 181 l 1,4,-1
384 171 m 1,8,-1
 427 128 l 1,9,-1
 427 107 l 1,10,-1
 85 107 l 1,11,-1
 85 128 l 1,12,-1
 128 171 l 1,13,-1
 128 277 l 2,14,15
 128 327 128 327 153.5 364 c 128,-1,16
 179 401 179 401 224 412 c 1,17,-1
 224 427 l 2,18,19
 224 440 224 440 233 449.5 c 128,-1,20
 242 459 242 459 256 459 c 128,-1,21
 270 459 270 459 279 449.5 c 128,-1,22
 288 440 288 440 288 427 c 2,23,-1
 288 412 l 1,24,25
 333 401 333 401 358.5 364 c 128,-1,26
 384 327 384 327 384 277 c 2,27,-1
 384 171 l 1,8,-1
256 43 m 0,28,29
 238 43 238 43 225.5 55.5 c 128,-1,30
 213 68 213 68 213 85 c 1,31,-1
 299 85 l 1,32,33
 299 68 299 68 286 55.5 c 128,-1,34
 273 43 273 43 256 43 c 0,28,29
EndSplineSet
Validated: 1
EndChar

StartChar: A
Encoding: 65 65 24
Width: 512
Flags: W
LayerCount: 2
Fore
SplineSet
273 177 m 1,0,-1
 273 317 l 1,1,-1
 308 317 l 1,2,-1
 308 177 l 1,3,-1
 273 177 l 1,0,-1
203 177 m 1,4,-1
 203 317 l 1,5,-1
 239 317 l 1,6,-1
 239 177 l 1,7,-1
 203 177 l 1,4,-1
341 149 m 1,8,-1
 341 277 l 2,9,10
 341 318 341 318 318 345.5 c 128,-1,11
 295 373 295 373 256 373 c 128,-1,12
 217 373 217 373 194 345.5 c 128,-1,13
 171 318 171 318 171 277 c 2,14,-1
 171 149 l 1,15,-1
 341 149 l 1,8,-1
384 171 m 1,16,-1
 427 128 l 1,17,-1
 427 107 l 1,18,-1
 85 107 l 1,19,-1
 85 128 l 1,20,-1
 128 171 l 1,21,-1
 128 277 l 2,22,23
 128 327 128 327 153.5 364 c 128,-1,24
 179 401 179 401 224 412 c 1,25,-1
 224 427 l 2,26,27
 224 440 224 440 233 449.5 c 128,-1,28
 242 459 242 459 256 459 c 128,-1,29
 270 459 270 459 279 449.5 c 128,-1,30
 288 440 288 440 288 427 c 2,31,-1
 288 412 l 1,32,33
 333 401 333 401 358.5 364 c 128,-1,34
 384 327 384 327 384 277 c 2,35,-1
 384 171 l 1,16,-1
256 43 m 128,-1,37
 239 43 239 43 226 55.5 c 128,-1,38
 213 68 213 68 213 85 c 1,39,-1
 299 85 l 1,40,41
 299 68 299 68 286 55.5 c 128,-1,36
 273 43 273 43 256 43 c 128,-1,37
EndSplineSet
Validated: 1
EndChar

StartChar: B
Encoding: 66 66 25
Width: 512
Flags: W
LayerCount: 2
Fore
SplineSet
235 193 m 1,0,-1
 235 235 l 1,1,-1
 448 235 l 1,2,-1
 448 193 l 1,3,-1
 235 193 l 1,0,-1
235 278 m 1,4,-1
 235 321 l 1,5,-1
 448 321 l 1,6,-1
 448 278 l 1,7,-1
 235 278 l 1,4,-1
64 406 m 1,8,-1
 448 406 l 1,9,-1
 448 363 l 1,10,-1
 64 363 l 1,11,-1
 64 406 l 1,8,-1
235 107 m 1,12,-1
 235 150 l 1,13,-1
 448 150 l 1,14,-1
 448 107 l 1,15,-1
 235 107 l 1,12,-1
EndSplineSet
Validated: 1
EndChar

StartChar: C
Encoding: 67 67 26
Width: 512
Flags: W
LayerCount: 2
Fore
SplineSet
235 193 m 1,0,-1
 235 235 l 1,1,-1
 448 235 l 1,2,-1
 448 193 l 1,3,-1
 235 193 l 1,0,-1
235 278 m 1,4,-1
 235 321 l 1,5,-1
 448 321 l 1,6,-1
 448 278 l 1,7,-1
 235 278 l 1,4,-1
64 406 m 1,8,-1
 448 406 l 1,9,-1
 448 363 l 1,10,-1
 64 363 l 1,11,-1
 64 406 l 1,8,-1
235 107 m 1,12,-1
 235 150 l 1,13,-1
 448 150 l 1,14,-1
 448 107 l 1,15,-1
 235 107 l 1,12,-1
64 299 m 1,16,-1
 149 214 l 1,17,-1
 64 129 l 1,18,-1
 64 299 l 1,16,-1
EndSplineSet
Validated: 1
EndChar

StartChar: bracketleft
Encoding: 91 91 27
Width: 247
Flags: W
LayerCount: 2
Fore
SplineSet
78 384 m 1,0,-1
 206 256 l 1,1,-1
 78 128 l 1,2,-1
 48 158 l 1,3,-1
 146 256 l 1,4,-1
 48 354 l 1,5,-1
 78 384 l 1,0,-1
EndSplineSet
Validated: 1
EndChar

StartChar: bracketright
Encoding: 93 93 28
Width: 512
Flags: W
LayerCount: 2
UndoRedoHistory
Layer: 1
Undoes
UndoOperation
Index: 0
Type: 1
WasModified: 1
WasOrder2: 1
Layer: 2
Width: 512
VWidth: 512
LBearingChange: 0
UnicodeEnc: 0
InstructionsLength: 0
SplineSet
370.094726562 408.51953125 m 2,0,1
 383.4453125 408.51953125 383.4453125 408.51953125 393.45703125 398.5078125 c 128,-1,2
 403.469726562 388.495117188 403.469726562 388.495117188 403.469726562 375.14453125 c 2,3,-1
 403.469726562 145.525390625 l 2,4,5
 403.469726562 132.174804688 403.469726562 132.174804688 393.45703125 122.162109375 c 128,-1,6
 383.4453125 112.150390625 383.4453125 112.150390625 370.094726562 112.150390625 c 2,7,-1
 140.474609375 112.150390625 l 2,8,9
 127.125 112.150390625 127.125 112.150390625 117.112304688 122.162109375 c 128,-1,10
 107.099609375 132.174804688 107.099609375 132.174804688 107.099609375 145.525390625 c 2,11,-1
 107.099609375 375.14453125 l 2,12,13
 107.099609375 388.495117188 107.099609375 388.495117188 117.112304688 398.5078125 c 128,-1,14
 127.125 408.51953125 127.125 408.51953125 140.474609375 408.51953125 c 2,15,-1
 370.094726562 408.51953125 l 2,0,1
370.094726562 375.14453125 m 1,16,-1
 140.474609375 375.14453125 l 1,17,-1
 140.474609375 145.525390625 l 1,18,-1
 370.094726562 145.525390625 l 1,19,-1
 370.094726562 375.14453125 l 1,16,-1
EndSplineSet
EndUndoOperation
EndUndoes
Redoes
EndRedoes
EndUndoRedoHistory
Fore
SplineSet
370 409 m 2,0,1
 383 409 383 409 393 398.5 c 128,-1,2
 403 388 403 388 403 375 c 2,3,-1
 403 146 l 2,4,5
 403 133 403 133 393 122.5 c 128,-1,6
 383 112 383 112 370 112 c 2,7,-1
 140 112 l 2,8,9
 127 112 127 112 117 122 c 128,-1,10
 107 132 107 132 107 146 c 2,11,-1
 107 375 l 2,12,13
 107 388 107 388 117 398.5 c 128,-1,14
 127 409 127 409 140 409 c 2,15,-1
 370 409 l 2,0,1
370 375 m 1,16,-1
 140 375 l 1,17,-1
 140 146 l 1,18,-1
 370 146 l 1,19,-1
 370 375 l 1,16,-1
EndSplineSet
Validated: 1
EndChar

StartChar: asciicircum
Encoding: 94 94 29
Width: 512
Flags: W
LayerCount: 2
UndoRedoHistory
Layer: 1
Undoes
UndoOperation
Index: 0
Type: 1
WasModified: 1
WasOrder2: 1
Layer: 2
Width: 512
VWidth: 512
LBearingChange: 0
UnicodeEnc: 0
InstructionsLength: 0
SplineSet
343.39453125 348.4453125 m 5,0,-1
 343.39453125 172.224609375 l 5,1,-1
 167.174804688 172.224609375 l 5,2,-1
 167.174804688 348.4453125 l 5,3,-1
 343.39453125 348.4453125 l 5,0,-1
370.094726562 408.51953125 m 6,4,5
 383.4453125 408.51953125 383.4453125 408.51953125 393.45703125 398.5078125 c 132,-1,6
 403.469726562 388.495117188 403.469726562 388.495117188 403.469726562 375.14453125 c 6,7,-1
 403.469726562 145.525390625 l 6,8,9
 403.469726562 132.174804688 403.469726562 132.174804688 393.45703125 122.162109375 c 132,-1,10
 383.4453125 112.150390625 383.4453125 112.150390625 370.094726562 112.150390625 c 6,11,-1
 140.474609375 112.150390625 l 6,12,13
 127.125 112.150390625 127.125 112.150390625 117.112304688 122.162109375 c 132,-1,14
 107.099609375 132.174804688 107.099609375 132.174804688 107.099609375 145.525390625 c 6,15,-1
 107.099609375 375.14453125 l 6,16,17
 107.099609375 388.495117188 107.099609375 388.495117188 117.112304688 398.5078125 c 132,-1,18
 127.125 408.51953125 127.125 408.51953125 140.474609375 408.51953125 c 6,19,-1
 370.094726562 408.51953125 l 6,4,5
370.094726562 375.14453125 m 5,20,-1
 140.474609375 375.14453125 l 5,21,-1
 140.474609375 145.525390625 l 5,22,-1
 370.094726562 145.525390625 l 5,23,-1
 370.094726562 375.14453125 l 5,20,-1
EndSplineSet
EndUndoOperation
EndUndoes
Redoes
EndRedoes
EndUndoRedoHistory
Fore
SplineSet
343 348 m 5,0,-1
 343 172 l 5,1,-1
 167 172 l 5,2,-1
 167 348 l 5,3,-1
 343 348 l 5,0,-1
370 409 m 2,4,5
 383 409 383 409 393 398.5 c 128,-1,6
 403 388 403 388 403 375 c 2,7,-1
 403 146 l 2,8,9
 403 133 403 133 393 122.5 c 128,-1,10
 383 112 383 112 370 112 c 2,11,-1
 140 112 l 2,12,13
 127 112 127 112 117 122 c 128,-1,14
 107 132 107 132 107 146 c 2,15,-1
 107 375 l 2,16,17
 107 388 107 388 117 398.5 c 128,-1,18
 127 409 127 409 140 409 c 2,19,-1
 370 409 l 2,4,5
370 375 m 1,20,-1
 140 375 l 1,21,-1
 140 146 l 1,22,-1
 370 146 l 1,23,-1
 370 375 l 1,20,-1
EndSplineSet
Validated: 1
EndChar

StartChar: b
Encoding: 98 98 30
Width: 512
Flags: W
LayerCount: 2
UndoRedoHistory
Layer: 1
Undoes
UndoOperation
Index: 0
Type: 1
WasModified: 1
WasOrder2: 1
Layer: 2
Width: 512
VWidth: 512
LBearingChange: 0
UnicodeEnc: 0
InstructionsLength: 0
SplineSet
277 449 m 0,0,1
 237 449 237 449 204 430 c 128,-1,2
 171 411 171 411 150.5 378.5 c 128,-1,3
 130 346 130 346 128 306 c 1,4,-1
 87 253 l 2,5,6
 83 248 83 248 86 242 c 128,-1,7
 89 236 89 236 96 236 c 2,8,-1
 128 236 l 1,9,-1
 128 172 l 2,10,11
 128 154 128 154 140.5 141.5 c 128,-1,12
 153 129 153 129 171 129 c 2,13,-1
 192 129 l 1,14,-1
 192 65 l 1,15,-1
 341 65 l 1,16,-1
 341 165 l 1,17,18
 380 183 380 183 403.5 219 c 128,-1,19
 427 255 427 255 427 300 c 0,20,21
 427 341 427 341 407 375 c 128,-1,22
 387 409 387 409 352.5 429 c 128,-1,23
 318 449 318 449 277 449 c 0,0,1
277 492 m 0,24,25
 330 492 330 492 374 466 c 128,-1,26
 418 440 418 440 443.5 396 c 128,-1,27
 469 352 469 352 469 300 c 0,28,29
 469 251 469 251 446.5 209 c 128,-1,30
 424 167 424 167 384 140 c 1,31,-1
 384 22 l 1,32,-1
 149 22 l 1,33,-1
 149 88 l 1,34,35
 121 97 121 97 103 119.5 c 128,-1,36
 85 142 85 142 85 172 c 2,37,-1
 85 195 l 1,38,39
 63 198 63 198 49 223 c 0,40,41
 42 236 42 236 43 251 c 128,-1,42
 44 266 44 266 53 278 c 2,43,-1
 87 323 l 1,44,45
 93 371 93 371 119.5 409.5 c 128,-1,46
 146 448 146 448 187.5 470 c 128,-1,47
 229 492 229 492 277 492 c 0,24,25
EndSplineSet
EndUndoOperation
EndUndoes
Redoes
EndRedoes
EndUndoRedoHistory
Fore
SplineSet
277 449 m 0,0,1
 237 449 237 449 204 430 c 128,-1,2
 171 411 171 411 150.5 378.5 c 128,-1,3
 130 346 130 346 128 306 c 1,4,-1
 87 253 l 2,5,6
 83 248 83 248 86 242 c 128,-1,7
 89 236 89 236 96 236 c 2,8,-1
 128 236 l 1,9,-1
 128 172 l 2,10,11
 128 154 128 154 140.5 141.5 c 128,-1,12
 153 129 153 129 171 129 c 2,13,-1
 192 129 l 1,14,-1
 192 65 l 1,15,-1
 341 65 l 1,16,-1
 341 165 l 1,17,18
 380 183 380 183 403.5 219 c 128,-1,19
 427 255 427 255 427 300 c 0,20,21
 427 341 427 341 407 375 c 128,-1,22
 387 409 387 409 352.5 429 c 128,-1,23
 318 449 318 449 277 449 c 0,0,1
277 492 m 0,24,25
 330 492 330 492 374 466 c 128,-1,26
 418 440 418 440 443.5 396 c 128,-1,27
 469 352 469 352 469 300 c 0,28,29
 469 251 469 251 446.5 209 c 128,-1,30
 424 167 424 167 384 140 c 1,31,-1
 384 22 l 1,32,-1
 149 22 l 1,33,-1
 149 88 l 1,34,35
 121 97 121 97 103 119.5 c 128,-1,36
 85 142 85 142 85 172 c 2,37,-1
 85 195 l 1,38,39
 63 198 63 198 49 223 c 0,40,41
 42.875 234.375 42.875 234.375 42.875 247.28125 c 0,42,43
 42.875 264.5 42.875 264.5 53 278 c 2,44,-1
 87 323 l 1,45,46
 93 371 93 371 119.5 409.5 c 128,-1,47
 146 448 146 448 187.5 470 c 128,-1,48
 229 492 229 492 277 492 c 0,24,25
EndSplineSet
Validated: 1
EndChar

StartChar: c
Encoding: 99 99 31
Width: 512
Flags: W
LayerCount: 2
UndoRedoHistory
Layer: 1
Undoes
UndoOperation
Index: 0
Type: 1
WasModified: 1
WasOrder2: 1
Layer: 2
Width: 512
VWidth: 512
LBearingChange: 0
UnicodeEnc: 0
InstructionsLength: 0
SplineSet
277 492 m 0,0,1
 329 492 329 492 373.5 466 c 128,-1,2
 418 440 418 440 443.5 396 c 128,-1,3
 469 352 469 352 469 300 c 0,4,5
 469 251 469 251 446.5 209 c 128,-1,6
 424 167 424 167 384 140 c 1,7,-1
 384 22 l 1,8,-1
 149 22 l 1,9,-1
 149 89 l 1,10,11
 122 96 122 96 103.5 119 c 128,-1,12
 85 142 85 142 85 172 c 2,13,-1
 85 194 l 1,14,15
 60 199 60 199 48 223 c 0,16,17
 41 237 41 237 42.5 252 c 128,-1,18
 44 267 44 267 53 278 c 2,19,-1
 87 323 l 1,20,21
 92 370 92 370 119 408.5 c 128,-1,22
 146 447 146 447 187.5 469.5 c 128,-1,23
 229 492 229 492 277 492 c 0,0,1
EndSplineSet
EndUndoOperation
EndUndoes
Redoes
EndRedoes
EndUndoRedoHistory
Fore
SplineSet
277 492 m 0,0,1
 329 492 329 492 373.5 466 c 128,-1,2
 418 440 418 440 443.5 396 c 128,-1,3
 469 352 469 352 469 300 c 0,4,5
 469 251 469 251 446.5 209 c 128,-1,6
 424 167 424 167 384 140 c 1,7,-1
 384 22 l 1,8,-1
 149 22 l 1,9,-1
 149 89 l 1,10,11
 122 96 122 96 103.5 119 c 128,-1,12
 85 142 85 142 85 172 c 2,13,-1
 85 194 l 1,14,15
 60 199 60 199 48 223 c 0,16,17
 42.2352941176 234.529411765 42.2352941176 234.529411765 42.2352941176 246.737024221 c 0,18,19
 42.2352941176 249.352941176 42.2352941176 249.352941176 42.5 252 c 0,20,21
 44 267 44 267 53 278 c 2,22,-1
 87 323 l 1,23,24
 92 370 92 370 119 408.5 c 128,-1,25
 146 447 146 447 187.5 469.5 c 128,-1,26
 229 492 229 492 277 492 c 0,0,1
EndSplineSet
Validated: 1
EndChar

StartChar: f
Encoding: 102 102 32
Width: 512
Flags: W
LayerCount: 2
Fore
SplineSet
405 107 m 1,0,-1
 405 341 l 1,1,-1
 107 341 l 1,2,-1
 107 107 l 1,3,-1
 405 107 l 1,0,-1
405 448 m 2,4,5
 422 448 422 448 435 435 c 128,-1,6
 448 422 448 422 448 405 c 2,7,-1
 448 107 l 2,8,9
 448 90 448 90 435 77 c 128,-1,10
 422 64 422 64 405 64 c 2,11,-1
 107 64 l 2,12,13
 89 64 89 64 76.5 77 c 128,-1,14
 64 90 64 90 64 107 c 2,15,-1
 64 405 l 2,16,17
 64 422 64 422 76.5 435 c 128,-1,18
 89 448 89 448 107 448 c 2,19,-1
 128 448 l 1,20,-1
 128 491 l 1,21,-1
 171 491 l 1,22,-1
 171 448 l 1,23,-1
 341 448 l 1,24,-1
 341 491 l 1,25,-1
 384 491 l 1,26,-1
 384 448 l 1,27,-1
 405 448 l 2,4,5
353 276 m 1,28,-1
 226 149 l 1,29,-1
 158 217 l 1,30,-1
 181 240 l 1,31,-1
 226 195 l 1,32,-1
 330 299 l 1,33,-1
 353 276 l 1,28,-1
EndSplineSet
Validated: 1
EndChar

StartChar: g
Encoding: 103 103 33
Width: 512
Flags: W
LayerCount: 2
Fore
SplineSet
405 107 m 1,0,-1
 405 341 l 1,1,-1
 107 341 l 1,2,-1
 107 107 l 1,3,-1
 405 107 l 1,0,-1
341 491 m 1,4,-1
 384 491 l 1,5,-1
 384 448 l 1,6,-1
 405 448 l 2,7,8
 422 448 422 448 435 435 c 128,-1,9
 448 422 448 422 448 405 c 2,10,-1
 448 107 l 2,11,12
 448 90 448 90 435 77 c 128,-1,13
 422 64 422 64 405 64 c 2,14,-1
 107 64 l 2,15,16
 89 64 89 64 76.5 77 c 128,-1,17
 64 90 64 90 64 107 c 2,18,-1
 64 405 l 2,19,20
 64 422 64 422 76.5 435 c 128,-1,21
 89 448 89 448 107 448 c 2,22,-1
 128 448 l 1,23,-1
 128 491 l 1,24,-1
 171 491 l 1,25,-1
 171 448 l 1,26,-1
 341 448 l 1,27,-1
 341 491 l 1,4,-1
363 256 m 1,28,-1
 363 149 l 1,29,-1
 256 149 l 1,30,-1
 256 256 l 1,31,-1
 363 256 l 1,28,-1
EndSplineSet
Validated: 1
EndChar

StartChar: h
Encoding: 104 104 34
Width: 512
Flags: W
LayerCount: 2
Fore
SplineSet
329 266 m 2,0,-1
 313 251 l 1,1,-1
 282 282 l 1,2,-1
 297 298 l 2,3,4
 300 300 300 300 303.5 300 c 128,-1,5
 307 300 307 300 309 298 c 2,6,-1
 329 278 l 2,7,8
 331 276 331 276 331 272.5 c 128,-1,9
 331 269 331 269 329 266 c 2,0,-1
180 181 m 1,10,-1
 273 273 l 1,11,-1
 304 242 l 1,12,-1
 211 149 l 1,13,-1
 180 149 l 1,14,-1
 180 181 l 1,10,-1
405 107 m 1,15,-1
 405 341 l 1,16,-1
 107 341 l 1,17,-1
 107 107 l 1,18,-1
 405 107 l 1,15,-1
341 491 m 1,19,-1
 384 491 l 1,20,-1
 384 448 l 1,21,-1
 405 448 l 2,22,23
 422 448 422 448 435 435 c 128,-1,24
 448 422 448 422 448 405 c 2,25,-1
 448 107 l 2,26,27
 448 90 448 90 435 77 c 128,-1,28
 422 64 422 64 405 64 c 2,29,-1
 107 64 l 2,30,31
 89 64 89 64 76.5 77 c 128,-1,32
 64 90 64 90 64 107 c 2,33,-1
 64 405 l 2,34,35
 64 422 64 422 76.5 435 c 128,-1,36
 89 448 89 448 107 448 c 2,37,-1
 128 448 l 1,38,-1
 128 491 l 1,39,-1
 171 491 l 1,40,-1
 171 448 l 1,41,-1
 341 448 l 1,42,-1
 341 491 l 1,19,-1
EndSplineSet
Validated: 1
EndChar

StartChar: i
Encoding: 105 105 35
Width: 512
Flags: W
LayerCount: 2
Fore
SplineSet
302 209 m 1,0,-1
 345 252 l 1,1,-1
 354 243 l 1,2,-1
 302 191 l 1,3,-1
 274 218 l 1,4,-1
 283 227 l 1,5,-1
 302 209 l 1,0,-1
314.5 161 m 128,-1,7
 340 161 340 161 357.5 179 c 128,-1,8
 375 197 375 197 375 222.5 c 128,-1,9
 375 248 375 248 357.5 265.5 c 128,-1,10
 340 283 340 283 314.5 283 c 128,-1,11
 289 283 289 283 271.5 265.5 c 128,-1,12
 254 248 254 248 254 222.5 c 128,-1,13
 254 197 254 197 271.5 179 c 128,-1,6
 289 161 289 161 314.5 161 c 128,-1,7
314.5 301 m 128,-1,15
 347 301 347 301 370 278 c 128,-1,16
 393 255 393 255 393 222.5 c 128,-1,17
 393 190 393 190 370 167 c 128,-1,18
 347 144 347 144 314.5 144 c 128,-1,19
 282 144 282 144 259 167 c 128,-1,20
 236 190 236 190 236 222.5 c 128,-1,21
 236 255 236 255 259 278 c 128,-1,14
 282 301 282 301 314.5 301 c 128,-1,15
220 224 m 1,22,-1
 182 176 l 1,23,-1
 182 212 l 1,24,-1
 125 212 l 1,25,-1
 125 236 l 1,26,-1
 182 236 l 1,27,-1
 182 272 l 1,28,-1
 220 224 l 1,22,-1
405 107 m 1,29,-1
 405 341 l 1,30,-1
 107 341 l 1,31,-1
 107 107 l 1,32,-1
 405 107 l 1,29,-1
341 491 m 1,33,-1
 384 491 l 1,34,-1
 384 448 l 1,35,-1
 405 448 l 2,36,37
 422 448 422 448 435 435 c 128,-1,38
 448 422 448 422 448 405 c 2,39,-1
 448 107 l 2,40,41
 448 90 448 90 435 77 c 128,-1,42
 422 64 422 64 405 64 c 2,43,-1
 107 64 l 2,44,45
 89 64 89 64 76.5 77 c 128,-1,46
 64 90 64 90 64 107 c 2,47,-1
 64 405 l 2,48,49
 64 422 64 422 76.5 435 c 128,-1,50
 89 448 89 448 107 448 c 2,51,-1
 128 448 l 1,52,-1
 128 491 l 1,53,-1
 171 491 l 1,54,-1
 171 448 l 1,55,-1
 341 448 l 1,56,-1
 341 491 l 1,33,-1
EndSplineSet
Validated: 1
EndChar

StartChar: j
Encoding: 106 106 36
Width: 512
Flags: W
LayerCount: 2
Fore
SplineSet
256 146 m 128,-1,1
 288 146 288 146 311.5 168.5 c 128,-1,2
 335 191 335 191 335 222.5 c 128,-1,3
 335 254 335 254 311.5 276.5 c 128,-1,4
 288 299 288 299 256 299 c 128,-1,5
 224 299 224 299 201 276.5 c 128,-1,6
 178 254 178 254 178 222.5 c 128,-1,7
 178 191 178 191 201 168.5 c 128,-1,0
 224 146 224 146 256 146 c 128,-1,1
256.5 318 m 128,-1,9
 297 318 297 318 325.5 290 c 128,-1,10
 354 262 354 262 354 222.5 c 128,-1,11
 354 183 354 183 325.5 155 c 128,-1,12
 297 127 297 127 256.5 127 c 128,-1,13
 216 127 216 127 187.5 155 c 128,-1,14
 159 183 159 183 159 222.5 c 128,-1,15
 159 262 159 262 187.5 290 c 128,-1,8
 216 318 216 318 256.5 318 c 128,-1,9
297.5 263 m 128,-1,17
 315 246 315 246 315 222.5 c 128,-1,18
 315 199 315 199 298 182 c 128,-1,19
 281 165 281 165 257 165 c 128,-1,20
 233 165 233 165 215 182 c 1,21,-1
 256 223 l 1,22,-1
 256 280 l 1,23,16
 280 280 280 280 297.5 263 c 128,-1,17
405 107 m 1,24,-1
 405 341 l 1,25,-1
 107 341 l 1,26,-1
 107 107 l 1,27,-1
 405 107 l 1,24,-1
341 491 m 1,28,-1
 384 491 l 1,29,-1
 384 448 l 1,30,-1
 405 448 l 2,31,32
 422 448 422 448 435 435 c 128,-1,33
 448 422 448 422 448 405 c 2,34,-1
 448 107 l 2,35,36
 448 90 448 90 435 77 c 128,-1,37
 422 64 422 64 405 64 c 2,38,-1
 107 64 l 2,39,40
 89 64 89 64 76.5 77 c 128,-1,41
 64 90 64 90 64 107 c 2,42,-1
 64 405 l 2,43,44
 64 422 64 422 76.5 435 c 128,-1,45
 89 448 89 448 107 448 c 2,46,-1
 128 448 l 1,47,-1
 128 491 l 1,48,-1
 171 491 l 1,49,-1
 171 448 l 1,50,-1
 341 448 l 1,51,-1
 341 491 l 1,28,-1
EndSplineSet
Validated: 1
EndChar

StartChar: k
Encoding: 107 107 37
Width: 512
Flags: W
LayerCount: 2
Fore
SplineSet
277 299 m 1,0,-1
 320 299 l 1,1,-1
 320 150 l 1,2,-1
 277 150 l 1,3,-1
 277 299 l 1,0,-1
235 299 m 1,4,-1
 235 150 l 1,5,-1
 192 150 l 1,6,-1
 192 299 l 1,7,-1
 235 299 l 1,4,-1
405 107 m 1,8,-1
 405 341 l 1,9,-1
 107 341 l 1,10,-1
 107 107 l 1,11,-1
 405 107 l 1,8,-1
341 491 m 1,12,-1
 384 491 l 1,13,-1
 384 448 l 1,14,-1
 405 448 l 2,15,16
 422 448 422 448 435 435 c 128,-1,17
 448 422 448 422 448 405 c 2,18,-1
 448 107 l 2,19,20
 448 90 448 90 435 77 c 128,-1,21
 422 64 422 64 405 64 c 2,22,-1
 107 64 l 2,23,24
 89 64 89 64 76.5 77 c 128,-1,25
 64 90 64 90 64 107 c 2,26,-1
 64 405 l 2,27,28
 64 422 64 422 76.5 435 c 128,-1,29
 89 448 89 448 107 448 c 2,30,-1
 128 448 l 1,31,-1
 128 491 l 1,32,-1
 171 491 l 1,33,-1
 171 448 l 1,34,-1
 341 448 l 1,35,-1
 341 491 l 1,12,-1
EndSplineSet
Validated: 1
EndChar

StartChar: l
Encoding: 108 108 38
Width: 512
Flags: W
LayerCount: 2
UndoRedoHistory
Layer: 1
Undoes
UndoOperation
Index: 0
Type: 1
WasModified: 0
WasOrder2: 1
Layer: 2
Width: 512
VWidth: 512
LBearingChange: 0
UnicodeEnc: 0
InstructionsLength: 0
SplineSet
234 260 m 1,0,-1
 164 260 l 1,1,-1
 164 189 l 1,2,-1
 234 189 l 1,3,-1
 234 260 l 1,0,-1
252 278 m 1,4,-1
 252 171 l 1,5,-1
 145 171 l 1,6,-1
 145 278 l 1,7,-1
 252 278 l 1,4,-1
365 224 m 1,8,-1
 327 176 l 1,9,-1
 327 212 l 1,10,-1
 270 212 l 1,11,-1
 270 236 l 1,12,-1
 327 236 l 1,13,-1
 327 272 l 1,14,-1
 365 224 l 1,8,-1
405 107 m 1,15,-1
 405 341 l 1,16,-1
 107 341 l 1,17,-1
 107 107 l 1,18,-1
 405 107 l 1,15,-1
341 491 m 1,19,-1
 384 491 l 1,20,-1
 384 448 l 1,21,-1
 405 448 l 2,22,23
 422 448 422 448 435 435 c 128,-1,24
 448 422 448 422 448 405 c 2,25,-1
 448 107 l 2,26,27
 448 90 448 90 435 77 c 128,-1,28
 422 64 422 64 405 64 c 2,29,-1
 107 64 l 2,30,31
 89 64 89 64 76.5 77 c 128,-1,32
 64 90 64 90 64 107 c 2,33,-1
 64 405 l 2,34,35
 64 422 64 422 76.5 435 c 128,-1,36
 89 448 89 448 107 448 c 2,37,-1
 128 448 l 1,38,-1
 128 491 l 1,39,-1
 171 491 l 1,40,-1
 171 448 l 1,41,-1
 341 448 l 1,42,-1
 341 491 l 1,19,-1
405 107 m 1,43,-1
 405 341 l 1,44,-1
 107 341 l 1,45,-1
 107 107 l 1,46,-1
 405 107 l 1,43,-1
341 491 m 1,47,-1
 384 491 l 1,48,-1
 384 448 l 1,49,-1
 405 448 l 2,50,51
 422 448 422 448 435 435 c 128,-1,52
 448 422 448 422 448 405 c 2,53,-1
 448 107 l 2,54,55
 448 90 448 90 435 77 c 128,-1,56
 422 64 422 64 405 64 c 2,57,-1
 107 64 l 2,58,59
 89 64 89 64 76.5 77 c 128,-1,60
 64 90 64 90 64 107 c 2,61,-1
 64 405 l 2,62,63
 64 422 64 422 76.5 435 c 128,-1,64
 89 448 89 448 107 448 c 2,65,-1
 128 448 l 1,66,-1
 128 491 l 1,67,-1
 171 491 l 1,68,-1
 171 448 l 1,69,-1
 341 448 l 1,70,-1
 341 491 l 1,47,-1
EndSplineSet
EndUndoOperation
EndUndoes
Redoes
EndRedoes
EndUndoRedoHistory
Fore
SplineSet
365 224 m 1,0,-1
 327 176 l 1,1,-1
 327 212 l 1,2,-1
 270 212 l 1,3,-1
 270 236 l 1,4,-1
 327 236 l 1,5,-1
 327 272 l 1,6,-1
 365 224 l 1,0,-1
252 278 m 1,7,-1
 252 171 l 1,8,-1
 145 171 l 1,9,-1
 145 278 l 1,10,-1
 252 278 l 1,7,-1
234 260 m 1,11,-1
 164 260 l 1,12,-1
 164 189 l 1,13,-1
 234 189 l 1,14,-1
 234 260 l 1,11,-1
341 448 m 1,15,-1
 341 491 l 1,16,-1
 384 491 l 1,17,-1
 384 448 l 1,18,-1
 405 448 l 2,19,20
 422 448 422 448 435 435 c 128,-1,21
 448 422 448 422 448 405 c 2,22,-1
 448 107 l 2,23,24
 448 90 448 90 435 77 c 128,-1,25
 422 64 422 64 405 64 c 2,26,-1
 107 64 l 2,27,28
 89 64 89 64 76.5 77 c 128,-1,29
 64 90 64 90 64 107 c 2,30,-1
 64 405 l 2,31,32
 64 422 64 422 76.5 435 c 128,-1,33
 89 448 89 448 107 448 c 2,34,-1
 128 448 l 1,35,-1
 128 491 l 1,36,-1
 171 491 l 1,37,-1
 171 448 l 1,38,-1
 341 448 l 1,15,-1
107 107 m 1,39,-1
 405 107 l 1,40,-1
 405 341 l 1,41,-1
 107 341 l 1,42,-1
 107 107 l 1,39,-1
EndSplineSet
Validated: 1
EndChar

StartChar: m
Encoding: 109 109 39
Width: 512
Flags: W
LayerCount: 2
Fore
SplineSet
265 185 m 1,0,-1
 265 262 l 1,1,-1
 285 262 l 1,2,-1
 285 185 l 1,3,-1
 265 185 l 1,0,-1
256 146 m 128,-1,5
 288 146 288 146 311 169 c 128,-1,6
 334 192 334 192 334 223.5 c 128,-1,7
 334 255 334 255 311 278 c 128,-1,8
 288 301 288 301 256 301 c 128,-1,9
 224 301 224 301 201 278 c 128,-1,10
 178 255 178 255 178 223.5 c 128,-1,11
 178 192 178 192 201 169 c 128,-1,4
 224 146 224 146 256 146 c 128,-1,5
256 320 m 128,-1,13
 296 320 296 320 324.5 292 c 128,-1,14
 353 264 353 264 353 224 c 128,-1,15
 353 184 353 184 324.5 155.5 c 128,-1,16
 296 127 296 127 256 127 c 128,-1,17
 216 127 216 127 187.5 155.5 c 128,-1,18
 159 184 159 184 159 224 c 128,-1,19
 159 264 159 264 187.5 292 c 128,-1,12
 216 320 216 320 256 320 c 128,-1,13
227 185 m 1,20,-1
 227 262 l 1,21,-1
 246 262 l 1,22,-1
 246 185 l 1,23,-1
 227 185 l 1,20,-1
405 107 m 1,24,-1
 405 341 l 1,25,-1
 107 341 l 1,26,-1
 107 107 l 1,27,-1
 405 107 l 1,24,-1
341 491 m 1,28,-1
 384 491 l 1,29,-1
 384 448 l 1,30,-1
 405 448 l 2,31,32
 422 448 422 448 435 435 c 128,-1,33
 448 422 448 422 448 405 c 2,34,-1
 448 107 l 2,35,36
 448 90 448 90 435 77 c 128,-1,37
 422 64 422 64 405 64 c 2,38,-1
 107 64 l 2,39,40
 89 64 89 64 76.5 77 c 128,-1,41
 64 90 64 90 64 107 c 2,42,-1
 64 405 l 2,43,44
 64 422 64 422 76.5 435 c 128,-1,45
 89 448 89 448 107 448 c 2,46,-1
 128 448 l 1,47,-1
 128 491 l 1,48,-1
 171 491 l 1,49,-1
 171 448 l 1,50,-1
 341 448 l 1,51,-1
 341 491 l 1,28,-1
EndSplineSet
Validated: 1
EndChar

StartChar: n
Encoding: 110 110 40
Width: 512
Flags: W
LayerCount: 2
Fore
SplineSet
255.5 145 m 128,-1,1
 287 145 287 145 310 168 c 128,-1,2
 333 191 333 191 333 223 c 128,-1,3
 333 255 333 255 310 278 c 128,-1,4
 287 301 287 301 255.5 301 c 128,-1,5
 224 301 224 301 201 278 c 128,-1,6
 178 255 178 255 178 223 c 128,-1,7
 178 191 178 191 201 168 c 128,-1,0
 224 145 224 145 255.5 145 c 128,-1,1
255.5 320 m 128,-1,9
 296 320 296 320 324.5 291.5 c 128,-1,10
 353 263 353 263 353 223 c 128,-1,11
 353 183 353 183 324.5 154.5 c 128,-1,12
 296 126 296 126 255.5 126 c 128,-1,13
 215 126 215 126 187 154.5 c 128,-1,14
 159 183 159 183 159 223 c 128,-1,15
 159 263 159 263 187 291.5 c 128,-1,8
 215 320 215 320 255.5 320 c 128,-1,9
405 107 m 1,16,-1
 405 341 l 1,17,-1
 107 341 l 1,18,-1
 107 107 l 1,19,-1
 405 107 l 1,16,-1
341 491 m 1,20,-1
 384 491 l 1,21,-1
 384 448 l 1,22,-1
 405 448 l 2,23,24
 422 448 422 448 435 435 c 128,-1,25
 448 422 448 422 448 405 c 2,26,-1
 448 107 l 2,27,28
 448 90 448 90 435 77 c 128,-1,29
 422 64 422 64 405 64 c 2,30,-1
 107 64 l 2,31,32
 89 64 89 64 76.5 77 c 128,-1,33
 64 90 64 90 64 107 c 2,34,-1
 64 405 l 2,35,36
 64 422 64 422 76.5 435 c 128,-1,37
 89 448 89 448 107 448 c 2,38,-1
 128 448 l 1,39,-1
 128 491 l 1,40,-1
 171 491 l 1,41,-1
 171 448 l 1,42,-1
 341 448 l 1,43,-1
 341 491 l 1,20,-1
EndSplineSet
Validated: 1
EndChar

StartChar: o
Encoding: 111 111 41
Width: 512
Flags: W
LayerCount: 2
Fore
SplineSet
302 209 m 1,0,-1
 345 252 l 1,1,-1
 354 243 l 1,2,-1
 302 191 l 1,3,-1
 274 218 l 1,4,-1
 283 227 l 1,5,-1
 302 209 l 1,0,-1
314.5 161 m 128,-1,7
 340 161 340 161 357.5 179 c 128,-1,8
 375 197 375 197 375 222.5 c 128,-1,9
 375 248 375 248 357.5 265.5 c 128,-1,10
 340 283 340 283 314.5 283 c 128,-1,11
 289 283 289 283 271.5 265.5 c 128,-1,12
 254 248 254 248 254 222.5 c 128,-1,13
 254 197 254 197 271.5 179 c 128,-1,6
 289 161 289 161 314.5 161 c 128,-1,7
314.5 301 m 128,-1,15
 347 301 347 301 370 278 c 128,-1,16
 393 255 393 255 393 222.5 c 128,-1,17
 393 190 393 190 370 167 c 128,-1,18
 347 144 347 144 314.5 144 c 128,-1,19
 282 144 282 144 259 167 c 128,-1,20
 236 190 236 190 236 222.5 c 128,-1,21
 236 255 236 255 259 278 c 128,-1,14
 282 301 282 301 314.5 301 c 128,-1,15
220 224 m 1,22,-1
 182 176 l 1,23,-1
 182 212 l 1,24,-1
 125 212 l 1,25,-1
 125 236 l 1,26,-1
 182 236 l 1,27,-1
 182 272 l 1,28,-1
 220 224 l 1,22,-1
405 107 m 1,29,-1
 405 341 l 1,30,-1
 107 341 l 1,31,-1
 107 107 l 1,32,-1
 405 107 l 1,29,-1
341 491 m 1,33,-1
 384 491 l 1,34,-1
 384 448 l 1,35,-1
 405 448 l 2,36,37
 422 448 422 448 435 435 c 128,-1,38
 448 422 448 422 448 405 c 2,39,-1
 448 107 l 2,40,41
 448 90 448 90 435 77 c 128,-1,42
 422 64 422 64 405 64 c 2,43,-1
 107 64 l 2,44,45
 89 64 89 64 76.5 77 c 128,-1,46
 64 90 64 90 64 107 c 2,47,-1
 64 405 l 2,48,49
 64 422 64 422 76.5 435 c 128,-1,50
 89 448 89 448 107 448 c 2,51,-1
 128 448 l 1,52,-1
 128 491 l 1,53,-1
 171 491 l 1,54,-1
 171 448 l 1,55,-1
 341 448 l 1,56,-1
 341 491 l 1,33,-1
EndSplineSet
Validated: 1
EndChar

StartChar: p
Encoding: 112 112 42
Width: 512
Flags: W
LayerCount: 2
Fore
SplineSet
256 264 m 1,0,-1
 257 264 l 2,1,2
 272 264 272 264 282.5 253.5 c 128,-1,3
 293 243 293 243 293 228 c 2,4,-1
 293 226 l 1,5,-1
 256 264 l 1,0,-1
205 254 m 1,6,7
 199 241 199 241 199 228 c 0,8,9
 199 204 199 204 216 187 c 128,-1,10
 233 170 233 170 257 170 c 0,11,12
 270 170 270 170 283 176 c 1,13,-1
 265 194 l 2,14,15
 261 193 261 193 257 193 c 0,16,17
 243 193 243 193 232.5 203.5 c 128,-1,18
 222 214 222 214 222 228 c 0,19,20
 222 232 222 232 223 236 c 2,21,-1
 205 254 l 1,6,7
141 319 m 2,22,-1
 155 334 l 1,23,-1
 363 126 l 1,24,-1
 348 112 l 2,25,26
 345 114 345 114 330.5 128.5 c 128,-1,27
 316 143 316 143 309 151 c 1,28,29
 285 141 285 141 257 141 c 0,30,31
 214 141 214 141 179 165 c 128,-1,32
 144 189 144 189 129 228 c 1,33,34
 135 243 135 243 147.5 260 c 128,-1,35
 160 277 160 277 172 287 c 1,36,37
 166 293 166 293 154 305 c 128,-1,38
 142 317 142 317 141 319 c 2,22,-1
257 287 m 0,39,40
 247 287 247 287 236 283 c 1,41,-1
 211 308 l 1,42,43
 232 316 232 316 257 316 c 0,44,45
 301 316 301 316 336 292 c 128,-1,46
 371 268 371 268 386 228 c 1,47,48
 373 196 373 196 346 173 c 1,49,-1
 312 207 l 1,50,51
 316 217 316 217 316 228 c 0,52,53
 316 253 316 253 299 270 c 128,-1,54
 282 287 282 287 257 287 c 0,39,40
405 107 m 1,55,-1
 405 341 l 1,56,-1
 107 341 l 1,57,-1
 107 107 l 1,58,-1
 405 107 l 1,55,-1
341 491 m 1,59,-1
 384 491 l 1,60,-1
 384 448 l 1,61,-1
 405 448 l 2,62,63
 422 448 422 448 435 435 c 128,-1,64
 448 422 448 422 448 405 c 2,65,-1
 448 107 l 2,66,67
 448 90 448 90 435 77 c 128,-1,68
 422 64 422 64 405 64 c 2,69,-1
 107 64 l 2,70,71
 89 64 89 64 76.5 77 c 128,-1,72
 64 90 64 90 64 107 c 2,73,-1
 64 405 l 2,74,75
 64 422 64 422 76.5 435 c 128,-1,76
 89 448 89 448 107 448 c 2,77,-1
 128 448 l 1,78,-1
 128 491 l 1,79,-1
 171 491 l 1,80,-1
 171 448 l 1,81,-1
 341 448 l 1,82,-1
 341 491 l 1,59,-1
EndSplineSet
Validated: 1
EndChar

StartChar: q
Encoding: 113 113 43
Width: 512
Flags: W
LayerCount: 2
UndoRedoHistory
Layer: 1
Undoes
UndoOperation
Index: 0
Type: 1
WasModified: 0
WasOrder2: 1
Layer: 2
Width: 512
VWidth: 512
LBearingChange: 0
UnicodeEnc: 0
InstructionsLength: 0
SplineSet
288 224 m 0,0,1
 288 210 288 210 278.5 201 c 128,-1,2
 269 192 269 192 256 192 c 256,3,4
 243 192 243 192 233.5 201 c 128,-1,5
 224 210 224 210 224 224 c 0,6,7
 224 237 224 237 233.5 246.5 c 128,-1,8
 243 256 243 256 256 256 c 256,9,10
 269 256 269 256 278.5 246.5 c 128,-1,11
 288 237 288 237 288 224 c 0,0,1
256 309 m 256,12,13
 227 309 227 309 201.5 298 c 128,-1,14
 176 287 176 287 157 268 c 128,-1,15
 138 249 138 249 128 224 c 1,16,17
 138 199 138 199 157 179.5 c 128,-1,18
 176 160 176 160 201.5 149 c 128,-1,19
 227 138 227 138 256 138 c 256,20,21
 285 138 285 138 310.5 149 c 128,-1,22
 336 160 336 160 355 179.5 c 128,-1,23
 374 199 374 199 384 224 c 1,24,25
 374 249 374 249 355 268 c 128,-1,26
 336 287 336 287 310.5 298 c 128,-1,27
 285 309 285 309 256 309 c 256,12,13
256 170 m 256,28,29
 234 170 234 170 218.5 186 c 128,-1,30
 203 202 203 202 203 224 c 256,31,32
 203 246 203 246 218.5 261.5 c 128,-1,33
 234 277 234 277 256 277 c 256,34,35
 278 277 278 277 293.5 261.5 c 128,-1,36
 309 246 309 246 309 224 c 256,37,38
 309 202 309 202 293.5 186 c 128,-1,39
 278 170 278 170 256 170 c 256,28,29
405 107 m 1,40,-1
 405 341 l 1,41,-1
 107 341 l 1,42,-1
 107 107 l 1,43,-1
 405 107 l 1,40,-1
341 491 m 1,44,-1
 384 491 l 1,45,-1
 384 448 l 1,46,-1
 405 448 l 2,47,48
 422 448 422 448 435 435 c 128,-1,49
 448 422 448 422 448 405 c 2,50,-1
 448 107 l 2,51,52
 448 90 448 90 435 77 c 128,-1,53
 422 64 422 64 405 64 c 2,54,-1
 107 64 l 2,55,56
 89 64 89 64 76.5 77 c 128,-1,57
 64 90 64 90 64 107 c 2,58,-1
 64 405 l 2,59,60
 64 422 64 422 76.5 435 c 128,-1,61
 89 448 89 448 107 448 c 2,62,-1
 128 448 l 1,63,-1
 128 491 l 1,64,-1
 171 491 l 1,65,-1
 171 448 l 1,66,-1
 341 448 l 1,67,-1
 341 491 l 1,44,-1
EndSplineSet
EndUndoOperation
EndUndoes
Redoes
EndRedoes
EndUndoRedoHistory
Fore
SplineSet
288 224 m 0,0,1
 288 210 288 210 278.5 201 c 128,-1,2
 269 192 269 192 256 192 c 256,3,4
 243 192 243 192 233.5 201 c 128,-1,5
 224 210 224 210 224 224 c 0,6,7
 224 237 224 237 233.5 246.5 c 128,-1,8
 243 256 243 256 256 256 c 256,9,10
 269 256 269 256 278.5 246.5 c 128,-1,11
 288 237 288 237 288 224 c 0,0,1
256 309 m 256,12,13
 285 309 285 309 310.5 298 c 128,-1,14
 336 287 336 287 355 268 c 128,-1,15
 374 249 374 249 384 224 c 1,16,17
 374 199 374 199 355 179.5 c 128,-1,18
 336 160 336 160 310.5 149 c 128,-1,19
 285 138 285 138 256 138 c 256,20,21
 227 138 227 138 201.5 149 c 128,-1,22
 176 160 176 160 157 179.5 c 128,-1,23
 138 199 138 199 128 224 c 1,24,25
 138 249 138 249 157 268 c 128,-1,26
 176 287 176 287 201.5 298 c 128,-1,27
 227 309 227 309 256 309 c 256,12,13
256 170 m 256,28,29
 278 170 278 170 293.5 186 c 128,-1,30
 309 202 309 202 309 224 c 256,31,32
 309 246 309 246 293.5 261.5 c 128,-1,33
 278 277 278 277 256 277 c 256,34,35
 234 277 234 277 218.5 261.5 c 128,-1,36
 203 246 203 246 203 224 c 256,37,38
 203 202 203 202 218.5 186 c 128,-1,39
 234 170 234 170 256 170 c 256,28,29
405 107 m 1,40,-1
 405 341 l 1,41,-1
 107 341 l 1,42,-1
 107 107 l 1,43,-1
 405 107 l 1,40,-1
341 491 m 1,44,-1
 384 491 l 1,45,-1
 384 448 l 1,46,-1
 405 448 l 2,47,48
 422 448 422 448 435 435 c 128,-1,49
 448 422 448 422 448 405 c 2,50,-1
 448 107 l 2,51,52
 448 90 448 90 435 77 c 128,-1,53
 422 64 422 64 405 64 c 2,54,-1
 107 64 l 2,55,56
 89 64 89 64 76.5 77 c 128,-1,57
 64 90 64 90 64 107 c 2,58,-1
 64 405 l 2,59,60
 64 422 64 422 76.5 435 c 128,-1,61
 89 448 89 448 107 448 c 2,62,-1
 128 448 l 1,63,-1
 128 491 l 1,64,-1
 171 491 l 1,65,-1
 171 448 l 1,66,-1
 341 448 l 1,67,-1
 341 491 l 1,44,-1
EndSplineSet
Validated: 1
EndChar

StartChar: r
Encoding: 114 114 44
Width: 512
Flags: W
LayerCount: 2
UndoRedoHistory
Layer: 1
Undoes
UndoOperation
Index: 0
Type: 1
WasModified: 1
WasOrder2: 1
Layer: 2
Width: 512
VWidth: 512
LBearingChange: 0
UnicodeEnc: 0
InstructionsLength: 0
SplineSet
58 57 m 1050,0,-1
285.71484375 267.79296875 m 5,1,-1
 255.422851562 238.942382812 l 5,2,-1
 226.572265625 267.79296875 l 5,3,-1
 210.705078125 251.924804688 l 5,4,-1
 239.5546875 223.075195312 l 5,5,-1
 210.705078125 194.224609375 l 5,6,-1
 226.572265625 178.357421875 l 5,7,-1
 255.422851562 207.20703125 l 5,8,-1
 285.71484375 178.357421875 l 5,9,-1
 301.58203125 194.224609375 l 5,10,-1
 271.290039062 223.075195312 l 5,11,-1
 301.58203125 251.924804688 l 5,12,-1
 285.71484375 267.79296875 l 5,1,-1
256.143554688 135.08203125 m 4,13,14
 219 135 219 135 194.116210938 161.047851562 c 4,15,16
 169 187 169 187 168.872070312 223.795898438 c 4,17,18
 169 261 169 261 194.116210938 285.82421875 c 4,19,20
 219 311 219 311 256.143554688 311.067382812 c 4,21,22
 293 311 293 311 318.170898438 285.82421875 c 4,23,24
 343 261 343 261 343.415039062 223.795898438 c 4,25,26
 343 187 343 187 318.170898438 161.047851562 c 4,27,28
 293 135 293 135 256.143554688 135.08203125 c 4,13,14
405 107 m 1,29,-1
 405 341 l 1,30,-1
 107 341 l 1,31,-1
 107 107 l 1,32,-1
 405 107 l 1,29,-1
341 491 m 1,33,-1
 384 491 l 1,34,-1
 384 448 l 1,35,-1
 405 448 l 2,36,37
 422 448 422 448 435 435 c 128,-1,38
 448 422 448 422 448 405 c 2,39,-1
 448 107 l 2,40,41
 448 90 448 90 435 77 c 128,-1,42
 422 64 422 64 405 64 c 2,43,-1
 107 64 l 2,44,45
 89 64 89 64 76.5 77 c 128,-1,46
 64 90 64 90 64 107 c 2,47,-1
 64 405 l 2,48,49
 64 422 64 422 76.5 435 c 128,-1,50
 89 448 89 448 107 448 c 2,51,-1
 128 448 l 1,52,-1
 128 491 l 1,53,-1
 171 491 l 1,54,-1
 171 448 l 1,55,-1
 341 448 l 1,56,-1
 341 491 l 1,33,-1
EndSplineSet
EndUndoOperation
EndUndoes
Redoes
EndRedoes
EndUndoRedoHistory
Fore
SplineSet
58 57 m 1050,0,-1
285.71484375 267.79296875 m 5,1,-1
 255.422851562 238.942382812 l 5,2,-1
 226.572265625 267.79296875 l 5,3,-1
 210.705078125 251.924804688 l 5,4,-1
 239.5546875 223.075195312 l 5,5,-1
 210.705078125 194.224609375 l 5,6,-1
 226.572265625 178.357421875 l 5,7,-1
 255.422851562 207.20703125 l 5,8,-1
 285.71484375 178.357421875 l 5,9,-1
 301.58203125 194.224609375 l 5,10,-1
 271.290039062 223.075195312 l 5,11,-1
 301.58203125 251.924804688 l 5,12,-1
 285.71484375 267.79296875 l 5,1,-1
256.143554688 135.08203125 m 132,-1,14
 256.026947498 135.081773724 256.026947498 135.081773724 255.910461135 135.081773724 c 0,15,16
 218.921880694 135.081773724 218.921880694 135.081773724 194.116210938 161.047851562 c 4,17,18
 169 187 169 187 168.872070312 223.795898438 c 4,19,20
 169 261 169 261 194.116210938 285.82421875 c 4,21,22
 219 311 219 311 256.143554688 311.067382812 c 4,23,24
 293 311 293 311 318.170898438 285.82421875 c 4,25,26
 343 261 343 261 343.415039062 223.795898438 c 4,27,28
 343 187 343 187 318.170898438 161.047851562 c 4,29,30
 293.079020648 135.081773724 293.079020648 135.081773724 256.374851218 135.081773724 c 0,31,13
 256.259260537 135.081773724 256.259260537 135.081773724 256.143554688 135.08203125 c 132,-1,14
405 107 m 1,32,-1
 405 341 l 1,33,-1
 107 341 l 1,34,-1
 107 107 l 1,35,-1
 405 107 l 1,32,-1
341 491 m 1,36,-1
 384 491 l 1,37,-1
 384 448 l 1,38,-1
 405 448 l 2,39,40
 422 448 422 448 435 435 c 128,-1,41
 448 422 448 422 448 405 c 2,42,-1
 448 107 l 2,43,44
 448 90 448 90 435 77 c 128,-1,45
 422 64 422 64 405 64 c 2,46,-1
 107 64 l 2,47,48
 89 64 89 64 76.5 77 c 128,-1,49
 64 90 64 90 64 107 c 2,50,-1
 64 405 l 2,51,52
 64 422 64 422 76.5 435 c 128,-1,53
 89 448 89 448 107 448 c 2,54,-1
 128 448 l 1,55,-1
 128 491 l 1,56,-1
 171 491 l 1,57,-1
 171 448 l 1,58,-1
 341 448 l 1,59,-1
 341 491 l 1,36,-1
EndSplineSet
Validated: 1
EndChar

StartChar: s
Encoding: 115 115 45
Width: 512
Flags: W
LayerCount: 2
Fore
SplineSet
341 246 m 1,0,-1
 341 203 l 1,1,-1
 277 203 l 1,2,-1
 277 139 l 1,3,-1
 235 139 l 1,4,-1
 235 203 l 1,5,-1
 171 203 l 1,6,-1
 171 246 l 1,7,-1
 235 246 l 1,8,-1
 235 310 l 1,9,-1
 277 310 l 1,10,-1
 277 246 l 1,11,-1
 341 246 l 1,0,-1
405 107 m 1,12,-1
 405 341 l 1,13,-1
 107 341 l 1,14,-1
 107 107 l 1,15,-1
 405 107 l 1,12,-1
405 448 m 2,16,17
 422 448 422 448 435 435 c 128,-1,18
 448 422 448 422 448 405 c 2,19,-1
 448 107 l 2,20,21
 448 90 448 90 435 77 c 128,-1,22
 422 64 422 64 405 64 c 2,23,-1
 107 64 l 2,24,25
 89 64 89 64 76.5 77 c 128,-1,26
 64 90 64 90 64 107 c 2,27,-1
 64 405 l 2,28,29
 64 422 64 422 76.5 435 c 128,-1,30
 89 448 89 448 107 448 c 2,31,-1
 128 448 l 1,32,-1
 128 491 l 1,33,-1
 171 491 l 1,34,-1
 171 448 l 1,35,-1
 341 448 l 1,36,-1
 341 491 l 1,37,-1
 384 491 l 1,38,-1
 384 448 l 1,39,-1
 405 448 l 2,16,17
EndSplineSet
Validated: 1
EndChar

StartChar: t
Encoding: 116 116 46
Width: 512
Flags: W
LayerCount: 2
Fore
SplineSet
296 317 m 1,0,-1
 335 317 l 1,1,-1
 335 294 l 1,2,-1
 177 294 l 1,3,-1
 177 317 l 1,4,-1
 216 317 l 1,5,-1
 228 328 l 1,6,-1
 284 328 l 1,7,-1
 296 317 l 1,0,-1
216 228 m 1,8,-1
 240 204 l 1,9,-1
 216 180 l 1,10,-1
 232 164 l 1,11,-1
 256 188 l 1,12,-1
 280 164 l 1,13,-1
 296 180 l 1,14,-1
 272 204 l 1,15,-1
 296 228 l 1,16,-1
 280 244 l 1,17,-1
 256 219 l 1,18,-1
 232 244 l 1,19,-1
 216 228 l 1,8,-1
188 147 m 2,20,-1
 188 283 l 1,21,-1
 324 283 l 1,22,-1
 324 147 l 2,23,24
 324 138 324 138 317 131.5 c 128,-1,25
 310 125 310 125 301 125 c 2,26,-1
 211 125 l 2,27,28
 202 125 202 125 195 131.5 c 128,-1,29
 188 138 188 138 188 147 c 2,20,-1
405 107 m 1,30,-1
 405 341 l 1,31,-1
 107 341 l 1,32,-1
 107 107 l 1,33,-1
 405 107 l 1,30,-1
405 448 m 2,34,35
 422 448 422 448 435 435 c 128,-1,36
 448 422 448 422 448 405 c 2,37,-1
 448 107 l 2,38,39
 448 90 448 90 435 77 c 128,-1,40
 422 64 422 64 405 64 c 2,41,-1
 107 64 l 2,42,43
 89 64 89 64 76.5 77 c 128,-1,44
 64 90 64 90 64 107 c 2,45,-1
 64 405 l 2,46,47
 64 422 64 422 76.5 435 c 128,-1,48
 89 448 89 448 107 448 c 2,49,-1
 128 448 l 1,50,-1
 128 491 l 1,51,-1
 171 491 l 1,52,-1
 171 448 l 1,53,-1
 341 448 l 1,54,-1
 341 491 l 1,55,-1
 384 491 l 1,56,-1
 384 448 l 1,57,-1
 405 448 l 2,34,35
EndSplineSet
Validated: 1
EndChar

StartChar: x
Encoding: 120 120 47
Width: 512
Flags: W
LayerCount: 2
UndoRedoHistory
Layer: 1
Undoes
UndoOperation
Index: 0
Type: 3
WasModified: 1
WasOrder2: 1
Layer: 2
EndUndoOperation
EndUndoes
Redoes
EndRedoes
EndUndoRedoHistory
Fore
SplineSet
297.599609375 255.5 m 132,-1,1
 297.599609375 238.599609375 297.599609375 238.599609375 285.25 226.25 c 132,-1,2
 272.900390625 213.900390625 272.900390625 213.900390625 256 213.900390625 c 132,-1,3
 239.099609375 213.900390625 239.099609375 213.900390625 226.75 226.25 c 132,-1,4
 214.400390625 238.599609375 214.400390625 238.599609375 214.400390625 255.5 c 132,-1,5
 214.400390625 272.400390625 214.400390625 272.400390625 226.75 284.75 c 132,-1,6
 239.099609375 297.099609375 239.099609375 297.099609375 256 297.099609375 c 132,-1,7
 272.900390625 297.099609375 272.900390625 297.099609375 285.25 284.75 c 132,-1,0
 297.599609375 272.400390625 297.599609375 272.400390625 297.599609375 255.5 c 132,-1,1
256 469 m 128,-1,9
 344 469 344 469 406.5 406.5 c 128,-1,10
 469 344 469 344 469 256 c 128,-1,11
 469 168 469 168 406.5 105.5 c 128,-1,12
 344 43 344 43 256 43 c 128,-1,13
 168 43 168 43 105.5 105.5 c 128,-1,14
 43 168 43 168 43 256 c 128,-1,15
 43 344 43 344 105.5 406.5 c 128,-1,8
 168 469 168 469 256 469 c 128,-1,9
256 444 m 128,-1,17
 178.34840625 444 178.34840625 444 123.174203125 388.825796875 c 128,-1,18
 68 333.65159375 68 333.65159375 68 256 c 128,-1,19
 68 178.34840625 68 178.34840625 123.174203125 123.174203125 c 128,-1,20
 178.34840625 68 178.34840625 68 256 68 c 128,-1,21
 333.65159375 68 333.65159375 68 388.825796875 123.174203125 c 128,-1,22
 444 178.34840625 444 178.34840625 444 256 c 128,-1,23
 444 333.65159375 444 333.65159375 388.825796875 388.825796875 c 128,-1,16
 333.65159375 444 333.65159375 444 256 444 c 128,-1,17
EndSplineSet
Validated: 1
EndChar

StartChar: y
Encoding: 121 121 48
Width: 512
Flags: W
LayerCount: 2
UndoRedoHistory
Layer: 1
Undoes
UndoOperation
Index: 0
Type: 3
WasModified: 1
WasOrder2: 1
Layer: 2
EndUndoOperation
EndUndoes
Redoes
EndRedoes
EndUndoRedoHistory
Fore
SplineSet
256 469 m 128,-1,1
 344 469 344 469 406.5 406.5 c 128,-1,2
 469 344 469 344 469 256 c 128,-1,3
 469 168 469 168 406.5 105.5 c 128,-1,4
 344 43 344 43 256 43 c 128,-1,5
 168 43 168 43 105.5 105.5 c 128,-1,6
 43 168 43 168 43 256 c 128,-1,7
 43 344 43 344 105.5 406.5 c 128,-1,0
 168 469 168 469 256 469 c 128,-1,1
256 444 m 128,-1,9
 178.34840625 444 178.34840625 444 123.174203125 388.825796875 c 128,-1,10
 68 333.65159375 68 333.65159375 68 256 c 128,-1,11
 68 178.34840625 68 178.34840625 123.174203125 123.174203125 c 128,-1,12
 178.34840625 68 178.34840625 68 256 68 c 128,-1,13
 333.65159375 68 333.65159375 68 388.825796875 123.174203125 c 128,-1,14
 444 178.34840625 444 178.34840625 444 256 c 128,-1,15
 444 333.65159375 444 333.65159375 388.825796875 388.825796875 c 128,-1,8
 333.65159375 444 333.65159375 444 256 444 c 128,-1,9
EndSplineSet
Validated: 1
EndChar

StartChar: z
Encoding: 122 122 49
Width: 512
Flags: W
LayerCount: 2
UndoRedoHistory
Layer: 1
Undoes
UndoOperation
Index: 0
Type: 3
WasModified: 0
WasOrder2: 1
Layer: 2
EndUndoOperation
EndUndoes
Redoes
EndRedoes
EndUndoRedoHistory
Fore
SplineSet
346 346 m 132,-1,1
 362 330 362 330 373 304 c 132,-1,2
 384 278 384 278 384 256 c 132,-1,3
 384 234 384 234 373.5 208 c 132,-1,4
 363 182 363 182 347 166 c 4,5,6
 310 128 310 128 257 128 c 132,-1,7
 204 128 204 128 166 166 c 5,8,-1
 256 256 l 5,9,-1
 256 384 l 5,10,11
 278 384 278 384 304 373 c 132,-1,0
 330 362 330 362 346 346 c 132,-1,1
256 469 m 128,-1,13
 344 469 344 469 406.5 406.5 c 128,-1,14
 469 344 469 344 469 256 c 128,-1,15
 469 168 469 168 406.5 105.5 c 128,-1,16
 344 43 344 43 256 43 c 128,-1,17
 168 43 168 43 105.5 105.5 c 128,-1,18
 43 168 43 168 43 256 c 128,-1,19
 43 344 43 344 105.5 406.5 c 128,-1,12
 168 469 168 469 256 469 c 128,-1,13
256 444 m 128,-1,21
 178.34840625 444 178.34840625 444 123.174203125 388.825796875 c 128,-1,22
 68 333.65159375 68 333.65159375 68 256 c 128,-1,23
 68 178.34840625 68 178.34840625 123.174203125 123.174203125 c 128,-1,24
 178.34840625 68 178.34840625 68 256 68 c 128,-1,25
 333.65159375 68 333.65159375 68 388.825796875 123.174203125 c 128,-1,26
 444 178.34840625 444 178.34840625 444 256 c 128,-1,27
 444 333.65159375 444 333.65159375 388.825796875 388.825796875 c 128,-1,20
 333.65159375 444 333.65159375 444 256 444 c 128,-1,21
EndSplineSet
Validated: 1
EndChar

StartChar: braceleft
Encoding: 123 123 50
Width: 512
Flags: W
LayerCount: 2
UndoRedoHistory
Layer: 1
Undoes
UndoOperation
Index: 0
Type: 3
WasModified: 1
WasOrder2: 1
Layer: 2
EndUndoOperation
EndUndoes
Redoes
EndRedoes
EndUndoRedoHistory
Fore
SplineSet
320 171 m 1,0,-1
 320 341 l 1,1,-1
 277 341 l 1,2,-1
 277 171 l 1,3,-1
 320 171 l 1,0,-1
235 171 m 1,4,-1
 235 341 l 1,5,-1
 192 341 l 1,6,-1
 192 171 l 1,7,-1
 235 171 l 1,4,-1
256 469 m 128,-1,9
 344 469 344 469 406.5 406.5 c 128,-1,10
 469 344 469 344 469 256 c 128,-1,11
 469 168 469 168 406.5 105.5 c 128,-1,12
 344 43 344 43 256 43 c 128,-1,13
 168 43 168 43 105.5 105.5 c 128,-1,14
 43 168 43 168 43 256 c 128,-1,15
 43 344 43 344 105.5 406.5 c 128,-1,8
 168 469 168 469 256 469 c 128,-1,9
EndSplineSet
Validated: 1
EndChar

StartChar: bar
Encoding: 124 124 51
Width: 512
Flags: W
LayerCount: 2
UndoRedoHistory
Layer: 1
Undoes
UndoOperation
Index: 0
Type: 3
WasModified: 1
WasOrder2: 1
Layer: 2
EndUndoOperation
EndUndoes
Redoes
EndRedoes
EndUndoRedoHistory
Fore
SplineSet
213 149 m 1,0,-1
 405 341 l 1,1,-1
 375 372 l 1,2,-1
 213 210 l 1,3,-1
 137 286 l 1,4,-1
 107 256 l 1,5,-1
 213 149 l 1,0,-1
256 469 m 128,-1,7
 344 469 344 469 406.5 406.5 c 128,-1,8
 469 344 469 344 469 256 c 128,-1,9
 469 168 469 168 406.5 105.5 c 128,-1,10
 344 43 344 43 256 43 c 128,-1,11
 168 43 168 43 105.5 105.5 c 128,-1,12
 43 168 43 168 43 256 c 128,-1,13
 43 344 43 344 105.5 406.5 c 128,-1,6
 168 469 168 469 256 469 c 128,-1,7
EndSplineSet
Validated: 1
EndChar

StartChar: braceright
Encoding: 125 125 52
Width: 512
Flags: W
LayerCount: 2
UndoRedoHistory
Layer: 1
Undoes
UndoOperation
Index: 0
Type: 3
WasModified: 1
WasOrder2: 1
Layer: 2
EndUndoOperation
EndUndoes
Redoes
EndRedoes
EndUndoRedoHistory
Fore
SplineSet
363 179 m 1,0,-1
 286 256 l 1,1,-1
 363 333 l 1,2,-1
 333 363 l 1,3,-1
 256 286 l 1,4,-1
 179 363 l 1,5,-1
 149 333 l 1,6,-1
 226 256 l 1,7,-1
 149 179 l 1,8,-1
 179 149 l 1,9,-1
 256 226 l 1,10,-1
 333 149 l 1,11,-1
 363 179 l 1,0,-1
256 469 m 128,-1,13
 344 469 344 469 406.5 406.5 c 128,-1,14
 469 344 469 344 469 256 c 128,-1,15
 469 168 469 168 406.5 105.5 c 128,-1,16
 344 43 344 43 256 43 c 128,-1,17
 168 43 168 43 105.5 105.5 c 128,-1,18
 43 168 43 168 43 256 c 128,-1,19
 43 344 43 344 105.5 406.5 c 128,-1,12
 168 469 168 469 256 469 c 128,-1,13
EndSplineSet
Validated: 1
EndChar

StartChar: asciitilde
Encoding: 126 126 53
Width: 512
Flags: W
LayerCount: 2
UndoRedoHistory
Layer: 1
Undoes
UndoOperation
Index: 0
Type: 1
WasModified: 1
WasOrder2: 1
Layer: 2
Width: 512
VWidth: 512
LBearingChange: 0
UnicodeEnc: 0
InstructionsLength: 0
SplineSet
64 414 m 5,0,-1
 448 414 l 5,1,-1
 448 371 l 5,2,-1
 64 371 l 5,3,-1
 64 414 l 5,0,-1
192 286 m 5,4,-1
 192 329 l 5,5,-1
 448 329 l 5,6,-1
 448 286 l 5,7,-1
 192 286 l 5,4,-1
64 201 m 5,8,-1
 64 243 l 5,9,-1
 448 243 l 5,10,-1
 448 201 l 5,11,-1
 64 201 l 5,8,-1
192 115 m 5,12,-1
 192 158 l 5,13,-1
 448 158 l 5,14,-1
 448 115 l 5,15,-1
 192 115 l 5,12,-1
EndSplineSet
EndUndoOperation
EndUndoes
Redoes
EndRedoes
EndUndoRedoHistory
Fore
SplineSet
64 413 m 5,0,-1
 448 413 l 5,1,-1
 448 370 l 5,2,-1
 64 370 l 5,3,-1
 64 413 l 5,0,-1
192 285 m 5,4,-1
 192 328 l 5,5,-1
 448 328 l 5,6,-1
 448 285 l 5,7,-1
 192 285 l 5,4,-1
64 200 m 5,8,-1
 64 242 l 5,9,-1
 448 242 l 5,10,-1
 448 200 l 5,11,-1
 64 200 l 5,8,-1
192 114 m 5,12,-1
 192 157 l 5,13,-1
 448 157 l 5,14,-1
 448 114 l 5,15,-1
 192 114 l 5,12,-1
EndSplineSet
Validated: 1
EndChar

StartChar: u
Encoding: 117 117 54
Width: 512
Flags: W
LayerCount: 2
UndoRedoHistory
Layer: 1
Undoes
UndoOperation
Index: 0
Type: 1
WasModified: 1
WasOrder2: 1
Layer: 2
Width: 512
VWidth: 512
LBearingChange: 0
UnicodeEnc: 0
InstructionsLength: 0
SplineSet
149 408 m 1,0,-1
 448 408 l 1,1,-1
 448 360 l 1,2,-1
 149 360 l 1,3,-1
 149 408 l 1,0,-1
149 129 m 1,4,-1
 149 177 l 1,5,-1
 448 177 l 1,6,-1
 448 129 l 1,7,-1
 149 129 l 1,4,-1
149 245 m 1,8,-1
 149 292 l 1,9,-1
 448 292 l 1,10,-1
 448 245 l 1,11,-1
 149 245 l 1,8,-1
64 360 m 1,12,-1
 64 408 l 1,13,-1
 112 408 l 1,14,-1
 112 360 l 1,15,-1
 64 360 l 1,12,-1
64 129 m 1,16,-1
 64 177 l 1,17,-1
 111 177 l 5,18,-1
 111 129 l 5,19,-1
 64 129 l 1,16,-1
64 245 m 1,20,-1
 64 292 l 1,21,-1
 112 292 l 1,22,-1
 112 245 l 1,23,-1
 64 245 l 1,20,-1
EndSplineSet
EndUndoOperation
EndUndoes
Redoes
EndRedoes
EndUndoRedoHistory
Fore
SplineSet
149 408 m 1,0,-1
 448 408 l 1,1,-1
 448 360 l 1,2,-1
 149 360 l 1,3,-1
 149 408 l 1,0,-1
149 129 m 1,4,-1
 149 177 l 1,5,-1
 448 177 l 1,6,-1
 448 129 l 1,7,-1
 149 129 l 1,4,-1
149 245 m 1,8,-1
 149 292 l 1,9,-1
 448 292 l 1,10,-1
 448 245 l 1,11,-1
 149 245 l 1,8,-1
64 360 m 1,12,-1
 64 408 l 1,13,-1
 112 408 l 1,14,-1
 112 360 l 1,15,-1
 64 360 l 1,12,-1
64 129 m 1,16,-1
 64 177 l 1,17,-1
 112 177 l 5,18,-1
 112 129 l 5,19,-1
 64 129 l 1,16,-1
64 245 m 1,20,-1
 64 292 l 1,21,-1
 112 292 l 1,22,-1
 112 245 l 1,23,-1
 64 245 l 1,20,-1
EndSplineSet
Validated: 1
EndChar

StartChar: v
Encoding: 118 118 55
Width: 512
Flags: W
LayerCount: 2
UndoRedoHistory
Layer: 1
Undoes
UndoOperation
Index: 0
Type: 1
WasModified: 1
WasOrder2: 1
Layer: 2
Width: 512
VWidth: 512
LBearingChange: 0
UnicodeEnc: 0
InstructionsLength: 0
SplineSet
150 166 m 5,0,-1
 424 166 l 5,1,-1
 424 134 l 5,2,-1
 150 134 l 5,3,-1
 150 166 l 5,0,-1
102.123046875 172.359375 m 4,4,5
 112 172 112 172 117.87109375 166.060546875 c 4,6,7
 124 161 124 161 124.51953125 149.962890625 c 4,8,9
 124.549804688 149.333984375 124.549804688 149.333984375 124.549804688 148.719726562 c 4,10,11
 124.549804688 139.612304688 124.549804688 139.612304688 117.87109375 133.864257812 c 4,12,13
 112 128 112 128 102.123046875 127.565429688 c 4,14,15
 93 128 93 128 86.375 133.864257812 c 4,16,17
 80 140 80 140 79.7255859375 149.962890625 c 4,18,19
 80 160 80 160 86.375 166.060546875 c 4,20,21
 93 172 93 172 102.123046875 172.359375 c 4,4,5
150 216 m 1,22,-1
 424 216 l 1,23,-1
 424 184 l 1,24,-1
 150 184 l 1,25,-1
 150 216 l 1,22,-1
102.123046875 222.359375 m 0,26,27
 112 222 112 222 117.87109375 216.060546875 c 0,28,29
 124 211 124 211 124.51953125 199.962890625 c 0,30,31
 124.549868856 199.333816936 124.549868856 199.333816936 124.549868856 198.720001598 c 0,32,33
 124.549868856 189.612578907 124.549868856 189.612578907 117.87109375 183.864257812 c 0,34,35
 112 178 112 178 102.123046875 177.565429688 c 0,36,37
 93 178 93 178 86.375 183.864257812 c 0,38,39
 80 190 80 190 79.7255859375 199.962890625 c 0,40,41
 80 210 80 210 86.375 216.060546875 c 0,42,43
 93 222 93 222 102.123046875 222.359375 c 0,26,27
150 276 m 1,44,-1
 424 276 l 1,45,-1
 424 244 l 1,46,-1
 150 244 l 1,47,-1
 150 276 l 1,44,-1
102.123046875 282.359375 m 0,48,49
 112 282 112 282 117.87109375 276.060546875 c 0,50,51
 124 271 124 271 124.51953125 259.962890625 c 0,52,53
 124.549868856 259.333816936 124.549868856 259.333816936 124.549868856 258.720001598 c 0,54,55
 124.549868856 249.612578907 124.549868856 249.612578907 117.87109375 243.864257812 c 0,56,57
 112 238 112 238 102.123046875 237.565429688 c 0,58,59
 93 238 93 238 86.375 243.864257812 c 0,60,61
 80 250 80 250 79.7255859375 259.962890625 c 0,62,63
 80 270 80 270 86.375 276.060546875 c 0,64,65
 93 282 93 282 102.123046875 282.359375 c 0,48,49
150 336 m 1,66,-1
 424 336 l 1,67,-1
 424 304 l 1,68,-1
 150 304 l 1,69,-1
 150 336 l 1,66,-1
102.123046875 342.359375 m 0,70,71
 112 342 112 342 117.87109375 336.060546875 c 0,72,73
 124 331 124 331 124.51953125 319.962890625 c 0,74,75
 124.549868856 319.333816936 124.549868856 319.333816936 124.549868856 318.720001598 c 0,76,77
 124.549868856 309.612578907 124.549868856 309.612578907 117.87109375 303.864257812 c 0,78,79
 112 298 112 298 102.123046875 297.565429688 c 0,80,81
 93 298 93 298 86.375 303.864257812 c 0,82,83
 80 310 80 310 79.7255859375 319.962890625 c 0,84,85
 80 330 80 330 86.375 336.060546875 c 0,86,87
 93 342 93 342 102.123046875 342.359375 c 0,70,71
150 396 m 1,88,-1
 424 396 l 1,89,-1
 424 364 l 1,90,-1
 150 364 l 1,91,-1
 150 396 l 1,88,-1
102.123046875 402.359375 m 0,92,93
 112 402 112 402 117.87109375 396.060546875 c 0,94,95
 124 391 124 391 124.51953125 379.962890625 c 0,96,97
 124.549868856 379.333816936 124.549868856 379.333816936 124.549868856 378.720001598 c 0,98,99
 124.549868856 369.612578907 124.549868856 369.612578907 117.87109375 363.864257812 c 0,100,101
 112 358 112 358 102.123046875 357.565429688 c 0,102,103
 93 358 93 358 86.375 363.864257812 c 0,104,105
 80 370 80 370 79.7255859375 379.962890625 c 0,106,107
 80 390 80 390 86.375 396.060546875 c 0,108,109
 93 402 93 402 102.123046875 402.359375 c 0,92,93
EndSplineSet
EndUndoOperation
EndUndoes
Redoes
EndRedoes
EndUndoRedoHistory
Fore
SplineSet
150 156 m 5,0,-1
 424 156 l 5,1,-1
 424 124 l 5,2,-1
 150 124 l 5,3,-1
 150 156 l 5,0,-1
102.123046875 162.359375 m 4,4,5
 112 162 112 162 117.87109375 156.060546875 c 4,6,7
 124 151 124 151 124.51953125 139.962890625 c 4,8,9
 124.549804688 139.333984375 124.549804688 139.333984375 124.549804688 138.719726562 c 4,10,11
 124.549804688 129.612304688 124.549804688 129.612304688 117.87109375 123.864257812 c 4,12,13
 112 118 112 118 102.123046875 117.565429688 c 4,14,15
 93 118 93 118 86.375 123.864257812 c 4,16,17
 80 130 80 130 79.7255859375 139.962890625 c 4,18,19
 80 150 80 150 86.375 156.060546875 c 4,20,21
 93 162 93 162 102.123046875 162.359375 c 4,4,5
150 216 m 1,22,-1
 424 216 l 1,23,-1
 424 184 l 1,24,-1
 150 184 l 1,25,-1
 150 216 l 1,22,-1
102.123046875 222.359375 m 0,26,27
 112 222 112 222 117.87109375 216.060546875 c 0,28,29
 124 211 124 211 124.51953125 199.962890625 c 0,30,31
 124.549868856 199.333816936 124.549868856 199.333816936 124.549868856 198.720001598 c 0,32,33
 124.549868856 189.612578907 124.549868856 189.612578907 117.87109375 183.864257812 c 0,34,35
 112 178 112 178 102.123046875 177.565429688 c 0,36,37
 93 178 93 178 86.375 183.864257812 c 0,38,39
 80 190 80 190 79.7255859375 199.962890625 c 0,40,41
 80 210 80 210 86.375 216.060546875 c 0,42,43
 93 222 93 222 102.123046875 222.359375 c 0,26,27
150 276 m 1,44,-1
 424 276 l 1,45,-1
 424 244 l 1,46,-1
 150 244 l 1,47,-1
 150 276 l 1,44,-1
102.123046875 282.359375 m 0,48,49
 112 282 112 282 117.87109375 276.060546875 c 0,50,51
 124 271 124 271 124.51953125 259.962890625 c 0,52,53
 124.549868856 259.333816936 124.549868856 259.333816936 124.549868856 258.720001598 c 0,54,55
 124.549868856 249.612578907 124.549868856 249.612578907 117.87109375 243.864257812 c 0,56,57
 112 238 112 238 102.123046875 237.565429688 c 0,58,59
 93 238 93 238 86.375 243.864257812 c 0,60,61
 80 250 80 250 79.7255859375 259.962890625 c 0,62,63
 80 270 80 270 86.375 276.060546875 c 0,64,65
 93 282 93 282 102.123046875 282.359375 c 0,48,49
150 336 m 1,66,-1
 424 336 l 1,67,-1
 424 304 l 1,68,-1
 150 304 l 1,69,-1
 150 336 l 1,66,-1
102.123046875 342.359375 m 0,70,71
 112 342 112 342 117.87109375 336.060546875 c 0,72,73
 124 331 124 331 124.51953125 319.962890625 c 0,74,75
 124.549868856 319.333816936 124.549868856 319.333816936 124.549868856 318.720001598 c 0,76,77
 124.549868856 309.612578907 124.549868856 309.612578907 117.87109375 303.864257812 c 0,78,79
 112 298 112 298 102.123046875 297.565429688 c 0,80,81
 93 298 93 298 86.375 303.864257812 c 0,82,83
 80 310 80 310 79.7255859375 319.962890625 c 0,84,85
 80 330 80 330 86.375 336.060546875 c 0,86,87
 93 342 93 342 102.123046875 342.359375 c 0,70,71
150 396 m 1,88,-1
 424 396 l 1,89,-1
 424 364 l 1,90,-1
 150 364 l 1,91,-1
 150 396 l 1,88,-1
102.123046875 402.359375 m 0,92,93
 112 402 112 402 117.87109375 396.060546875 c 0,94,95
 124 391 124 391 124.51953125 379.962890625 c 0,96,97
 124.549868856 379.333816936 124.549868856 379.333816936 124.549868856 378.720001598 c 0,98,99
 124.549868856 369.612578907 124.549868856 369.612578907 117.87109375 363.864257812 c 0,100,101
 112 358 112 358 102.123046875 357.565429688 c 0,102,103
 93 358 93 358 86.375 363.864257812 c 0,104,105
 80 370 80 370 79.7255859375 379.962890625 c 0,106,107
 80 390 80 390 86.375 396.060546875 c 0,108,109
 93 402 93 402 102.123046875 402.359375 c 0,92,93
EndSplineSet
Validated: 2049
EndChar

StartChar: w
Encoding: 119 119 56
Width: 512
Flags: W
LayerCount: 2
UndoRedoHistory
Layer: 1
Undoes
UndoOperation
Index: 0
Type: 1
WasModified: 0
WasOrder2: 1
Layer: 2
Width: 512
VWidth: 512
LBearingChange: 0
UnicodeEnc: 0
InstructionsLength: 0
SplineSet
277 233 m 5,0,-1
 277 340 l 5,1,-1
 235 340 l 5,2,-1
 235 233 l 5,3,-1
 277 233 l 5,0,-1
277 148 m 5,4,-1
 277 191 l 5,5,-1
 235 191 l 5,6,-1
 235 148 l 5,7,-1
 277 148 l 5,4,-1
405 85 m 1,8,-1
 405 427 l 1,9,-1
 363 427 l 1,10,-1
 363 407 l 1,11,-1
 149 407 l 1,12,-1
 149 427 l 1,13,-1
 107 427 l 1,14,-1
 107 85 l 1,15,-1
 405 85 l 1,8,-1
256 469 m 128,-1,17
 247 469 247 469 241 463 c 128,-1,18
 235 457 235 457 235 448 c 128,-1,19
 235 439 235 439 241 433 c 128,-1,20
 247 427 247 427 256 427 c 128,-1,21
 265 427 265 427 271 433 c 128,-1,22
 277 439 277 439 277 448 c 128,-1,23
 277 457 277 457 271 463 c 128,-1,16
 265 469 265 469 256 469 c 128,-1,17
405 469 m 2,24,25
 422 469 422 469 435 456.5 c 128,-1,26
 448 444 448 444 448 427 c 2,27,-1
 448 85 l 2,28,29
 448 68 448 68 435 55.5 c 128,-1,30
 422 43 422 43 405 43 c 2,31,-1
 107 43 l 2,32,33
 90 43 90 43 77 55.5 c 128,-1,34
 64 68 64 68 64 85 c 2,35,-1
 64 427 l 2,36,37
 64 444 64 444 77 456.5 c 128,-1,38
 90 469 90 469 107 469 c 2,39,-1
 196 469 l 1,40,41
 203 488 203 488 219 500 c 128,-1,42
 235 512 235 512 256 512 c 128,-1,43
 277 512 277 512 293 500 c 128,-1,44
 309 488 309 488 316 469 c 1,45,-1
 405 469 l 2,24,25
EndSplineSet
EndUndoOperation
EndUndoes
Redoes
EndRedoes
EndUndoRedoHistory
Fore
SplineSet
277 233 m 5,0,-1
 235 233 l 5,1,-1
 235 340 l 5,2,-1
 277 340 l 5,3,-1
 277 233 l 5,0,-1
277 148 m 5,4,-1
 235 148 l 5,5,-1
 235 191 l 5,6,-1
 277 191 l 5,7,-1
 277 148 l 5,4,-1
405 85 m 1,8,-1
 405 427 l 1,9,-1
 363 427 l 1,10,-1
 363 407 l 1,11,-1
 149 407 l 1,12,-1
 149 427 l 1,13,-1
 107 427 l 1,14,-1
 107 85 l 1,15,-1
 405 85 l 1,8,-1
256 469 m 128,-1,17
 247 469 247 469 241 463 c 128,-1,18
 235 457 235 457 235 448 c 128,-1,19
 235 439 235 439 241 433 c 128,-1,20
 247 427 247 427 256 427 c 128,-1,21
 265 427 265 427 271 433 c 128,-1,22
 277 439 277 439 277 448 c 128,-1,23
 277 457 277 457 271 463 c 128,-1,16
 265 469 265 469 256 469 c 128,-1,17
405 469 m 2,24,25
 422 469 422 469 435 456.5 c 128,-1,26
 448 444 448 444 448 427 c 2,27,-1
 448 85 l 2,28,29
 448 68 448 68 435 55.5 c 128,-1,30
 422 43 422 43 405 43 c 2,31,-1
 107 43 l 2,32,33
 90 43 90 43 77 55.5 c 128,-1,34
 64 68 64 68 64 85 c 2,35,-1
 64 427 l 2,36,37
 64 444 64 444 77 456.5 c 128,-1,38
 90 469 90 469 107 469 c 2,39,-1
 196 469 l 1,40,41
 203 488 203 488 219 500 c 128,-1,42
 235 512 235 512 256 512 c 128,-1,43
 277 512 277 512 293 500 c 128,-1,44
 309 488 309 488 316 469 c 1,45,-1
 405 469 l 2,24,25
EndSplineSet
Validated: 1
EndChar

StartChar: w
Encoding: 119 119 57
Width: 512
Flags: W
LayerCount: 2
UndoRedoHistory
Layer: 1
Undoes
UndoOperation
Index: 0
Type: 1
WasModified: 1
WasOrder2: 1
Layer: 2
Width: 512
VWidth: 512
LBearingChange: 0
UnicodeEnc: 0
InstructionsLength: 0
SplineSet
277 233 m 5,0,-1
 277 340 l 5,1,-1
 235 340 l 5,2,-1
 235 233 l 5,3,-1
 277 233 l 5,0,-1
277 148 m 5,4,-1
 277 191 l 5,5,-1
 235 191 l 5,6,-1
 235 148 l 5,7,-1
 277 148 l 5,4,-1
405 85 m 1,8,-1
 405 427 l 1,9,-1
 363 427 l 1,10,-1
 363 407 l 1,11,-1
 149 407 l 1,12,-1
 149 427 l 1,13,-1
 107 427 l 1,14,-1
 107 85 l 1,15,-1
 405 85 l 1,8,-1
256 469 m 128,-1,17
 247 469 247 469 241 463 c 128,-1,18
 235 457 235 457 235 448 c 128,-1,19
 235 439 235 439 241 433 c 128,-1,20
 247 427 247 427 256 427 c 128,-1,21
 265 427 265 427 271 433 c 128,-1,22
 277 439 277 439 277 448 c 128,-1,23
 277 457 277 457 271 463 c 128,-1,16
 265 469 265 469 256 469 c 128,-1,17
405 469 m 2,24,25
 422 469 422 469 435 456.5 c 128,-1,26
 448 444 448 444 448 427 c 2,27,-1
 448 85 l 2,28,29
 448 68 448 68 435 55.5 c 128,-1,30
 422 43 422 43 405 43 c 2,31,-1
 107 43 l 2,32,33
 90 43 90 43 77 55.5 c 128,-1,34
 64 68 64 68 64 85 c 2,35,-1
 64 427 l 2,36,37
 64 444 64 444 77 456.5 c 128,-1,38
 90 469 90 469 107 469 c 2,39,-1
 196 469 l 1,40,41
 203 488 203 488 219 500 c 128,-1,42
 235 512 235 512 256 512 c 128,-1,43
 277 512 277 512 293 500 c 128,-1,44
 309 488 309 488 316 469 c 1,45,-1
 405 469 l 2,24,25
EndSplineSet
EndUndoOperation
EndUndoes
Redoes
EndRedoes
EndUndoRedoHistory
Fore
SplineSet
277 233 m 5,0,-1
 235 233 l 5,1,-1
 235 340 l 5,2,-1
 277 340 l 5,3,-1
 277 233 l 5,0,-1
277 148 m 5,4,-1
 235 148 l 5,5,-1
 235 191 l 5,6,-1
 277 191 l 5,7,-1
 277 148 l 5,4,-1
405 85 m 1,8,-1
 405 427 l 1,9,-1
 363 427 l 1,10,-1
 363 407 l 1,11,-1
 149 407 l 1,12,-1
 149 427 l 1,13,-1
 107 427 l 1,14,-1
 107 85 l 1,15,-1
 405 85 l 1,8,-1
256 469 m 128,-1,17
 247 469 247 469 241 463 c 128,-1,18
 235 457 235 457 235 448 c 128,-1,19
 235 439 235 439 241 433 c 128,-1,20
 247 427 247 427 256 427 c 128,-1,21
 265 427 265 427 271 433 c 128,-1,22
 277 439 277 439 277 448 c 128,-1,23
 277 457 277 457 271 463 c 128,-1,16
 265 469 265 469 256 469 c 128,-1,17
405 469 m 2,24,25
 422 469 422 469 435 456.5 c 128,-1,26
 448 444 448 444 448 427 c 2,27,-1
 448 85 l 2,28,29
 448 68 448 68 435 55.5 c 128,-1,30
 422 43 422 43 405 43 c 2,31,-1
 107 43 l 2,32,33
 90 43 90 43 77 55.5 c 128,-1,34
 64 68 64 68 64 85 c 2,35,-1
 64 427 l 2,36,37
 64 444 64 444 77 456.5 c 128,-1,38
 90 469 90 469 107 469 c 2,39,-1
 196 469 l 1,40,41
 203 488 203 488 219 500 c 128,-1,42
 235 512 235 512 256 512 c 128,-1,43
 277 512 277 512 293 500 c 128,-1,44
 309 488 309 488 316 469 c 1,45,-1
 405 469 l 2,24,25
EndSplineSet
Validated: 1
EndChar

StartChar: d
Encoding: 100 100 58
Width: 512
Flags: W
HStem: 64 20<84 135.721> 428 20<371.353 382.699>
VStem: 64 20<84 135.721> 428 20<366.454 382.647>
LayerCount: 2
UndoRedoHistory
Layer: 1
Undoes
UndoOperation
Index: 0
Type: 12
WasModified: 1
WasOrder2: 0
Layer: 0
EndUndoOperation
EndUndoes
Redoes
EndRedoes
EndUndoRedoHistory
Fore
SplineSet
442 362 m 2,0,-1
 403 323 l 1,1,-1
 323 403 l 1,2,-1
 362 442 l 2,3,4
 368 448 368 448 377 448 c 128,-1,5
 386 448 386 448 392 442 c 2,6,-1
 442 392 l 2,7,8
 448 386 448 386 448 377 c 128,-1,9
 448 368 448 368 442 362 c 2,0,-1
64 144 m 5,10,-1
 300 380 l 5,11,-1
 380 300 l 5,12,-1
 144 64 l 5,13,-1
 64 64 l 5,14,-1
 64 144 l 5,10,-1
84 84 m 1,15,-1
 135.721275 84 l 1,16,-1
 351.721275 300 l 1,17,-1
 300 351.721275 l 1,18,-1
 84 135.721275 l 1,19,-1
 84 84 l 1,15,-1
427.936443761 377.7816736 m 2,20,-1
 377.8606375 427.8606375 l 2,21,22
 377.877683792 427.877683792 377.877683792 427.877683792 377.877683792 427.892645047 c 128,-1,23
 377.877683792 428 377.877683792 428 377.181005567 428 c 128,-1,24
 376.484327342 428 376.484327342 428 376.2183264 427.936443761 c 2,25,-1
 351.278725 403 l 1,26,-1
 403 351.278725 l 1,27,-1
 427.8606375 376.1393625 l 2,28,29
 428 376.122316208 428 376.122316208 428 376.818994433 c 128,-1,30
 428 377.515672658 428 377.515672658 427.936443761 377.7816736 c 2,20,-1
EndSplineSet
Validated: 1
EndChar

StartChar: e
Encoding: 101 101 59
Width: 512
Flags: W
LayerCount: 2
UndoRedoHistory
Layer: 1
Undoes
UndoOperation
Index: 0
Type: 1
WasModified: 1
WasOrder2: 1
Layer: 2
Width: 512
VWidth: 512
LBearingChange: 0
UnicodeEnc: 0
InstructionsLength: 0
SplineSet
213 228 m 5,0,-1
 171 228 l 5,1,-1
 256 143 l 5,2,-1
 341 228 l 5,3,-1
 299 228 l 5,4,-1
 299 313 l 5,5,-1
 213 313 l 5,6,-1
 213 228 l 5,0,-1
405 85 m 1,7,-1
 405 427 l 1,8,-1
 363 427 l 1,9,-1
 363 407 l 1,10,-1
 149 407 l 1,11,-1
 149 427 l 1,12,-1
 107 427 l 1,13,-1
 107 85 l 1,14,-1
 405 85 l 1,7,-1
256 469 m 128,-1,16
 247 469 247 469 241 463 c 128,-1,17
 235 457 235 457 235 448 c 128,-1,18
 235 439 235 439 241 433 c 128,-1,19
 247 427 247 427 256 427 c 128,-1,20
 265 427 265 427 271 433 c 128,-1,21
 277 439 277 439 277 448 c 128,-1,22
 277 457 277 457 271 463 c 128,-1,15
 265 469 265 469 256 469 c 128,-1,16
405 469 m 2,23,24
 422 469 422 469 435 456.5 c 128,-1,25
 448 444 448 444 448 427 c 2,26,-1
 448 85 l 2,27,28
 448 68 448 68 435 55.5 c 128,-1,29
 422 43 422 43 405 43 c 2,30,-1
 107 43 l 2,31,32
 90 43 90 43 77 55.5 c 128,-1,33
 64 68 64 68 64 85 c 2,34,-1
 64 427 l 2,35,36
 64 444 64 444 77 456.5 c 128,-1,37
 90 469 90 469 107 469 c 2,38,-1
 196 469 l 1,39,40
 203 488 203 488 219 500 c 128,-1,41
 235 512 235 512 256 512 c 128,-1,42
 277 512 277 512 293 500 c 128,-1,43
 309 488 309 488 316 469 c 1,44,-1
 405 469 l 2,23,24
EndSplineSet
EndUndoOperation
EndUndoes
Redoes
EndRedoes
EndUndoRedoHistory
Fore
SplineSet
213 238 m 5,0,-1
 171 238 l 5,1,-1
 256 153 l 5,2,-1
 341 238 l 5,3,-1
 299 238 l 5,4,-1
 299 323 l 5,5,-1
 213 323 l 5,6,-1
 213 238 l 5,0,-1
405 85 m 1,7,-1
 405 427 l 1,8,-1
 363 427 l 1,9,-1
 363 407 l 1,10,-1
 149 407 l 1,11,-1
 149 427 l 1,12,-1
 107 427 l 1,13,-1
 107 85 l 1,14,-1
 405 85 l 1,7,-1
256 469 m 128,-1,16
 247 469 247 469 241 463 c 128,-1,17
 235 457 235 457 235 448 c 128,-1,18
 235 439 235 439 241 433 c 128,-1,19
 247 427 247 427 256 427 c 128,-1,20
 265 427 265 427 271 433 c 128,-1,21
 277 439 277 439 277 448 c 128,-1,22
 277 457 277 457 271 463 c 128,-1,15
 265 469 265 469 256 469 c 128,-1,16
405 469 m 2,23,24
 422 469 422 469 435 456.5 c 128,-1,25
 448 444 448 444 448 427 c 2,26,-1
 448 85 l 2,27,28
 448 68 448 68 435 55.5 c 128,-1,29
 422 43 422 43 405 43 c 2,30,-1
 107 43 l 2,31,32
 90 43 90 43 77 55.5 c 128,-1,33
 64 68 64 68 64 85 c 2,34,-1
 64 427 l 2,35,36
 64 444 64 444 77 456.5 c 128,-1,37
 90 469 90 469 107 469 c 2,38,-1
 196 469 l 1,39,40
 203 488 203 488 219 500 c 128,-1,41
 235 512 235 512 256 512 c 128,-1,42
 277 512 277 512 293 500 c 128,-1,43
 309 488 309 488 316 469 c 1,44,-1
 405 469 l 2,23,24
EndSplineSet
Validated: 9
EndChar

StartChar: R
Encoding: 82 82 60
Width: 512
Flags: W
LayerCount: 2
UndoRedoHistory
Layer: 1
Undoes
UndoOperation
Index: 0
Type: 3
WasModified: 1
WasOrder2: 1
Layer: 2
EndUndoOperation
EndUndoes
Redoes
EndRedoes
EndUndoRedoHistory
Fore
SplineSet
277 171 m 5,0,-1
 277 341 l 5,1,-1
 320 341 l 5,2,-1
 320 171 l 5,3,-1
 277 171 l 5,0,-1
192 171 m 5,4,-1
 192 341 l 5,5,-1
 235 341 l 5,6,-1
 235 171 l 5,7,-1
 192 171 l 5,4,-1
405 107 m 1,8,-1
 405 405 l 1,9,-1
 107 405 l 1,10,-1
 107 107 l 1,11,-1
 405 107 l 1,8,-1
405 448 m 2,12,13
 422 448 422 448 435 435 c 128,-1,14
 448 422 448 422 448 405 c 2,15,-1
 448 107 l 2,16,17
 448 90 448 90 435 77 c 128,-1,18
 422 64 422 64 405 64 c 2,19,-1
 107 64 l 2,20,21
 90 64 90 64 77 77 c 128,-1,22
 64 90 64 90 64 107 c 2,23,-1
 64 405 l 2,24,25
 64 422 64 422 77 435 c 128,-1,26
 90 448 90 448 107 448 c 2,27,-1
 405 448 l 2,12,13
EndSplineSet
Validated: 1
EndChar

StartChar: T
Encoding: 84 84 61
Width: 512
Flags: W
LayerCount: 2
UndoRedoHistory
Layer: 1
Undoes
UndoOperation
Index: 0
Type: 1
WasModified: 1
WasOrder2: 1
Layer: 2
Width: 512
VWidth: 512
LBearingChange: 0
UnicodeEnc: 0
InstructionsLength: 0
SplineSet
321 449 m 5,0,-1
 65 449 l 5,1,-1
 65 193 l 5,2,-1
 321 193 l 5,3,-1
 321 449 l 5,0,-1
435.455078125 489.9609375 m 2,4,5
 457.038394322 489.9609375 457.038394322 489.9609375 472.20703125 474.528320312 c 0,6,7
 487.26953125 457.69885025 487.26953125 457.69885025 487.26953125 437.405273438 c 2,8,-1
 487.26953125 78.3154296875 l 2,9,10
 487 57 487 57 472.20703125 41.5625 c 0,11,12
 457.488579317 26.5 457.488579317 26.5 435.455078125 26.5 c 2,13,-1
 76.365234375 26.5 l 2,14,15
 55 26 55 26 39.6123046875 41.5625 c 0,16,17
 24.5498046875 57.4756190269 24.5498046875 57.4756190269 24.5498046875 78.3154296875 c 2,18,-1
 24.5498046875 437.405273438 l 2,19,20
 25.046546013 460.129303402 25.046546013 460.129303402 39.6123046875 474.528320312 c 0,21,22
 54.9611495416 489.9609375 54.9611495416 489.9609375 76.365234375 489.9609375 c 2,23,-1
 435.455078125 489.9609375 l 2,4,5
435.455078125 469.9609375 m 2,24,-1
 76.365234375 469.9609375 l 2,25,26
 63.271792876 469.9609375 63.271792876 469.9609375 54.095245638 460.809295444 c 128,-1,27
 44.9186984 451.657653388 44.9186984 451.657653388 44.5498046875 437.165898037 c 2,28,-1
 44.5498046875 78.3154296875 l 2,29,30
 44.5498046875 65.5182892198 44.5498046875 65.5182892198 53.9858454292 55.46617422 c 0,31,32
 63.0237314177 46.407552484 63.0237314177 46.407552484 73.1429279273 46.407552484 c 0,33,34
 74.082163286 46.407552484 74.082163286 46.407552484 74.7707991878 46.4459941408 c 128,-1,35
 75.4594350895 46.4844357977 75.4594350895 46.4844357977 75.8892828671 46.4944360895 c 2,36,-1
 435.455078125 46.5 l 2,37,38
 449.074109587 46.5 449.074109587 46.5 458.071839717 55.8006028592 c 128,-1,39
 467.069569846 65.1012057184 467.069569846 65.1012057184 467.26953125 78.4550843446 c 2,40,-1
 467.26953125 437.405273438 l 2,41,42
 467.26953125 449.885889282 467.26953125 449.885889282 457.619419267 460.840706716 c 0,43,44
 448.47664222 469.9609375 448.47664222 469.9609375 435.455078125 469.9609375 c 2,24,-1
EndSplineSet
EndUndoOperation
EndUndoes
Redoes
EndRedoes
EndUndoRedoHistory
Fore
SplineSet
321 450 m 5,0,-1
 65 450 l 5,1,-1
 65 194 l 5,2,-1
 321 194 l 5,3,-1
 321 450 l 5,0,-1
435.455078125 489.9609375 m 2,4,5
 457.038394322 489.9609375 457.038394322 489.9609375 472.20703125 474.528320312 c 0,6,7
 487.26953125 457.69885025 487.26953125 457.69885025 487.26953125 437.405273438 c 2,8,-1
 487.26953125 78.3154296875 l 2,9,10
 487 57 487 57 472.20703125 41.5625 c 0,11,12
 457.488579317 26.5 457.488579317 26.5 435.455078125 26.5 c 2,13,-1
 76.365234375 26.5 l 2,14,15
 55 26 55 26 39.6123046875 41.5625 c 0,16,17
 24.5498046875 57.4756190269 24.5498046875 57.4756190269 24.5498046875 78.3154296875 c 2,18,-1
 24.5498046875 437.405273438 l 2,19,20
 25.046546013 460.129303402 25.046546013 460.129303402 39.6123046875 474.528320312 c 0,21,22
 54.9611495416 489.9609375 54.9611495416 489.9609375 76.365234375 489.9609375 c 2,23,-1
 435.455078125 489.9609375 l 2,4,5
435.455078125 469.9609375 m 2,24,-1
 76.365234375 469.9609375 l 2,25,26
 63.271792876 469.9609375 63.271792876 469.9609375 54.095245638 460.809295444 c 128,-1,27
 44.9186984 451.657653388 44.9186984 451.657653388 44.5498046875 437.165898037 c 2,28,-1
 44.5498046875 78.3154296875 l 2,29,30
 44.5498046875 65.5182892198 44.5498046875 65.5182892198 53.9858454292 55.46617422 c 0,31,32
 63.0237314177 46.407552484 63.0237314177 46.407552484 73.1429279273 46.407552484 c 0,33,34
 74.082163286 46.407552484 74.082163286 46.407552484 74.7707991878 46.4459941408 c 128,-1,35
 75.4594350895 46.4844357977 75.4594350895 46.4844357977 75.8892828671 46.4944360895 c 2,36,-1
 435.455078125 46.5 l 2,37,38
 449.074109587 46.5 449.074109587 46.5 458.071839717 55.8006028592 c 128,-1,39
 467.069569846 65.1012057184 467.069569846 65.1012057184 467.26953125 78.4550843446 c 2,40,-1
 467.26953125 437.405273438 l 2,41,42
 467.26953125 449.885889282 467.26953125 449.885889282 457.619419267 460.840706716 c 0,43,44
 448.47664222 469.9609375 448.47664222 469.9609375 435.455078125 469.9609375 c 2,24,-1
EndSplineSet
Validated: 41
EndChar

StartChar: U
Encoding: 85 85 62
Width: 512
Flags: W
LayerCount: 2
UndoRedoHistory
Layer: 1
Undoes
UndoOperation
Index: 0
Type: 1
WasModified: 1
WasOrder2: 1
Layer: 2
Width: 512
VWidth: 512
LBearingChange: 0
UnicodeEnc: 0
InstructionsLength: 0
SplineSet
448 450 m 5,0,-1
 242 450 l 5,1,-1
 242 244 l 5,2,-1
 448 244 l 5,3,-1
 448 450 l 5,0,-1
435.455078125 489.9609375 m 2,4,5
 457.038394322 489.9609375 457.038394322 489.9609375 472.20703125 474.528320312 c 0,6,7
 487.26953125 457.69885025 487.26953125 457.69885025 487.26953125 437.405273438 c 2,8,-1
 487.26953125 78.3154296875 l 2,9,10
 487 57 487 57 472.20703125 41.5625 c 0,11,12
 457.488579317 26.5 457.488579317 26.5 435.455078125 26.5 c 2,13,-1
 76.365234375 26.5 l 2,14,15
 55 26 55 26 39.6123046875 41.5625 c 0,16,17
 24.5498046875 57.4756190269 24.5498046875 57.4756190269 24.5498046875 78.3154296875 c 2,18,-1
 24.5498046875 437.405273438 l 2,19,20
 25.046546013 460.129303402 25.046546013 460.129303402 39.6123046875 474.528320312 c 0,21,22
 54.9611495416 489.9609375 54.9611495416 489.9609375 76.365234375 489.9609375 c 2,23,-1
 435.455078125 489.9609375 l 2,4,5
435.455078125 469.9609375 m 2,24,-1
 76.365234375 469.9609375 l 2,25,26
 63.271792876 469.9609375 63.271792876 469.9609375 54.095245638 460.809295444 c 128,-1,27
 44.9186984 451.657653388 44.9186984 451.657653388 44.5498046875 437.165898037 c 2,28,-1
 44.5498046875 78.3154296875 l 2,29,30
 44.5498046875 65.5182892198 44.5498046875 65.5182892198 53.9858454292 55.46617422 c 0,31,32
 63.0237314177 46.407552484 63.0237314177 46.407552484 73.1429279273 46.407552484 c 0,33,34
 74.082163286 46.407552484 74.082163286 46.407552484 74.7707991878 46.4459941408 c 128,-1,35
 75.4594350895 46.4844357977 75.4594350895 46.4844357977 75.8892828671 46.4944360895 c 2,36,-1
 435.455078125 46.5 l 2,37,38
 449.074109587 46.5 449.074109587 46.5 458.071839717 55.8006028592 c 128,-1,39
 467.069569846 65.1012057184 467.069569846 65.1012057184 467.26953125 78.4550843446 c 2,40,-1
 467.26953125 437.405273438 l 2,41,42
 467.26953125 449.885889282 467.26953125 449.885889282 457.619419267 460.840706716 c 0,43,44
 448.47664222 469.9609375 448.47664222 469.9609375 435.455078125 469.9609375 c 2,24,-1
EndSplineSet
EndUndoOperation
EndUndoes
Redoes
EndRedoes
EndUndoRedoHistory
Fore
SplineSet
447 450 m 5,0,-1
 241 450 l 5,1,-1
 241 244 l 5,2,-1
 447 244 l 5,3,-1
 447 450 l 5,0,-1
435.455078125 489.9609375 m 2,4,5
 457.038394322 489.9609375 457.038394322 489.9609375 472.20703125 474.528320312 c 0,6,7
 487.26953125 457.69885025 487.26953125 457.69885025 487.26953125 437.405273438 c 2,8,-1
 487.26953125 78.3154296875 l 2,9,10
 487 57 487 57 472.20703125 41.5625 c 0,11,12
 457.488579317 26.5 457.488579317 26.5 435.455078125 26.5 c 2,13,-1
 76.365234375 26.5 l 2,14,15
 55 26 55 26 39.6123046875 41.5625 c 0,16,17
 24.5498046875 57.4756190269 24.5498046875 57.4756190269 24.5498046875 78.3154296875 c 2,18,-1
 24.5498046875 437.405273438 l 2,19,20
 25.046546013 460.129303402 25.046546013 460.129303402 39.6123046875 474.528320312 c 0,21,22
 54.9611495416 489.9609375 54.9611495416 489.9609375 76.365234375 489.9609375 c 2,23,-1
 435.455078125 489.9609375 l 2,4,5
435.455078125 469.9609375 m 2,24,-1
 76.365234375 469.9609375 l 2,25,26
 63.271792876 469.9609375 63.271792876 469.9609375 54.095245638 460.809295444 c 128,-1,27
 44.9186984 451.657653388 44.9186984 451.657653388 44.5498046875 437.165898037 c 2,28,-1
 44.5498046875 78.3154296875 l 2,29,30
 44.5498046875 65.5182892198 44.5498046875 65.5182892198 53.9858454292 55.46617422 c 0,31,32
 63.0237314177 46.407552484 63.0237314177 46.407552484 73.1429279273 46.407552484 c 0,33,34
 74.082163286 46.407552484 74.082163286 46.407552484 74.7707991878 46.4459941408 c 128,-1,35
 75.4594350895 46.4844357977 75.4594350895 46.4844357977 75.8892828671 46.4944360895 c 2,36,-1
 435.455078125 46.5 l 2,37,38
 449.074109587 46.5 449.074109587 46.5 458.071839717 55.8006028592 c 128,-1,39
 467.069569846 65.1012057184 467.069569846 65.1012057184 467.26953125 78.4550843446 c 2,40,-1
 467.26953125 437.405273438 l 2,41,42
 467.26953125 449.885889282 467.26953125 449.885889282 457.619419267 460.840706716 c 0,43,44
 448.47664222 469.9609375 448.47664222 469.9609375 435.455078125 469.9609375 c 2,24,-1
EndSplineSet
Validated: 41
EndChar

StartChar: S
Encoding: 83 83 63
Width: 512
Flags: W
LayerCount: 2
UndoRedoHistory
Layer: 1
Undoes
UndoOperation
Index: 0
Type: 3
WasModified: 1
WasOrder2: 1
Layer: 2
EndUndoOperation
EndUndoes
Redoes
EndRedoes
EndUndoRedoHistory
Fore
SplineSet
213 160 m 5,0,-1
 213 352 l 5,1,-1
 341 256 l 5,2,-1
 213 160 l 5,0,-1
405 107 m 1,3,-1
 405 405 l 1,4,-1
 107 405 l 1,5,-1
 107 107 l 1,6,-1
 405 107 l 1,3,-1
405 448 m 2,7,8
 422 448 422 448 435 435 c 128,-1,9
 448 422 448 422 448 405 c 2,10,-1
 448 107 l 2,11,12
 448 90 448 90 435 77 c 128,-1,13
 422 64 422 64 405 64 c 2,14,-1
 107 64 l 2,15,16
 90 64 90 64 77 77 c 128,-1,17
 64 90 64 90 64 107 c 2,18,-1
 64 405 l 2,19,20
 64 422 64 422 77 435 c 128,-1,21
 90 448 90 448 107 448 c 2,22,-1
 405 448 l 2,7,8
EndSplineSet
Validated: 1
EndChar

StartChar: less
Encoding: 60 60 64
Width: 512
Flags: W
LayerCount: 2
UndoRedoHistory
Layer: 1
Undoes
UndoOperation
Index: 0
Type: 1
WasModified: 1
WasOrder2: 1
Layer: 2
Width: 512
VWidth: 512
LBearingChange: 0
UnicodeEnc: 0
InstructionsLength: 0
SplineSet
436.263671875 487.934570312 m 6,0,1
 457.959960938 487.934570312 457.959960938 487.934570312 473.026367188 472.868164062 c 132,-1,2
 488.092773438 457.801757812 488.092773438 457.801757812 488.092773438 436.106445312 c 6,3,-1
 488.092773438 76.919921875 l 6,4,5
 488.092773438 55.2236328125 488.092773438 55.2236328125 473.026367188 40.1572265625 c 132,-1,6
 457.959960938 25.0908203125 457.959960938 25.0908203125 436.263671875 25.0908203125 c 6,7,-1
 77.076171875 25.0908203125 l 6,8,9
 55.380859375 25.0908203125 55.380859375 25.0908203125 40.314453125 40.1572265625 c 132,-1,10
 25.2470703125 55.2236328125 25.2470703125 55.2236328125 25.2470703125 76.919921875 c 6,11,-1
 25.2470703125 436.106445312 l 6,12,13
 25.2470703125 457.801757812 25.2470703125 457.801757812 40.314453125 472.868164062 c 132,-1,14
 55.380859375 487.934570312 55.380859375 487.934570312 77.076171875 487.934570312 c 6,15,-1
 436.263671875 487.934570312 l 6,0,1
231.358398438 385.482421875 m 6,16,17
 209.662109375 385.482421875 209.662109375 385.482421875 194.595703125 370.416015625 c 132,-1,18
 179.529296875 355.349609375 179.529296875 355.349609375 179.529296875 333.653320312 c 6,19,-1
 179.529296875 179.372070312 l 6,20,21
 179.529296875 157.67578125 179.529296875 157.67578125 194.595703125 142.609375 c 132,-1,22
 209.662109375 127.54296875 209.662109375 127.54296875 231.358398438 127.54296875 c 6,23,-1
 281.982421875 127.54296875 l 6,24,25
 303.678710938 127.54296875 303.678710938 127.54296875 318.745117188 142.609375 c 132,-1,26
 333.811523438 157.67578125 333.811523438 157.67578125 333.811523438 179.372070312 c 6,27,-1
 333.811523438 333.653320312 l 6,28,29
 333.811523438 355.349609375 333.811523438 355.349609375 318.745117188 370.416015625 c 132,-1,30
 303.678710938 385.482421875 303.678710938 385.482421875 281.982421875 385.482421875 c 6,31,-1
 231.358398438 385.482421875 l 6,16,17
231.358398438 333.653320312 m 5,32,-1
 281.982421875 333.653320312 l 5,33,-1
 281.982421875 179.372070312 l 5,34,-1
 231.358398438 179.372070312 l 5,35,-1
 231.358398438 333.653320312 l 5,32,-1
EndSplineSet
EndUndoOperation
EndUndoes
Redoes
EndRedoes
EndUndoRedoHistory
Fore
SplineSet
435.263671875 487.934570312 m 6,0,1
 456.959960938 487.934570312 456.959960938 487.934570312 472.026367188 472.868164062 c 132,-1,2
 487.092773438 457.801757812 487.092773438 457.801757812 487.092773438 436.106445312 c 6,3,-1
 487.092773438 76.919921875 l 6,4,5
 487.092773438 55.2236328125 487.092773438 55.2236328125 472.026367188 40.1572265625 c 132,-1,6
 456.959960938 25.0908203125 456.959960938 25.0908203125 435.263671875 25.0908203125 c 6,7,-1
 76.076171875 25.0908203125 l 6,8,9
 54.380859375 25.0908203125 54.380859375 25.0908203125 39.314453125 40.1572265625 c 132,-1,10
 24.2470703125 55.2236328125 24.2470703125 55.2236328125 24.2470703125 76.919921875 c 6,11,-1
 24.2470703125 436.106445312 l 6,12,13
 24.2470703125 457.801757812 24.2470703125 457.801757812 39.314453125 472.868164062 c 132,-1,14
 54.380859375 487.934570312 54.380859375 487.934570312 76.076171875 487.934570312 c 6,15,-1
 435.263671875 487.934570312 l 6,0,1
230.358398438 385.482421875 m 6,16,17
 208.662109375 385.482421875 208.662109375 385.482421875 193.595703125 370.416015625 c 132,-1,18
 178.529296875 355.349609375 178.529296875 355.349609375 178.529296875 333.653320312 c 6,19,-1
 178.529296875 179.372070312 l 6,20,21
 178.529296875 157.67578125 178.529296875 157.67578125 193.595703125 142.609375 c 132,-1,22
 208.662109375 127.54296875 208.662109375 127.54296875 230.358398438 127.54296875 c 6,23,-1
 280.982421875 127.54296875 l 6,24,25
 302.678710938 127.54296875 302.678710938 127.54296875 317.745117188 142.609375 c 132,-1,26
 332.811523438 157.67578125 332.811523438 157.67578125 332.811523438 179.372070312 c 6,27,-1
 332.811523438 333.653320312 l 6,28,29
 332.811523438 355.349609375 332.811523438 355.349609375 317.745117188 370.416015625 c 132,-1,30
 302.678710938 385.482421875 302.678710938 385.482421875 280.982421875 385.482421875 c 6,31,-1
 230.358398438 385.482421875 l 6,16,17
230.358398438 333.653320312 m 5,32,-1
 280.982421875 333.653320312 l 5,33,-1
 280.982421875 179.372070312 l 5,34,-1
 230.358398438 179.372070312 l 5,35,-1
 230.358398438 333.653320312 l 5,32,-1
EndSplineSet
Validated: 1
EndChar

StartChar: a
Encoding: 97 97 65
Width: 512
Flags: W
LayerCount: 2
UndoRedoHistory
Layer: 1
Undoes
UndoOperation
Index: 0
Type: 3
WasModified: 0
WasOrder2: 1
Layer: 2
EndUndoOperation
EndUndoes
Redoes
EndRedoes
EndUndoRedoHistory
Fore
SplineSet
277 171 m 5,0,-1
 277 341 l 5,1,-1
 320 341 l 5,2,-1
 320 171 l 5,3,-1
 277 171 l 5,0,-1
192 171 m 5,4,-1
 192 341 l 5,5,-1
 235 341 l 5,6,-1
 235 171 l 5,7,-1
 192 171 l 5,4,-1
256 469 m 128,-1,9
 344 469 344 469 406.5 406.5 c 128,-1,10
 469 344 469 344 469 256 c 128,-1,11
 469 168 469 168 406.5 105.5 c 128,-1,12
 344 43 344 43 256 43 c 128,-1,13
 168 43 168 43 105.5 105.5 c 128,-1,14
 43 168 43 168 43 256 c 128,-1,15
 43 344 43 344 105.5 406.5 c 128,-1,8
 168 469 168 469 256 469 c 128,-1,9
256 444 m 128,-1,17
 178.34840625 444 178.34840625 444 123.174203125 388.825796875 c 128,-1,18
 68 333.65159375 68 333.65159375 68 256 c 128,-1,19
 68 178.34840625 68 178.34840625 123.174203125 123.174203125 c 128,-1,20
 178.34840625 68 178.34840625 68 256 68 c 128,-1,21
 333.65159375 68 333.65159375 68 388.825796875 123.174203125 c 128,-1,22
 444 178.34840625 444 178.34840625 444 256 c 128,-1,23
 444 333.65159375 444 333.65159375 388.825796875 388.825796875 c 128,-1,16
 333.65159375 444 333.65159375 444 256 444 c 128,-1,17
EndSplineSet
Validated: 1
EndChar

StartChar: X
Encoding: 88 88 66
Width: 512
Flags: W
LayerCount: 2
UndoRedoHistory
Layer: 1
Undoes
UndoOperation
Index: 0
Type: 1
WasModified: 1
WasOrder2: 1
Layer: 2
Width: 512
VWidth: 512
LBearingChange: 0
UnicodeEnc: 0
InstructionsLength: 0
SplineSet
321 220 m 1,0,-1
 65 220 l 1,1,-1
 65 66 l 5,2,-1
 321 66 l 5,3,-1
 321 220 l 1,0,-1
435.455078125 259.9609375 m 2,4,5
 457.038394322 259.9609375 457.038394322 259.9609375 472.20703125 244.528320312 c 0,6,7
 487.26953125 227.69885025 487.26953125 227.69885025 487.26953125 207.405273438 c 2,8,-1
 487.26953125 78.3154296875 l 2,9,10
 487 57 487 57 472.20703125 41.5625 c 0,11,12
 457.488579317 26.5 457.488579317 26.5 435.455078125 26.5 c 2,13,-1
 76.365234375 26.5 l 2,14,15
 55 26 55 26 39.6123046875 41.5625 c 0,16,17
 24.5498046875 57.4756190269 24.5498046875 57.4756190269 24.5498046875 78.3154296875 c 2,18,-1
 24.5498046875 207.405273438 l 2,19,20
 25 230 25 230 39.6123046875 244.528320312 c 0,21,22
 54.9611495416 259.9609375 54.9611495416 259.9609375 76.365234375 259.9609375 c 2,23,-1
 435.455078125 259.9609375 l 2,4,5
435.455078125 239.9609375 m 2,24,-1
 76.365234375 239.9609375 l 2,25,26
 63 240 63 240 54.095703125 230.809570312 c 0,27,28
 44.5498046875 220.514471557 44.5498046875 220.514471557 44.5498046875 207.166015625 c 2,29,-1
 44.5498046875 78.3154296875 l 2,30,31
 45 60 45 60 53.9858454292 55.46617422 c 128,-1,32
 63 51 63 51 73.1429279273 46.407552484 c 0,33,34
 74 46 74 46 74.7707991878 46.4459941408 c 0,35,36
 76 46 76 46 75.8892828671 46.4944360895 c 2,37,-1
 435.455078125 46.5 l 2,38,39
 448 47 448 47 458.071839717 55.8006028592 c 0,40,41
 467.26953125 65.2777195897 467.26953125 65.2777195897 467.26953125 78.4550843446 c 2,42,-1
 467.26953125 207.405273438 l 2,43,44
 467 222 467 222 457.619140625 230.840820312 c 0,45,46
 448 240 448 240 435.455078125 239.9609375 c 2,24,-1
EndSplineSet
EndUndoOperation
EndUndoes
Redoes
EndRedoes
EndUndoRedoHistory
Fore
SplineSet
321 220 m 1,0,-1
 65 220 l 1,1,-1
 65 67 l 5,2,-1
 321 67 l 5,3,-1
 321 220 l 1,0,-1
435.455078125 259.9609375 m 2,4,5
 457.038394322 259.9609375 457.038394322 259.9609375 472.20703125 244.528320312 c 0,6,7
 487.26953125 227.69885025 487.26953125 227.69885025 487.26953125 207.405273438 c 2,8,-1
 487.26953125 78.3154296875 l 2,9,10
 487 57 487 57 472.20703125 41.5625 c 0,11,12
 457.488579317 26.5 457.488579317 26.5 435.455078125 26.5 c 2,13,-1
 76.365234375 26.5 l 2,14,15
 55 26 55 26 39.6123046875 41.5625 c 0,16,17
 24.5498046875 57.4756190269 24.5498046875 57.4756190269 24.5498046875 78.3154296875 c 2,18,-1
 24.5498046875 207.405273438 l 2,19,20
 25 230 25 230 39.6123046875 244.528320312 c 0,21,22
 54.9611495416 259.9609375 54.9611495416 259.9609375 76.365234375 259.9609375 c 2,23,-1
 435.455078125 259.9609375 l 2,4,5
435.455078125 239.9609375 m 2,24,-1
 76.365234375 239.9609375 l 2,25,26
 63 240 63 240 54.095703125 230.809570312 c 0,27,28
 44.5498046875 220.514471557 44.5498046875 220.514471557 44.5498046875 207.166015625 c 2,29,-1
 44.5498046875 78.3154296875 l 2,30,31
 45 60 45 60 53.9858454292 55.46617422 c 128,-1,32
 63 51 63 51 73.1429279273 46.407552484 c 0,33,34
 74 46 74 46 74.7707991878 46.4459941408 c 0,35,36
 76 46 76 46 75.8892828671 46.4944360895 c 2,37,-1
 435.455078125 46.5 l 2,38,39
 448 47 448 47 458.071839717 55.8006028592 c 0,40,41
 467.26953125 65.2777195897 467.26953125 65.2777195897 467.26953125 78.4550843446 c 2,42,-1
 467.26953125 207.405273438 l 2,43,44
 467 222 467 222 457.619140625 230.840820312 c 0,45,46
 448 240 448 240 435.455078125 239.9609375 c 2,24,-1
EndSplineSet
Validated: 41
EndChar

StartChar: V
Encoding: 86 86 67
Width: 512
Flags: W
LayerCount: 2
UndoRedoHistory
Layer: 1
Undoes
UndoOperation
Index: 0
Type: 1
WasModified: 1
WasOrder2: 1
Layer: 2
Width: 512
VWidth: 512
LBearingChange: 0
UnicodeEnc: 0
InstructionsLength: 0
SplineSet
211 220 m 5,0,-1
 65 220 l 5,1,-1
 65 64 l 1,2,-1
 211 64 l 1,3,-1
 211 220 l 5,0,-1
435.455078125 489.9609375 m 2,4,5
 457.038394322 489.9609375 457.038394322 489.9609375 472.20703125 474.528320312 c 0,6,7
 487.26953125 457.69885025 487.26953125 457.69885025 487.26953125 437.405273438 c 2,8,-1
 487.26953125 78.3154296875 l 2,9,10
 487 57 487 57 472.20703125 41.5625 c 0,11,12
 457.488579317 26.5 457.488579317 26.5 435.455078125 26.5 c 2,13,-1
 76.365234375 26.5 l 2,14,15
 55 26 55 26 39.6123046875 41.5625 c 0,16,17
 24.5498046875 57.4756190269 24.5498046875 57.4756190269 24.5498046875 78.3154296875 c 2,18,-1
 24.5498046875 437.405273438 l 2,19,20
 25.046546013 460.129303402 25.046546013 460.129303402 39.6123046875 474.528320312 c 0,21,22
 54.9611495416 489.9609375 54.9611495416 489.9609375 76.365234375 489.9609375 c 2,23,-1
 435.455078125 489.9609375 l 2,4,5
435.455078125 469.9609375 m 2,24,-1
 76.365234375 469.9609375 l 2,25,26
 63.271792876 469.9609375 63.271792876 469.9609375 54.095245638 460.809295444 c 128,-1,27
 44.9186984 451.657653388 44.9186984 451.657653388 44.5498046875 437.165898037 c 2,28,-1
 44.5498046875 78.3154296875 l 2,29,30
 44.5498046875 65.5182892198 44.5498046875 65.5182892198 53.9858454292 55.46617422 c 0,31,32
 63.0237314177 46.407552484 63.0237314177 46.407552484 73.1429279273 46.407552484 c 0,33,34
 74.082163286 46.407552484 74.082163286 46.407552484 74.7707991878 46.4459941408 c 128,-1,35
 75.4594350895 46.4844357977 75.4594350895 46.4844357977 75.8892828671 46.4944360895 c 2,36,-1
 435.455078125 46.5 l 2,37,38
 449.074109587 46.5 449.074109587 46.5 458.071839717 55.8006028592 c 128,-1,39
 467.069569846 65.1012057184 467.069569846 65.1012057184 467.26953125 78.4550843446 c 2,40,-1
 467.26953125 437.405273438 l 2,41,42
 467.26953125 449.885889282 467.26953125 449.885889282 457.619419267 460.840706716 c 0,43,44
 448.47664222 469.9609375 448.47664222 469.9609375 435.455078125 469.9609375 c 2,24,-1
EndSplineSet
EndUndoOperation
EndUndoes
Redoes
EndRedoes
EndUndoRedoHistory
Fore
SplineSet
211 210 m 5,0,-1
 65 210 l 5,1,-1
 65 64 l 1,2,-1
 211 64 l 1,3,-1
 211 210 l 5,0,-1
435.455078125 489.9609375 m 2,4,5
 457.038394322 489.9609375 457.038394322 489.9609375 472.20703125 474.528320312 c 0,6,7
 487.26953125 457.69885025 487.26953125 457.69885025 487.26953125 437.405273438 c 2,8,-1
 487.26953125 78.3154296875 l 2,9,10
 487 57 487 57 472.20703125 41.5625 c 0,11,12
 457.488579317 26.5 457.488579317 26.5 435.455078125 26.5 c 2,13,-1
 76.365234375 26.5 l 2,14,15
 55 26 55 26 39.6123046875 41.5625 c 0,16,17
 24.5498046875 57.4756190269 24.5498046875 57.4756190269 24.5498046875 78.3154296875 c 2,18,-1
 24.5498046875 437.405273438 l 2,19,20
 25.046546013 460.129303402 25.046546013 460.129303402 39.6123046875 474.528320312 c 0,21,22
 54.9611495416 489.9609375 54.9611495416 489.9609375 76.365234375 489.9609375 c 2,23,-1
 435.455078125 489.9609375 l 2,4,5
435.455078125 469.9609375 m 2,24,-1
 76.365234375 469.9609375 l 2,25,26
 63.271792876 469.9609375 63.271792876 469.9609375 54.095245638 460.809295444 c 128,-1,27
 44.9186984 451.657653388 44.9186984 451.657653388 44.5498046875 437.165898037 c 2,28,-1
 44.5498046875 78.3154296875 l 2,29,30
 44.5498046875 65.5182892198 44.5498046875 65.5182892198 53.9858454292 55.46617422 c 0,31,32
 63.0237314177 46.407552484 63.0237314177 46.407552484 73.1429279273 46.407552484 c 0,33,34
 74.082163286 46.407552484 74.082163286 46.407552484 74.7707991878 46.4459941408 c 128,-1,35
 75.4594350895 46.4844357977 75.4594350895 46.4844357977 75.8892828671 46.4944360895 c 2,36,-1
 435.455078125 46.5 l 2,37,38
 449.074109587 46.5 449.074109587 46.5 458.071839717 55.8006028592 c 128,-1,39
 467.069569846 65.1012057184 467.069569846 65.1012057184 467.26953125 78.4550843446 c 2,40,-1
 467.26953125 437.405273438 l 2,41,42
 467.26953125 449.885889282 467.26953125 449.885889282 457.619419267 460.840706716 c 0,43,44
 448.47664222 469.9609375 448.47664222 469.9609375 435.455078125 469.9609375 c 2,24,-1
EndSplineSet
Validated: 41
EndChar

StartChar: W
Encoding: 87 87 68
Width: 512
Flags: W
LayerCount: 2
UndoRedoHistory
Layer: 1
Undoes
UndoOperation
Index: 0
Type: 1
WasModified: 1
WasOrder2: 1
Layer: 2
Width: 512
VWidth: 512
LBearingChange: 0
UnicodeEnc: 0
InstructionsLength: 0
SplineSet
447 163 m 1,0,-1
 341 163 l 5,1,-1
 341 67 l 5,2,-1
 447 67 l 1,3,-1
 447 163 l 1,0,-1
435.455078125 489.9609375 m 2,4,5
 457.038394322 489.9609375 457.038394322 489.9609375 472.20703125 474.528320312 c 0,6,7
 487.26953125 457.69885025 487.26953125 457.69885025 487.26953125 437.405273438 c 2,8,-1
 487.26953125 78.3154296875 l 2,9,10
 487 57 487 57 472.20703125 41.5625 c 0,11,12
 457.488579317 26.5 457.488579317 26.5 435.455078125 26.5 c 2,13,-1
 76.365234375 26.5 l 2,14,15
 55 26 55 26 39.6123046875 41.5625 c 0,16,17
 24.5498046875 57.4756190269 24.5498046875 57.4756190269 24.5498046875 78.3154296875 c 2,18,-1
 24.5498046875 437.405273438 l 2,19,20
 25.046546013 460.129303402 25.046546013 460.129303402 39.6123046875 474.528320312 c 0,21,22
 54.9611495416 489.9609375 54.9611495416 489.9609375 76.365234375 489.9609375 c 2,23,-1
 435.455078125 489.9609375 l 2,4,5
435.455078125 469.9609375 m 2,24,-1
 76.365234375 469.9609375 l 2,25,26
 63.271792876 469.9609375 63.271792876 469.9609375 54.095245638 460.809295444 c 128,-1,27
 44.9186984 451.657653388 44.9186984 451.657653388 44.5498046875 437.165898037 c 2,28,-1
 44.5498046875 78.3154296875 l 2,29,30
 44.5498046875 65.5182892198 44.5498046875 65.5182892198 53.9858454292 55.46617422 c 0,31,32
 63.0237314177 46.407552484 63.0237314177 46.407552484 73.1429279273 46.407552484 c 0,33,34
 74.082163286 46.407552484 74.082163286 46.407552484 74.7707991878 46.4459941408 c 128,-1,35
 75.4594350895 46.4844357977 75.4594350895 46.4844357977 75.8892828671 46.4944360895 c 2,36,-1
 435.455078125 46.5 l 2,37,38
 449.074109587 46.5 449.074109587 46.5 458.071839717 55.8006028592 c 128,-1,39
 467.069569846 65.1012057184 467.069569846 65.1012057184 467.26953125 78.4550843446 c 2,40,-1
 467.26953125 437.405273438 l 2,41,42
 467.26953125 449.885889282 467.26953125 449.885889282 457.619419267 460.840706716 c 0,43,44
 448.47664222 469.9609375 448.47664222 469.9609375 435.455078125 469.9609375 c 2,24,-1
EndSplineSet
EndUndoOperation
EndUndoes
Redoes
EndRedoes
EndUndoRedoHistory
Fore
SplineSet
447 163 m 1,0,-1
 351 163 l 5,1,-1
 351 67 l 5,2,-1
 447 67 l 1,3,-1
 447 163 l 1,0,-1
435.455078125 489.9609375 m 2,4,5
 457.038394322 489.9609375 457.038394322 489.9609375 472.20703125 474.528320312 c 0,6,7
 487.26953125 457.69885025 487.26953125 457.69885025 487.26953125 437.405273438 c 2,8,-1
 487.26953125 78.3154296875 l 2,9,10
 487 57 487 57 472.20703125 41.5625 c 0,11,12
 457.488579317 26.5 457.488579317 26.5 435.455078125 26.5 c 2,13,-1
 76.365234375 26.5 l 2,14,15
 55 26 55 26 39.6123046875 41.5625 c 0,16,17
 24.5498046875 57.4756190269 24.5498046875 57.4756190269 24.5498046875 78.3154296875 c 2,18,-1
 24.5498046875 437.405273438 l 2,19,20
 25.046546013 460.129303402 25.046546013 460.129303402 39.6123046875 474.528320312 c 0,21,22
 54.9611495416 489.9609375 54.9611495416 489.9609375 76.365234375 489.9609375 c 2,23,-1
 435.455078125 489.9609375 l 2,4,5
435.455078125 469.9609375 m 2,24,-1
 76.365234375 469.9609375 l 2,25,26
 63.271792876 469.9609375 63.271792876 469.9609375 54.095245638 460.809295444 c 128,-1,27
 44.9186984 451.657653388 44.9186984 451.657653388 44.5498046875 437.165898037 c 2,28,-1
 44.5498046875 78.3154296875 l 2,29,30
 44.5498046875 65.5182892198 44.5498046875 65.5182892198 53.9858454292 55.46617422 c 0,31,32
 63.0237314177 46.407552484 63.0237314177 46.407552484 73.1429279273 46.407552484 c 0,33,34
 74.082163286 46.407552484 74.082163286 46.407552484 74.7707991878 46.4459941408 c 128,-1,35
 75.4594350895 46.4844357977 75.4594350895 46.4844357977 75.8892828671 46.4944360895 c 2,36,-1
 435.455078125 46.5 l 2,37,38
 449.074109587 46.5 449.074109587 46.5 458.071839717 55.8006028592 c 128,-1,39
 467.069569846 65.1012057184 467.069569846 65.1012057184 467.26953125 78.4550843446 c 2,40,-1
 467.26953125 437.405273438 l 2,41,42
 467.26953125 449.885889282 467.26953125 449.885889282 457.619419267 460.840706716 c 0,43,44
 448.47664222 469.9609375 448.47664222 469.9609375 435.455078125 469.9609375 c 2,24,-1
EndSplineSet
Validated: 41
EndChar

StartChar: Y
Encoding: 89 89 69
Width: 512
Flags: W
LayerCount: 2
UndoRedoHistory
Layer: 1
Undoes
UndoOperation
Index: 0
Type: 1
WasModified: 1
WasOrder2: 1
Layer: 2
Width: 512
VWidth: 512
LBearingChange: 0
UnicodeEnc: 0
InstructionsLength: 0
SplineSet
447 220 m 1,0,-1
 312 220 l 5,1,-1
 312 67 l 5,2,-1
 447 67 l 1,3,-1
 447 220 l 1,0,-1
435.455078125 259.9609375 m 2,4,5
 457.038394322 259.9609375 457.038394322 259.9609375 472.20703125 244.528320312 c 0,6,7
 487.26953125 227.69885025 487.26953125 227.69885025 487.26953125 207.405273438 c 2,8,-1
 487.26953125 78.3154296875 l 2,9,10
 487 57 487 57 472.20703125 41.5625 c 0,11,12
 457.488579317 26.5 457.488579317 26.5 435.455078125 26.5 c 2,13,-1
 76.365234375 26.5 l 2,14,15
 55 26 55 26 39.6123046875 41.5625 c 0,16,17
 24.5498046875 57.4756190269 24.5498046875 57.4756190269 24.5498046875 78.3154296875 c 2,18,-1
 24.5498046875 207.405273438 l 2,19,20
 25 230 25 230 39.6123046875 244.528320312 c 0,21,22
 54.9611495416 259.9609375 54.9611495416 259.9609375 76.365234375 259.9609375 c 2,23,-1
 435.455078125 259.9609375 l 2,4,5
435.455078125 239.9609375 m 2,24,-1
 76.365234375 239.9609375 l 2,25,26
 63 240 63 240 54.095703125 230.809570312 c 0,27,28
 44.5498046875 220.514471557 44.5498046875 220.514471557 44.5498046875 207.166015625 c 2,29,-1
 44.5498046875 78.3154296875 l 2,30,31
 45 60 45 60 53.9858454292 55.46617422 c 128,-1,32
 63 51 63 51 73.1429279273 46.407552484 c 0,33,34
 74 46 74 46 74.7707991878 46.4459941408 c 0,35,36
 76 46 76 46 75.8892828671 46.4944360895 c 2,37,-1
 435.455078125 46.5 l 2,38,39
 448 47 448 47 458.071839717 55.8006028592 c 0,40,41
 467.26953125 65.2777195897 467.26953125 65.2777195897 467.26953125 78.4550843446 c 2,42,-1
 467.26953125 207.405273438 l 2,43,44
 467 222 467 222 457.619140625 230.840820312 c 0,45,46
 448 240 448 240 435.455078125 239.9609375 c 2,24,-1
EndSplineSet
EndUndoOperation
EndUndoes
Redoes
EndRedoes
EndUndoRedoHistory
Fore
SplineSet
447 220 m 1,0,-1
 311 220 l 1,1,-1
 311 67 l 1,2,-1
 447 67 l 1,3,-1
 447 220 l 1,0,-1
435.455078125 259.9609375 m 2,4,5
 457.038394322 259.9609375 457.038394322 259.9609375 472.20703125 244.528320312 c 0,6,7
 487.26953125 227.69885025 487.26953125 227.69885025 487.26953125 207.405273438 c 2,8,-1
 487.26953125 78.3154296875 l 2,9,10
 487 57 487 57 472.20703125 41.5625 c 0,11,12
 457.488579317 26.5 457.488579317 26.5 435.455078125 26.5 c 2,13,-1
 76.365234375 26.5 l 2,14,15
 55 26 55 26 39.6123046875 41.5625 c 0,16,17
 24.5498046875 57.4756190269 24.5498046875 57.4756190269 24.5498046875 78.3154296875 c 2,18,-1
 24.5498046875 207.405273438 l 2,19,20
 25 230 25 230 39.6123046875 244.528320312 c 0,21,22
 54.9611495416 259.9609375 54.9611495416 259.9609375 76.365234375 259.9609375 c 2,23,-1
 435.455078125 259.9609375 l 2,4,5
435.455078125 239.9609375 m 2,24,-1
 76.365234375 239.9609375 l 2,25,26
 63 240 63 240 54.095703125 230.809570312 c 0,27,28
 44.5498046875 220.514471557 44.5498046875 220.514471557 44.5498046875 207.166015625 c 2,29,-1
 44.5498046875 78.3154296875 l 2,30,31
 45 60 45 60 53.9858454292 55.46617422 c 128,-1,32
 63 51 63 51 73.1429279273 46.407552484 c 0,33,34
 74 46 74 46 74.7707991878 46.4459941408 c 0,35,36
 76 46 76 46 75.8892828671 46.4944360895 c 2,37,-1
 435.455078125 46.5 l 2,38,39
 448 47 448 47 458.071839717 55.8006028592 c 0,40,41
 467.26953125 65.2777195897 467.26953125 65.2777195897 467.26953125 78.4550843446 c 2,42,-1
 467.26953125 207.405273438 l 2,43,44
 467 222 467 222 457.619140625 230.840820312 c 0,45,46
 448 240 448 240 435.455078125 239.9609375 c 2,24,-1
EndSplineSet
Validated: 41
EndChar

StartChar: Z
Encoding: 90 90 70
Width: 512
Flags: W
LayerCount: 2
UndoRedoHistory
Layer: 1
Undoes
UndoOperation
Index: 0
Type: 1
WasModified: 1
WasOrder2: 1
Layer: 2
Width: 512
VWidth: 512
LBearingChange: 0
UnicodeEnc: 0
InstructionsLength: 0
SplineSet
180 190 m 5,0,-1
 180 446 l 5,1,-1
 333 446 l 5,2,-1
 333 190 l 5,3,-1
 180 190 l 5,0,-1
140.0390625 75.544921875 m 6,4,5
 140.0390625 53.9619140625 140.0390625 53.9619140625 155.471679688 38.79296875 c 4,6,7
 172.30078125 23.73046875 172.30078125 23.73046875 192.594726562 23.73046875 c 6,8,-1
 321.684570312 23.73046875 l 6,9,10
 343 24 343 24 358.4375 38.79296875 c 4,11,12
 373.5 53.51171875 373.5 53.51171875 373.5 75.544921875 c 6,13,-1
 373.5 434.634765625 l 6,14,15
 374 456 374 456 358.4375 471.387695312 c 4,16,17
 342.524414062 486.450195312 342.524414062 486.450195312 321.684570312 486.450195312 c 6,18,-1
 192.594726562 486.450195312 l 6,19,20
 170 486 170 486 155.471679688 471.387695312 c 4,21,22
 140.0390625 456.0390625 140.0390625 456.0390625 140.0390625 434.634765625 c 6,23,-1
 140.0390625 75.544921875 l 6,4,5
160.0390625 75.544921875 m 6,24,-1
 160.0390625 434.634765625 l 6,25,26
 160 448 160 448 169.190429688 456.904296875 c 4,27,28
 179.485351562 466.450195312 179.485351562 466.450195312 192.833984375 466.450195312 c 6,29,-1
 321.684570312 466.450195312 l 6,30,31
 340 466 340 466 344.534179688 457.013671875 c 132,-1,32
 349 448 349 448 353.592773438 437.857421875 c 4,33,34
 354 437 354 437 353.553710938 436.229492188 c 4,35,36
 354 435 354 435 353.505859375 435.110351562 c 6,37,-1
 353.5 75.544921875 l 6,38,39
 353 63 353 63 344.19921875 52.927734375 c 4,40,41
 334.72265625 43.73046875 334.72265625 43.73046875 321.544921875 43.73046875 c 6,42,-1
 192.594726562 43.73046875 l 6,43,44
 178 44 178 44 169.159179688 53.380859375 c 4,45,46
 160 63 160 63 160.0390625 75.544921875 c 6,24,-1
EndSplineSet
EndUndoOperation
EndUndoes
Redoes
EndRedoes
EndUndoRedoHistory
Fore
SplineSet
179 190 m 5,0,-1
 179 446 l 5,1,-1
 332 446 l 5,2,-1
 332 190 l 5,3,-1
 179 190 l 5,0,-1
139.0390625 75.544921875 m 6,4,5
 139.0390625 53.9619140625 139.0390625 53.9619140625 154.471679688 38.79296875 c 4,6,7
 171.30078125 23.73046875 171.30078125 23.73046875 191.594726562 23.73046875 c 6,8,-1
 320.684570312 23.73046875 l 6,9,10
 342 24 342 24 357.4375 38.79296875 c 4,11,12
 372.5 53.51171875 372.5 53.51171875 372.5 75.544921875 c 6,13,-1
 372.5 434.634765625 l 6,14,15
 373 456 373 456 357.4375 471.387695312 c 4,16,17
 341.524414062 486.450195312 341.524414062 486.450195312 320.684570312 486.450195312 c 6,18,-1
 191.594726562 486.450195312 l 6,19,20
 169 486 169 486 154.471679688 471.387695312 c 4,21,22
 139.0390625 456.0390625 139.0390625 456.0390625 139.0390625 434.634765625 c 6,23,-1
 139.0390625 75.544921875 l 6,4,5
159.0390625 75.544921875 m 6,24,-1
 159.0390625 434.634765625 l 6,25,26
 159 448 159 448 168.190429688 456.904296875 c 4,27,28
 178.485351562 466.450195312 178.485351562 466.450195312 191.833984375 466.450195312 c 6,29,-1
 320.684570312 466.450195312 l 6,30,31
 339 466 339 466 343.534179688 457.013671875 c 132,-1,32
 348 448 348 448 352.592773438 437.857421875 c 4,33,34
 353 437 353 437 352.553710938 436.229492188 c 4,35,36
 353 435 353 435 352.505859375 435.110351562 c 6,37,-1
 352.5 75.544921875 l 6,38,39
 352 63 352 63 343.19921875 52.927734375 c 4,40,41
 333.72265625 43.73046875 333.72265625 43.73046875 320.544921875 43.73046875 c 6,42,-1
 191.594726562 43.73046875 l 6,43,44
 177 44 177 44 168.159179688 53.380859375 c 4,45,46
 159 63 159 63 159.0390625 75.544921875 c 6,24,-1
EndSplineSet
Validated: 41
EndChar

StartChar: backslash
Encoding: 92 92 71
Width: 512
Flags: W
LayerCount: 2
UndoRedoHistory
Layer: 1
Undoes
UndoOperation
Index: 0
Type: 1
WasModified: 1
WasOrder2: 1
Layer: 2
Width: 512
VWidth: 512
LBearingChange: 0
UnicodeEnc: 0
InstructionsLength: 0
SplineSet
179 65 m 5,0,-1
 179.91015625 201 l 5,1,-1
 332.91015625 201 l 5,2,-1
 332 65 l 5,3,-1
 179 65 l 5,0,-1
139.0390625 75.544921875 m 2,4,5
 139.0390625 53.9619140625 139.0390625 53.9619140625 154.471679688 38.79296875 c 0,6,7
 171.30078125 23.73046875 171.30078125 23.73046875 191.594726562 23.73046875 c 2,8,-1
 320.684570312 23.73046875 l 2,9,10
 342 24 342 24 357.4375 38.79296875 c 0,11,12
 372.5 53.51171875 372.5 53.51171875 372.5 75.544921875 c 2,13,-1
 372.5 434.634765625 l 2,14,15
 373 456 373 456 357.4375 471.387695312 c 0,16,17
 341.524414062 486.450195312 341.524414062 486.450195312 320.684570312 486.450195312 c 2,18,-1
 191.594726562 486.450195312 l 2,19,20
 169 486 169 486 154.471679688 471.387695312 c 0,21,22
 139.0390625 456.0390625 139.0390625 456.0390625 139.0390625 434.634765625 c 2,23,-1
 139.0390625 75.544921875 l 2,4,5
159.0390625 75.544921875 m 2,24,-1
 159.0390625 434.634765625 l 2,25,26
 159 448 159 448 168.190429688 456.904296875 c 0,27,28
 178.485351562 466.450195312 178.485351562 466.450195312 191.833984375 466.450195312 c 2,29,-1
 320.684570312 466.450195312 l 2,30,31
 339 466 339 466 343.534179688 457.013671875 c 128,-1,32
 348 448 348 448 352.592773438 437.857421875 c 0,33,34
 353 437 353 437 352.553710938 436.229492188 c 0,35,36
 353 435 353 435 352.505859375 435.110351562 c 2,37,-1
 352.5 75.544921875 l 2,38,39
 352 63 352 63 343.19921875 52.927734375 c 0,40,41
 333.72265625 43.73046875 333.72265625 43.73046875 320.544921875 43.73046875 c 2,42,-1
 191.594726562 43.73046875 l 2,43,44
 177 44 177 44 168.159179688 53.380859375 c 0,45,46
 159 63 159 63 159.0390625 75.544921875 c 2,24,-1
EndSplineSet
EndUndoOperation
EndUndoes
Redoes
EndRedoes
EndUndoRedoHistory
Fore
SplineSet
179 64 m 5,0,-1
 179.91015625 200 l 5,1,-1
 332.91015625 200 l 5,2,-1
 332 64 l 5,3,-1
 179 64 l 5,0,-1
139.0390625 75.544921875 m 2,4,5
 139.0390625 53.9619140625 139.0390625 53.9619140625 154.471679688 38.79296875 c 0,6,7
 171.30078125 23.73046875 171.30078125 23.73046875 191.594726562 23.73046875 c 2,8,-1
 320.684570312 23.73046875 l 2,9,10
 342 24 342 24 357.4375 38.79296875 c 0,11,12
 372.5 53.51171875 372.5 53.51171875 372.5 75.544921875 c 2,13,-1
 372.5 434.634765625 l 2,14,15
 373 456 373 456 357.4375 471.387695312 c 0,16,17
 341.524414062 486.450195312 341.524414062 486.450195312 320.684570312 486.450195312 c 2,18,-1
 191.594726562 486.450195312 l 2,19,20
 169 486 169 486 154.471679688 471.387695312 c 0,21,22
 139.0390625 456.0390625 139.0390625 456.0390625 139.0390625 434.634765625 c 2,23,-1
 139.0390625 75.544921875 l 2,4,5
159.0390625 75.544921875 m 2,24,-1
 159.0390625 434.634765625 l 2,25,26
 159 448 159 448 168.190429688 456.904296875 c 0,27,28
 178.485351562 466.450195312 178.485351562 466.450195312 191.833984375 466.450195312 c 2,29,-1
 320.684570312 466.450195312 l 2,30,31
 339 466 339 466 343.534179688 457.013671875 c 128,-1,32
 348 448 348 448 352.592773438 437.857421875 c 0,33,34
 353 437 353 437 352.553710938 436.229492188 c 0,35,36
 353 435 353 435 352.505859375 435.110351562 c 2,37,-1
 352.5 75.544921875 l 2,38,39
 352 63 352 63 343.19921875 52.927734375 c 0,40,41
 333.72265625 43.73046875 333.72265625 43.73046875 320.544921875 43.73046875 c 2,42,-1
 191.594726562 43.73046875 l 2,43,44
 177 44 177 44 168.159179688 53.380859375 c 0,45,46
 159 63 159 63 159.0390625 75.544921875 c 2,24,-1
EndSplineSet
Validated: 41
EndChar

StartChar: quotesingle
Encoding: 39 39 72
Width: 512
Flags: W
LayerCount: 2
UndoRedoHistory
Layer: 1
Undoes
UndoOperation
Index: 0
Type: 3
WasModified: 0
WasOrder2: 1
Layer: 2
EndUndoOperation
EndUndoes
Redoes
EndRedoes
EndUndoRedoHistory
Fore
SplineSet
128 23 m 5,0,-1
 385 23 l 5,1,-1
 385 1 l 5,2,-1
 128 1 l 5,3,-1
 128 23 l 5,0,-1
341 160 m 1,4,-1
 256 245 l 1,5,-1
 171 160 l 1,6,-1
 171 85 l 1,7,-1
 341 85 l 1,8,-1
 341 160 l 1,4,-1
128 469 m 1,9,-1
 384 469 l 1,10,-1
 384 341 l 1,11,-1
 299 256 l 1,12,-1
 384 171 l 1,13,-1
 384 43 l 1,14,-1
 128 43 l 1,15,-1
 128 171 l 1,16,-1
 213 256 l 1,17,-1
 128 341 l 1,18,-1
 128 469 l 1,9,-1
EndSplineSet
Validated: 1
EndChar
